<?xml version="1.0" encoding="UTF-8" standalone="no"?>
<!-- Created with Inkscape (http://www.inkscape.org/) -->

<svg
        xmlns:dc="http://purl.org/dc/elements/1.1/"
        xmlns:cc="http://creativecommons.org/ns#"
        xmlns:rdf="http://www.w3.org/1999/02/22-rdf-syntax-ns#"
        xmlns="http://www.w3.org/2000/svg"
        xmlns:sodipodi="http://sodipodi.sourceforge.net/DTD/sodipodi-0.dtd"
        xmlns:inkscape="http://www.inkscape.org/namespaces/inkscape"
        version="1.1"
        id="svg2"
        viewBox="0 0 417 324"
        sodipodi:docname="ca.svg"
        inkscape:version="0.92.4 (f8dce91, 2019-08-02)">
  <metadata
     id="metadata8">
    <rdf:RDF>
      <cc:Work
         rdf:about="">
        <dc:format>image/svg+xml</dc:format>
        <dc:type
           rdf:resource="http://purl.org/dc/dcmitype/StillImage" />
        <dc:title></dc:title>
      </cc:Work>
    </rdf:RDF>
  </metadata>
  <defs
     id="defs6">
    <clipPath
       clipPathUnits="userSpaceOnUse"
       id="clipPath842">
      <rect
         style="fill:#0000ff;fill-rule:evenodd;stroke-width:0.98709625"
         id="rect844"
         width="408.98303"
         height="318.57626"
         x="163.59322"
         y="73.18644" />
    </clipPath>
  </defs>
  <sodipodi:namedview
     pagecolor="#ffffff"
     bordercolor="#666666"
     borderopacity="1"
     objecttolerance="10"
     gridtolerance="10"
     guidetolerance="10"
     inkscape:pageopacity="0"
     inkscape:pageshadow="2"
     inkscape:window-width="1920"
     inkscape:window-height="1013"
     id="namedview4"
     showgrid="false"
     inkscape:zoom="1.3139937"
     inkscape:cx="272.67536"
     inkscape:cy="193.11691"
     inkscape:window-x="0"
     inkscape:window-y="0"
     inkscape:window-maximized="1"
     inkscape:current-layer="svg2"
     inkscape:snap-global="false" />
  <g
     id="g879"
     transform="translate(-312.02585,15.981812)">
    <rect
       y="-11.449697"
       x="316.33093"
       height="318.57626"
       width="408.98303"
       id="rect854"
       style="fill:#ffffff;fill-rule:evenodd" >

    </rect>

    <path
       inkscape:connector-curvature="0"
       id="path848"
       d="m 355.55247,265.07053 c -11.58333,-0.89517 -13.71677,-1.84505 -21.91931,-9.75923 -4.69384,-4.52882 -6.69671,-8.12791 -8.05958,-14.48274 -1.13563,-5.29526 -1.15867,-218.080626 -0.0241,-223.003809 2.71242,-11.7703107 12.00123,-21.1183267 23.3814,-23.5304357 6.41539,-1.359787 331.04527,-1.184761 336.15137,0.181238 10.44405,2.794023 16.99082,8.874753 22.23649,20.6535587 1.27661,2.866535 1.36773,9.416267 1.56169,112.253208 0.20532,108.85519 0.20084,109.226 -1.38289,114.44209 -3.91423,12.8917 -13.43834,21.29052 -26.22048,23.12246 -3.43625,0.49248 -147.21991,0.65626 -205.6707,0.23427 l -7.03961,-0.0508 v -24.2704 -24.27037 l 3.09101,-3.6978 c 4.63933,-5.55007 7.76097,-11.30554 10.26102,-18.91857 2.08006,-6.3341 2.24044,-7.62221 2.13204,-17.12337 -0.11026,-9.66359 -0.27539,-10.71623 -2.77923,-17.71676 -3.23059,-9.03241 -7.39998,-15.61865 -13.68497,-21.61768 -8.02014,-7.65522 -13.44955,-10.61041 -27.15109,-14.77814 -5.57004,-1.6943 -19.08624,-1.28668 -25.90252,0.78117 -8.39796,2.54767 -12.81729,4.56027 -17.50389,7.97142 -10.44596,7.60311 -18.37863,18.61047 -21.92978,30.42975 -2.43568,8.10665 -2.69341,21.83295 -0.55184,29.38998 2.03138,7.16818 6.06667,15.14002 10.36207,20.47056 l 3.74812,4.65138 v 24.34941 24.3494 l -3.99545,0.0838 c -2.1975,0.0461 -7.93383,0.16497 -12.7474,0.26418 -4.81357,0.0992 -12.17661,-0.0843 -16.36233,-0.40774 z m 304.79598,-87.84589 v -7.99663 l -47.75517,0.19598 -47.75518,0.19598 -0.22565,6.08575 c -0.12411,3.34717 -0.032,6.85746 0.20476,7.80064 l 0.43041,1.7149 h 47.55042 47.55041 z m 0,-47.9436 v -7.99479 l -71.72789,0.19414 -71.72789,0.19414 -0.22178,6.78912 c -0.12199,3.73401 -0.0471,7.2443 0.16637,7.80065 0.31905,0.83142 13.12993,1.01152 71.94968,1.01152 h 71.56151 z m 0,-47.941564 V 73.348569 H 516.51215 372.67584 v 7.990907 7.99091 h 143.83631 143.8363 z"
       style="opacity:1;fill:#00002b;fill-opacity:1;fill-rule:evenodd;stroke:#00002f;stroke-width:0;stroke-miterlimit:4;stroke-dasharray:none;stroke-dashoffset:0;stroke-opacity:1;paint-order:stroke fill markers" />
    <path
       inkscape:connector-curvature="0"
       id="path850"
       d="m 417.74268,216.00252 c -12.55155,-3.37879 -22.65282,-13.16312 -27.3423,-26.4844 -1.71365,-4.8679 -1.87528,-6.2767 -1.54072,-13.42933 0.28664,-6.1281 0.81038,-9.05536 2.24669,-12.55713 5.29698,-12.91423 13.34514,-20.3484 26.78637,-24.74288 12.5573,-4.10548 29.5669,0.40141 39.59359,10.49078 3.84322,3.86725 8.94503,13.4109 10.26322,19.19885 1.03114,4.52748 1.01915,14.82974 -0.0217,18.64545 -1.75246,6.42451 -6.84575,15.52724 -10.54051,18.83802 -5.44532,4.8794 -14.27698,9.62046 -19.52066,10.47918 -6.30452,1.03244 -15.18575,0.83696 -19.924,-0.43854 z"
       style="opacity:1;fill:#00002b;fill-opacity:1;fill-rule:evenodd;stroke:#00002f;stroke-width:0;stroke-miterlimit:4;stroke-dasharray:none;stroke-dashoffset:0;stroke-opacity:1;paint-order:stroke fill markers" />
    <path
       inkscape:connector-curvature="0"
       id="path852"
       d="m 404.63946,267.44021 c 0,-42.23011 -0.2543,-39.97611 4.25905,-37.74966 8.09037,3.991 25.81093,4.38726 37.16926,0.83117 3.32201,-1.04006 6.15053,-1.7805 6.28561,-1.64542 0.13508,0.13508 0.15682,17.64781 0.0483,38.91718 l -0.1973,38.67157 -11.64771,-11.65531 -11.64771,-11.65531 -3.86718,3.73534 c -2.12694,2.05444 -6.98826,6.93531 -10.80292,10.84638 -3.81467,3.91107 -7.53508,7.43342 -8.26758,7.82743 -1.26036,0.67794 -1.33182,-1.36759 -1.33182,-38.12337 z"
       style="opacity:1;fill:#00002b;fill-opacity:1;fill-rule:evenodd;stroke:#00002f;stroke-width:0;stroke-miterlimit:4;stroke-dasharray:none;stroke-dashoffset:0;stroke-opacity:1;paint-order:stroke fill markers" />
  </g>
</svg>
