<?xml version="1.0" encoding="UTF-8" standalone="no"?>
<!-- Generator: Adobe Illustrator 16.2.1, SVG Export Plug-In . SVG Version: 6.00 Build 0)  -->

<svg
   xmlns:dc="http://purl.org/dc/elements/1.1/"
   xmlns:cc="http://creativecommons.org/ns#"
   xmlns:rdf="http://www.w3.org/1999/02/22-rdf-syntax-ns#"
   xmlns:svg="http://www.w3.org/2000/svg"
   xmlns="http://www.w3.org/2000/svg"
   xmlns:sodipodi="http://sodipodi.sourceforge.net/DTD/sodipodi-0.dtd"
   xmlns:inkscape="http://www.inkscape.org/namespaces/inkscape"
   version="1.1"
   id="Layer_1"
   x="0px"
   y="0px"
   viewBox="0 0 512 512"
   style="enable-background:new 0 0 512 512;"
   xml:space="preserve"
   sodipodi:docname="totpl.svg"
   inkscape:version="0.92.4 (33fec40, 2019-01-16)"><metadata
   id="metadata5452"><rdf:RDF><cc:Work
       rdf:about=""><dc:format>image/svg+xml</dc:format><dc:type
         rdf:resource="http://purl.org/dc/dcmitype/StillImage" /><dc:title></dc:title></cc:Work></rdf:RDF></metadata><defs
   id="defs5450" /><sodipodi:namedview
   pagecolor="#ffffff"
   bordercolor="#666666"
   borderopacity="1"
   objecttolerance="10"
   gridtolerance="10"
   guidetolerance="10"
   inkscape:pageopacity="0"
   inkscape:pageshadow="2"
   inkscape:window-width="1920"
   inkscape:window-height="1013"
   id="namedview5448"
   showgrid="false"
   inkscape:snap-global="false"
   inkscape:zoom="1.6152344"
   inkscape:cx="256"
   inkscape:cy="256"
   inkscape:window-x="0"
   inkscape:window-y="0"
   inkscape:window-maximized="1"
   inkscape:current-layer="Layer_1" />
<g
   id="g5445"
   transform="matrix(1.10969,0,0,1,-26.836969,16.096735)"
   style="fill:#00002b">
	<path
   d="M 328.2,64 H 183.8 C 170.7,64 160,74.7 160,87.9 v 336.3 c 0,13.1 10.7,23.8 23.8,23.8 h 144.3 c 13.1,0 23.8,-10.7 23.8,-23.8 V 87.9 C 352,74.7 341.3,64 328.2,64 Z M 240,99.9 c 0,-2.1 1.7,-3.9 3.9,-3.9 h 24.3 c 2.1,0 3.9,1.7 3.9,3.9 v 0.3 c 0,2.1 -1.7,3.9 -3.9,3.9 h -24.3 c -2.1,0 -3.9,-1.7 -3.9,-3.9 V 99.9 Z M 228,96 c 2.2,0 4,1.8 4,4 0,2.2 -1.8,4 -4,4 -2.2,0 -4,-1.8 -4,-4 0,-2.2 1.8,-4 4,-4 z m 28,336.1 c -8.9,0 -16.1,-7.2 -16.1,-16.1 0,-8.9 7.2,-16.1 16.1,-16.1 8.9,0 16.1,7.2 16.1,16.1 0,8.9 -7.3,16.1 -16.1,16.1 z M 336,384 H 176 V 128 h 160 z"
   id="path5443"
   inkscape:connector-curvature="0"
   style="fill:#00002b" />
</g>
<rect
   style="fill:#ffffff;fill-rule:evenodd;stroke-width:1.00523102"
   id="rect7241"
   width="178.9214"
   height="255.69044"
   x="167.1584"
   y="144.25151" /><text
   xml:space="preserve"
   style="font-style:normal;font-variant:normal;font-weight:normal;font-stretch:normal;font-size:64px;line-height:1.25;font-family:Armata;-inkscape-font-specification:Armata;letter-spacing:0px;word-spacing:0px;fill:#000000;fill-opacity:1;stroke:none"
   x="189.77992"
   y="364.65295"
   id="text5503"><tspan
     sodipodi:role="line"
     id="tspan5501"
     x="189.77992"
     y="364.65295"
     style="font-size:10.66666698px;fill:#ffffff">Authorize</tspan></text>
<text
   id="text5507"
   y="364.65295"
   x="277.92987"
   style="font-style:normal;font-variant:normal;font-weight:normal;font-stretch:normal;font-size:64px;line-height:1.25;font-family:Armata;-inkscape-font-specification:Armata;letter-spacing:0px;word-spacing:0px;fill:#000000;fill-opacity:1;stroke:none"
   xml:space="preserve"><tspan
     style="font-size:10.66666698px;fill:#ffffff"
     y="364.65295"
     x="277.92987"
     id="tspan5505"
     sodipodi:role="line">Reject</tspan></text>
<ellipse
   style="opacity:1;fill:#ffffff;fill-opacity:1;fill-rule:evenodd;stroke:none;stroke-width:5.2774024;stroke-miterlimit:4;stroke-dasharray:21.10960901, 10.5548045;stroke-dashoffset:0;stroke-opacity:0.94117647"
   id="path7243"
   cx="256.30954"
   cy="431.82587"
   rx="16.715841"
   ry="14.548972" /><ellipse
   style="opacity:1;fill:#ffffff;fill-opacity:1;fill-rule:evenodd;stroke:none;stroke-width:4.75222588;stroke-miterlimit:4;stroke-dasharray:19.0089035, 9.50445175;stroke-dashoffset:0;stroke-opacity:0.94117647"
   id="path7245"
   cx="258.78598"
   cy="116.08222"
   rx="16.715841"
   ry="2.7859733" /><ellipse
   style="opacity:1;fill:#ffffff;fill-opacity:1;fill-rule:evenodd;stroke:none;stroke-width:4.75222588;stroke-miterlimit:4;stroke-dasharray:19.0089035, 9.50445175;stroke-dashoffset:0;stroke-opacity:0.94117647"
   id="path7247"
   cx="225.66385"
   cy="115.77267"
   rx="2.1668682"
   ry="1.8573155" /><path
   style="opacity:1;fill:#2c89a0;fill-opacity:1;fill-rule:evenodd;stroke:none;stroke-width:2.9421277;stroke-miterlimit:4;stroke-dasharray:11.76851099, 5.8842555;stroke-dashoffset:0;stroke-opacity:0.94117647"
   d="m 172.92367,463.59078 c -8.78818,-1.13597 -17.43754,-7.56237 -20.54913,-15.26782 l -1.43669,-3.55778 V 272.03482 99.304474 l 1.91325,-4.024184 c 2.45273,-5.158879 4.63636,-7.706901 9.04877,-10.55878 7.17464,-4.637189 1.2126,-4.380789 97.07183,-4.174615 l 85.74608,0.184423 4.16244,1.971838 c 5.54746,2.627946 9.90278,6.799275 12.40402,11.880004 l 2.00669,4.076172 V 272.03482 445.41031 l -2.00669,4.07618 c -3.77914,7.67651 -11.47938,12.95725 -20.62457,14.14408 -5.69554,0.73915 -161.9968,0.70208 -167.736,-0.0398 z m 90.97614,-16.59238 c 9.55987,-3.63246 13.78018,-13.15571 9.57221,-21.59999 -4.99305,-10.01974 -19.78492,-12.56842 -28.48715,-4.90841 -3.98176,3.5049 -5.46918,6.65519 -5.46918,11.58352 0,4.96909 1.48896,8.07998 5.59878,11.69759 4.87367,4.28997 12.52785,5.60495 18.78534,3.22729 z m 82.21243,-174.8088 0.15624,-128 h -89.46217 -89.46217 v 127.79363 c 0,101.65504 0.15828,127.85773 0.77388,128.107 0.42563,0.17236 40.6133,0.26522 89.30592,0.20637 l 88.53205,-0.107 z M 229.1169,119.08073 c 1.75109,-1.2265 1.8203,-4.16385 0.13776,-5.84639 -2.66503,-2.66502 -7.42927,-0.70244 -7.42927,3.06042 0,2.10649 1.89918,3.74974 4.33374,3.74974 0.86999,0 2.20099,-0.4337 2.95777,-0.96377 z m 44.87105,-0.11967 c 1.67441,-1.87265 1.61714,-3.95186 -0.15772,-5.72672 -1.17095,-1.17095 -2.06368,-1.23821 -16.43443,-1.23821 h -15.19622 l -1.51962,1.51962 c -1.85404,1.85404 -1.89894,2.78401 -0.23648,4.89749 l 1.28315,1.63126 h 15.64629 c 14.11946,0 15.74083,-0.10573 16.61503,-1.08344 z"
   id="path7249"
   inkscape:connector-curvature="0" /><path
   style="opacity:1;fill:#e6e6e6;fill-opacity:1;fill-rule:evenodd;stroke:none;stroke-width:2.9421277;stroke-miterlimit:4;stroke-dasharray:11.76851099, 5.88425550000000008;stroke-dashoffset:0;stroke-opacity:0.94117647"
   d="m 171.05877,463.58724 c -7.3715,-1.4396 -15.0828,-7.31758 -18.35953,-13.99462 l -1.76139,-3.58923 -0.15803,-173.2011 -0.15803,-173.201103 1.79649,-3.962086 c 4.00855,-8.840659 13.66722,-15.5988 21.21822,-14.846319 2.00317,0.199623 2.37035,0.118956 1.44645,-0.317779 -1.71886,-0.812523 162.19748,-0.869014 167.1584,-0.05761 8.33832,1.363809 16.22754,7.232862 19.53872,14.535495 l 1.82041,4.014845 V 272.03482 445.10191 l -1.81073,3.9935 c -2.15059,4.74301 -6.59806,9.43935 -11.09916,11.72023 -7.12695,3.61149 -2.86546,3.45737 -93.5515,3.38351 -45.81189,-0.0373 -84.54804,-0.31266 -86.08032,-0.61191 z m 93.7455,-17.19423 c 12.40972,-5.51574 13.45957,-20.89229 1.88939,-27.67287 -11.46472,-6.71877 -26.91422,0.94644 -26.91422,13.35338 0,11.56802 13.6466,19.37676 25.02483,14.31949 z m 81.04953,-109.7642 c 0.22646,-34.78818 0.41174,-92.31853 0.41174,-127.84522 V 144.1896 h -89.4607 -89.4607 l 0.002,117.16566 c 0.001,64.44111 0.1842,121.97146 0.407,127.84522 l 0.40511,10.67957 h 88.64197 88.64197 l 0.41173,-63.25124 z M 228.97324,118.52488 c 1.81771,-1.8177 1.89882,-2.82777 0.37789,-4.70603 -1.55226,-1.91697 -4.83174,-1.91697 -6.384,0 -0.62795,0.77549 -1.14174,1.80968 -1.14174,2.29819 0,1.3355 2.86009,3.92746 4.33374,3.92746 0.71197,0 1.97832,-0.68383 2.81411,-1.51962 z m 44.46394,0.23647 c 1.93258,-1.52017 2.0652,-2.9962 0.4487,-4.99409 -1.1744,-1.45149 -1.28456,-1.46292 -15.96322,-1.6557 -14.30795,-0.18792 -14.83443,-0.15183 -16.46194,1.12837 -2.01025,1.58126 -2.18852,3.8209 -0.44307,5.56636 1.16904,1.16903 2.06369,1.23821 16.01325,1.23821 14.01006,0 14.85949,-0.0664 16.40628,-1.28315 z"
   id="path7253"
   inkscape:connector-curvature="0" /><path
   sodipodi:type="star"
   style="opacity:1;fill:#216778;fill-opacity:1;fill-rule:evenodd;stroke:none;stroke-width:1.51181102;stroke-miterlimit:4;stroke-dasharray:none;stroke-opacity:0.94117647"
   id="path5454"
   sodipodi:sides="5"
   sodipodi:cx="181.39783"
   sodipodi:cy="258.16687"
   sodipodi:r1="11.892623"
   sodipodi:r2="5.9463115"
   sodipodi:arg1="0.89605538"
   sodipodi:arg2="1.5243739"
   inkscape:flatsided="false"
   inkscape:rounded="0"
   inkscape:randomized="0"
   d="m 188.82709,267.45345 -7.15332,-3.34667 -6.81224,3.99545 0.97238,-7.83739 -5.905,-5.24416 7.75429,-1.4971 3.16274,-7.23652 3.82003,6.91213 7.85969,0.77174 -5.39338,5.76903 z"
   inkscape:transform-center-x="-0.016330213"
   inkscape:transform-center-y="-1.1201024"
   transform="rotate(2.9144068,309.54233,558.99949)" /><path
   transform="rotate(2.9144068,371.45283,2992.7344)"
   inkscape:transform-center-y="-1.1201024"
   inkscape:transform-center-x="-0.016330213"
   d="m 188.82709,267.45345 -7.15332,-3.34667 -6.81224,3.99545 0.97238,-7.83739 -5.905,-5.24416 7.75429,-1.4971 3.16274,-7.23652 3.82003,6.91213 7.85969,0.77174 -5.39338,5.76903 z"
   inkscape:randomized="0"
   inkscape:rounded="0"
   inkscape:flatsided="false"
   sodipodi:arg2="1.5243739"
   sodipodi:arg1="0.89605538"
   sodipodi:r2="5.9463115"
   sodipodi:r1="11.892623"
   sodipodi:cy="258.16687"
   sodipodi:cx="181.39783"
   sodipodi:sides="5"
   id="path5456"
   style="opacity:1;fill:#216778;fill-opacity:1;fill-rule:evenodd;stroke:none;stroke-width:1.51181102;stroke-miterlimit:4;stroke-dasharray:none;stroke-opacity:0.94117647"
   sodipodi:type="star" /><path
   sodipodi:type="star"
   style="opacity:1;fill:#216778;fill-opacity:1;fill-rule:evenodd;stroke:none;stroke-width:1.51181102;stroke-miterlimit:4;stroke-dasharray:none;stroke-opacity:0.94117647"
   id="path5458"
   sodipodi:sides="5"
   sodipodi:cx="181.39783"
   sodipodi:cy="258.16687"
   sodipodi:r1="11.892623"
   sodipodi:r2="5.9463115"
   sodipodi:arg1="0.89605538"
   sodipodi:arg2="1.5243739"
   inkscape:flatsided="false"
   inkscape:rounded="0"
   inkscape:randomized="0"
   d="m 188.82709,267.45345 -7.15332,-3.34667 -6.81224,3.99545 0.97238,-7.83739 -5.905,-5.24416 7.75429,-1.4971 3.16274,-7.23652 3.82003,6.91213 7.85969,0.77174 -5.39338,5.76903 z"
   inkscape:transform-center-x="-0.016330213"
   inkscape:transform-center-y="-1.1201024"
   transform="rotate(2.9144068,359.38033,2518.1561)" /><path
   transform="rotate(2.9144068,347.92683,2067.9151)"
   inkscape:transform-center-y="-1.1201024"
   inkscape:transform-center-x="-0.016330213"
   d="m 188.82709,267.45345 -7.15332,-3.34667 -6.81224,3.99545 0.97238,-7.83739 -5.905,-5.24416 7.75429,-1.4971 3.16274,-7.23652 3.82003,6.91213 7.85969,0.77174 -5.39338,5.76903 z"
   inkscape:randomized="0"
   inkscape:rounded="0"
   inkscape:flatsided="false"
   sodipodi:arg2="1.5243739"
   sodipodi:arg1="0.89605538"
   sodipodi:r2="5.9463115"
   sodipodi:r1="11.892623"
   sodipodi:cy="258.16687"
   sodipodi:cx="181.39783"
   sodipodi:sides="5"
   id="path5460"
   style="opacity:1;fill:#216778;fill-opacity:1;fill-rule:evenodd;stroke:none;stroke-width:1.51181102;stroke-miterlimit:4;stroke-dasharray:none;stroke-opacity:0.94117647"
   sodipodi:type="star" /><path
   sodipodi:type="star"
   style="opacity:1;fill:#216778;fill-opacity:1;fill-rule:evenodd;stroke:none;stroke-width:1.51181102;stroke-miterlimit:4;stroke-dasharray:none;stroke-opacity:0.94117647"
   id="path5462"
   sodipodi:sides="5"
   sodipodi:cx="181.39783"
   sodipodi:cy="258.16687"
   sodipodi:r1="11.892623"
   sodipodi:r2="5.9463115"
   sodipodi:arg1="0.89605538"
   sodipodi:arg2="1.5243739"
   inkscape:flatsided="false"
   inkscape:rounded="0"
   inkscape:randomized="0"
   d="m 188.82709,267.45345 -7.15332,-3.34667 -6.81224,3.99545 0.97238,-7.83739 -5.905,-5.24416 7.75429,-1.4971 3.16274,-7.23652 3.82003,6.91213 7.85969,0.77174 -5.39338,5.76903 z"
   inkscape:transform-center-x="-0.016330213"
   inkscape:transform-center-y="-1.1201024"
   transform="rotate(2.9144068,334.92563,1556.8308)" /><path
   transform="rotate(2.9144068,322.54353,1070.0839)"
   inkscape:transform-center-y="-1.1201024"
   inkscape:transform-center-x="-0.016330213"
   d="m 188.82709,267.45345 -7.15332,-3.34667 -6.81224,3.99545 0.97238,-7.83739 -5.905,-5.24416 7.75429,-1.4971 3.16274,-7.23652 3.82003,6.91213 7.85969,0.77174 -5.39338,5.76903 z"
   inkscape:randomized="0"
   inkscape:rounded="0"
   inkscape:flatsided="false"
   sodipodi:arg2="1.5243739"
   sodipodi:arg1="0.89605538"
   sodipodi:r2="5.9463115"
   sodipodi:r1="11.892623"
   sodipodi:cy="258.16687"
   sodipodi:cx="181.39783"
   sodipodi:sides="5"
   id="path5464"
   style="opacity:1;fill:#216778;fill-opacity:1;fill-rule:evenodd;stroke:none;stroke-width:1.51181102;stroke-miterlimit:4;stroke-dasharray:none;stroke-opacity:0.94117647"
   sodipodi:type="star" /><rect
   style="fill:#1c1f24;fill-rule:evenodd"
   id="rect5466"
   width="142.3942"
   height="3.095526"
   x="187.38147"
   y="267.51822" /><rect
   style="fill:#ffffff;fill-rule:evenodd;stroke-width:0.87013102"
   id="rect5468"
   width="7.7199836"
   height="14.4928"
   x="206.28302"
   y="261.69287" /><rect
   y="261.69287"
   x="303.48254"
   height="14.4928"
   width="7.7199836"
   id="rect5470"
   style="fill:#ffffff;fill-rule:evenodd;stroke-width:0.87013102" /><rect
   style="fill:#ffffff;fill-rule:evenodd;stroke-width:0.87013102"
   id="rect5472"
   width="7.7199836"
   height="14.4928"
   x="280.57568"
   y="261.69287" /><rect
   y="261.69287"
   x="256.43057"
   height="14.4928"
   width="7.7199836"
   id="rect5474"
   style="fill:#ffffff;fill-rule:evenodd;stroke-width:0.87013102" /><rect
   style="fill:#ffffff;fill-rule:evenodd;stroke-width:0.87013102"
   id="rect5476"
   width="7.7199836"
   height="14.4928"
   x="230.42812"
   y="261.69287" /></svg>