<?xml version="1.0" encoding="UTF-8" standalone="no"?>
<svg
   xmlns:dc="http://purl.org/dc/elements/1.1/"
   xmlns:cc="http://creativecommons.org/ns#"
   xmlns:rdf="http://www.w3.org/1999/02/22-rdf-syntax-ns#"
   xmlns:svg="http://www.w3.org/2000/svg"
   xmlns="http://www.w3.org/2000/svg"
   xmlns:sodipodi="http://sodipodi.sourceforge.net/DTD/sodipodi-0.dtd"
   xmlns:inkscape="http://www.inkscape.org/namespaces/inkscape"
   inkscape:export-ydpi="355.06918"
   inkscape:export-xdpi="355.06918"
   inkscape:export-filename="D:\dojo\seknox\trasa\website\static\arch\zero-trust-service-access.png"
   sodipodi:docname="zero-trust--policy.svg"
   inkscape:version="0.92.3 (2405546, 2018-03-11)"
   id="svg8"
   version="1.1"
   viewBox="0 0 330 200">
  <defs
     id="defs2">
    <linearGradient
       id="mx-gradient-00ffff-1-00cccc-1-s-0"
       y2="0"
       x2="0"
       y1="78"
       x1="0"
       gradientUnits="userSpaceOnUse">
      <stop
         id="stop956"
         style="stop-color:#00CCCC"
         offset="0%" />
      <stop
         id="stop958"
         style="stop-color:#00FFFF"
         offset="100%" />
    </linearGradient>
    <clipPath
       clipPathUnits="userSpaceOnUse"
       id="clipPath8890">
      <rect
         style="fill:#003380;fill-opacity:1;stroke:none;stroke-width:0.310707;stroke-opacity:1"
         id="rect8892"
         width="11.983192"
         height="17.921396"
         x="4.5810928"
         y="277.67249" />
    </clipPath>
    <clipPath
       id="clipPath888"
       clipPathUnits="userSpaceOnUse">
      <rect
         y="276.87997"
         x="-7.3598509"
         height="7.4154449"
         width="4.707953"
         id="rect890"
         style="fill:#00ccff;fill-opacity:1;stroke:none;stroke-width:0.807831" />
    </clipPath>
    <clipPath
       clipPathUnits="userSpaceOnUse"
       id="clipPath9527">
      <rect
         style="fill:#2875e2;fill-opacity:1;stroke:#2875e2;stroke-width:2.92088;stroke-linejoin:round;stroke-miterlimit:4;stroke-dasharray:none;stroke-opacity:1"
         id="rect9529"
         width="25.372587"
         height="28.334087"
         x="11.939548"
         y="10.409398" />
    </clipPath>
    <clipPath
       clipPathUnits="userSpaceOnUse"
       id="clipPath9955">
      <rect
         style="fill:#550000;fill-opacity:1;stroke:none;stroke-width:4.85555;stroke-linejoin:round;stroke-miterlimit:4;stroke-dasharray:none;stroke-opacity:1"
         id="rect9957"
         width="32.767757"
         height="30.49077"
         x="8.4394293"
         y="9.0527878" />
    </clipPath>
    <clipPath
       clipPathUnits="userSpaceOnUse"
       id="clipPath1673">
      <rect
         style="opacity:1;fill:#374548;fill-opacity:1;stroke:none;stroke-width:0.69999999;stroke-linejoin:round;stroke-miterlimit:4;stroke-dasharray:5.59999993, 5.59999993;stroke-dashoffset:0.26456693;stroke-opacity:1"
         id="rect1675"
         width="48.758926"
         height="48.758926"
         x="-48.002975"
         y="-67.229164" />
    </clipPath>
  </defs>
  <sodipodi:namedview
     inkscape:guide-bbox="true"
     showguides="true"
     inkscape:snap-global="false"
     inkscape:window-maximized="1"
     inkscape:window-y="-8"
     inkscape:window-x="1912"
     inkscape:window-height="1017"
     inkscape:window-width="1920"
     showgrid="false"
     inkscape:document-rotation="0"
     inkscape:current-layer="layer1"
     inkscape:document-units="mm"
     inkscape:cy="132.6176"
     inkscape:cx="219.93103"
     inkscape:zoom="1.979899"
     inkscape:pageshadow="2"
     inkscape:pageopacity="0.0"
     borderopacity="1.0"
     bordercolor="#666666"
     pagecolor="#ffffff"
     id="base"
     inkscape:showpageshadow="false">
    <sodipodi:guide
       position="201.4613,148.16666"
       orientation="0,1"
       id="guide1296"
       inkscape:locked="false" />
    <sodipodi:guide
       position="237.74701,97.517856"
       orientation="0,1"
       id="guide1298"
       inkscape:locked="false" />
  </sodipodi:namedview>
  <metadata
     id="metadata5">
    <rdf:RDF>
      <cc:Work
         rdf:about="">
        <dc:format>image/svg+xml</dc:format>
        <dc:type
           rdf:resource="http://purl.org/dc/dcmitype/StillImage" />
        <dc:title></dc:title>
      </cc:Work>
    </rdf:RDF>
  </metadata>
  <g
     id="layer1"
     inkscape:groupmode="layer"
     inkscape:label="Layer 1">
    <path
       style="fill:#d7e3f4;fill-opacity:1;stroke-width:0.26939639"
       d="m 110.89832,17.414017 h 94.94592 V 147.04785 h -94.94592 z"
       id="rect80"
       inkscape:connector-curvature="0" />
    <g
       id="g8364"
       transform="matrix(0.95258888,0,0,0.9595554,-71.212014,25.742149)"
       style="fill:#0055d4">
      <path
         style="fill:#0055d4;fill-opacity:1;stroke-width:0.24623699"
         d="M 252.16619,59.950623 A 11.301471,11.423839 0 0 1 240.86472,71.374461 11.301471,11.423839 0 0 1 229.56324,59.950623 11.301471,11.423839 0 0 1 240.86472,48.526784 11.301471,11.423839 0 0 1 252.16619,59.950623 Z"
         id="ellipse844"
         inkscape:connector-curvature="0" />
      <path
         style="fill:#0055d4;fill-opacity:1;stroke-width:1.01287997"
         d="m 256.98256,61.828284 c 0.0824,-0.638458 0.14382,-1.286889 0.14382,-1.945296 0,-0.658407 -0.0618,-1.306838 -0.14382,-1.945292 l 4.3502,-3.302013 c 0.39079,-0.299295 0.5039,-0.837973 0.24682,-1.276912 l -4.11368,-6.913274 c -0.25693,-0.428963 -0.79188,-0.608529 -1.25466,-0.428963 l -5.12148,2.005147 c -1.0593,-0.78809 -2.22137,-1.456474 -3.47607,-1.965245 l -0.77128,-5.287207 c -0.0925,-0.468869 -0.51424,-0.837973 -1.02844,-0.837973 h -8.22728 c -0.51424,0 -0.93585,0.369123 -1.01814,0.837973 l -0.77132,5.287207 c -1.25466,0.508771 -2.41677,1.167178 -3.47603,1.965245 l -5.12152,-2.005147 c -0.46277,-0.169593 -0.99754,0 -1.25466,0.428963 l -4.11364,6.913274 c -0.25692,0.428963 -0.14381,0.96766 0.24682,1.276912 l 4.3399,3.302013 c -0.0824,0.638454 -0.14382,1.286885 -0.14382,1.945292 0,0.658407 0.0618,1.306838 0.14382,1.945296 l -4.3399,3.302013 c -0.39079,0.299257 -0.50394,0.837973 -0.24682,1.276908 l 4.11364,6.913278 c 0.25693,0.428959 0.79189,0.608525 1.25466,0.428959 l 5.12152,-2.005147 c 1.05926,0.788094 2.22137,1.456478 3.47603,1.965245 l 0.77132,5.287211 c 0.0824,0.468865 0.5039,0.837973 1.01814,0.837973 h 8.22728 c 0.5142,0 0.93585,-0.369123 1.01814,-0.837973 l 0.77132,-5.287211 c 1.25466,-0.508767 2.41677,-1.167174 3.47603,-1.965245 l 5.12148,2.005147 c 0.46282,0.169593 0.99758,0 1.2547,-0.428959 l 4.11364,-6.913278 c 0.25692,-0.428963 0.14381,-0.967659 -0.24682,-1.276908 z m -15.28223,5.037814 c -3.97997,0 -7.19888,-3.122447 -7.19888,-6.98311 0,-3.860659 3.21891,-6.983106 7.19888,-6.983106 3.97997,0 7.19888,3.122447 7.19888,6.983106 0,3.860663 -3.21891,6.98311 -7.19888,6.98311 z"
         id="path8351"
         inkscape:connector-curvature="0" />
    </g>
    <path
       style="fill:#2a7fff;fill-opacity:1;stroke:none;stroke-width:0.74076456;stroke-opacity:1"
       d="M 171.35827,83.106064 A 12.843517,12.375491 0 0 1 158.51475,95.481555 12.843517,12.375491 0 0 1 145.67123,83.106064 12.843517,12.375491 0 0 1 158.51475,70.730573 12.843517,12.375491 0 0 1 171.35827,83.106064 Z"
       id="path8573"
       inkscape:connector-curvature="0" />
    <g
       id="g8571"
       transform="matrix(0.85785437,0,0,0.85334846,-40.146466,-12.17898)">
      <g
         style="fill:#2875e2;fill-opacity:1"
         transform="matrix(0.02920654,0,0,0.03204242,224.34803,65.256359)"
         id="Icon_23_">
        <g
           style="fill:#2875e2;fill-opacity:1"
           id="g8546">
          <path
             style="fill:#2875e2;fill-opacity:1"
             d="M 405.333,64 H 106.667 C 83.198,64 64,83.198 64,106.667 V 405.333 C 64,428.802 83.198,448 106.667,448 H 405.333 C 428.802,448 448,428.802 448,405.333 V 106.667 C 448,83.198 428.802,64 405.333,64 Z"
             id="path8544"
             inkscape:connector-curvature="0" />
        </g>
      </g>
      <path
         style="fill:#d5e5ff;fill-opacity:1;stroke-width:0.226928"
         d="m 234.78809,71.83871 c 0,-1.481158 -1.23783,-2.680841 -2.7661,-2.680841 -1.52826,0 -2.7661,1.199683 -2.7661,2.680841 0,2.010631 2.7661,4.914881 2.7661,4.914881 0,0 2.7661,-2.90425 2.7661,-4.914881 z m -3.68813,0 c 0,-0.493722 0.41262,-0.893611 0.92203,-0.893611 0.50943,0 0.92204,0.399889 0.92204,0.893611 0,0.493723 -0.41261,0.89362 -0.92204,0.89362 -0.50941,0 -0.92203,-0.399897 -0.92203,-0.89362 z m -2.30508,5.361682 v 0.89362 h 6.45423 v -0.89362 z"
         id="path7130"
         inkscape:connector-curvature="0" />
    </g>
    <g
       id="g9551"
       transform="matrix(0.48452451,0,0,0.44587927,15.609561,76.91593)">
      <g
         transform="matrix(1.2588402,0,0,1.2678339,-62.019744,-50.750105)"
         id="g9044">
        <path
           id="path9029"
           d="m 230.94255,129.84453 h 3.8637 c 0.53609,0 0.96592,-0.4419 0.96592,-0.98202 v -2.94603 c 0,-0.5401 -0.42983,-0.982 -0.96592,-0.982 v -0.98201 c 0,-1.08512 -0.8645,-1.96401 -1.93184,-1.96401 -1.06735,0 -1.93186,0.87889 -1.93186,1.96401 v 0.98201 c -0.53607,0 -0.96591,0.4419 -0.96591,0.982 v 2.94603 c 0,0.54012 0.42984,0.98202 0.96591,0.98202 z m 0.77275,-5.89206 c 0,-0.65303 0.51676,-1.17841 1.15911,-1.17841 0.64233,0 1.1591,0.53028 1.1591,1.17841 v 0.98201 h -2.31821 z m 5.98871,-8.83809 h -9.65922 c -1.06735,0 -1.93184,0.87891 -1.93184,1.96402 v 17.67617 c 0,1.08512 0.86449,1.96403 1.93184,1.96403 h 9.65922 c 1.06735,0 1.93184,-0.87891 1.93184,-1.96403 V 117.0784 c 0,-1.08511 -0.86449,-1.96402 -1.93184,-1.96402 z m 0,17.67618 h -9.65922 v -13.74813 h 9.65922 z"
           style="fill:#2875e2;fill-opacity:1;stroke-width:0.48696601"
           inkscape:connector-curvature="0" />
        <path
           style="fill:#ffffff;fill-opacity:1;stroke:none;stroke-width:1.71368003;stroke-opacity:1"
           d="m 229.07185,120.33678 h 7.86936 v 10.16584 h -7.86936 z"
           id="rect9040"
           inkscape:connector-curvature="0" />
      </g>
      <path
         transform="matrix(1.8178375,0,0,1.5103356,240.29048,-315.07231)"
         style="opacity:1;fill:#5792e7;fill-opacity:1;fill-rule:evenodd;stroke:none;stroke-width:0.285999;stroke-miterlimit:4;stroke-dasharray:none;stroke-dashoffset:0;stroke-opacity:1;paint-order:stroke fill markers"
         d="m -9.3488309,281.47306 0.00844,-6.3727 4.2345514,-0.008 4.23455167,-0.008 v 6.38118 6.38119 H -5.1142792 -9.357269 Z m 3.9716294,2.60851 c 0.025218,-0.0307 0.1556941,-0.14975 0.289946,-0.26452 l 0.2440948,-0.20869 0.2570356,0.15037 c 0.1413698,0.0827 0.2753154,0.17543 0.2976573,0.20606 0.08653,0.11863 0.115017,0.13921 0.1926622,0.13921 0.093992,0 0.1843251,-0.11287 0.1843251,-0.23031 0,-0.097 -0.087642,-0.204 -0.1671688,-0.204 -0.031123,0 -0.2127175,-0.0902 -0.4035435,-0.20046 -0.1908265,-0.11025 -0.3627427,-0.20045 -0.3820358,-0.20045 -0.019293,0 -0.1526152,0.0977 -0.2962712,0.21716 -0.1504558,0.12509 -0.2929625,0.21715 -0.3361264,0.21715 -0.1695553,0 -0.2587633,0.25607 -0.1330156,0.38182 0.068664,0.0687 0.1946828,0.067 0.2524403,-0.003 z m -0.496094,-0.58902 c 0.042505,-0.0649 0.8250806,-0.65735 1.0461022,-0.792 0.062304,-0.0379 0.120007,-0.0143 0.534539,0.21866 0.2555825,0.14366 0.4978037,0.29612 0.5382696,0.3388 0.040466,0.0427 0.103269,0.0776 0.1395622,0.0776 0.074212,0 0.2044724,-0.14712 0.2044724,-0.23093 0,-0.10126 -0.099432,-0.20338 -0.1980192,-0.20338 -0.05648,0 -0.2990093,-0.11595 -0.6075728,-0.29048 -0.2824628,-0.15976 -0.5383813,-0.2886 -0.5687073,-0.28632 -0.030327,0.002 -0.3037353,0.18562 -0.6075749,0.40741 -0.30384,0.22178 -0.5802278,0.40325 -0.614195,0.40325 -0.033967,0 -0.095172,0.0234 -0.1360098,0.052 -0.08924,0.0625 -0.1016024,0.24996 -0.021751,0.32981 0.079181,0.0792 0.2313792,0.0664 0.2908853,-0.0244 z m -0.5168971,-0.65524 c 0.049495,-0.0536 0.4544671,-0.33174 0.8999381,-0.61818 l 0.809948,-0.52081 0.6099215,0.37405 c 0.335457,0.20572 0.6430301,0.40873 0.683496,0.45114 0.09046,0.0948 0.1890482,0.0985 0.2772169,0.0103 0.1301975,-0.1302 0.045407,-0.3675 -0.1313119,-0.3675 -0.061553,0 -0.3209994,-0.1387 -0.7498908,-0.4009 -0.3606768,-0.2205 -0.6727894,-0.4009 -0.693583,-0.4009 -0.020794,0 -0.4347837,0.25557 -0.9199779,0.56794 -0.5168839,0.33278 -0.9154205,0.56795 -0.9624695,0.56795 -0.090096,0 -0.184314,0.11159 -0.184314,0.21829 0,0.091 0.1178454,0.21602 0.2036368,0.21602 0.037069,0 0.107895,-0.0438 0.1573898,-0.0974 z m -0.3317941,-0.66684 c 0.034453,-0.0344 0.068279,-0.0781 0.07517,-0.097 0.00689,-0.0189 0.3780816,-0.2631 0.8248692,-0.54262 l 0.8123412,-0.50822 0.7578672,-0.80099 c 0.5417233,-0.57254 0.7605816,-0.82631 0.7673843,-0.88978 0.013819,-0.12894 -0.6019644,-1.00783 -0.7054393,-1.00685 -0.039863,3.7e-4 -0.2859084,0.11746 -0.5467688,0.26017 -0.4415912,0.24158 -0.5138068,0.29585 -1.0474283,0.78718 -0.5015769,0.46182 -0.6109935,0.54614 -0.8763359,0.67528 -0.2144919,0.1044 -0.3451053,0.14757 -0.4464349,0.14757 -0.1606855,0 -0.2124046,0.0562 -0.2124046,0.2309 0,0.072 0.024762,0.11787 0.08489,0.15727 0.085804,0.0562 0.1147435,0.051 0.2826052,-0.0505 0.027562,-0.0167 0.2091819,-0.10783 0.4035994,-0.20257 0.3269493,-0.15933 0.3958018,-0.21157 0.917155,-0.69579 0.5151578,-0.47847 0.5995356,-0.54283 0.9804099,-0.74777 l 0.4167407,-0.22424 0.211256,0.30511 c 0.116191,0.16781 0.211256,0.31735 0.211256,0.3323 0,0.0149 -0.3047875,0.35003 -0.6773058,0.74463 l -0.6773058,0.71745 -0.8289718,0.51842 c -0.4559345,0.28513 -0.8558999,0.51842 -0.8888119,0.51842 -0.1408017,0 -0.203445,0.21351 -0.1008938,0.34388 0.08323,0.10581 0.1748382,0.11551 0.2625569,0.0278 z m 3.7711138,-0.51058 c 0.056663,-0.11881 0.00488,-0.25171 -0.1163674,-0.29863 -0.3263344,-0.12629 -0.5173168,-0.25306 -0.6255591,-0.41523 -0.083143,-0.12456 -0.1074854,-0.19182 -0.094333,-0.26062 0.020256,-0.10596 -0.094553,-0.25637 -0.1956882,-0.25637 -0.077063,0 -0.19593,0.12769 -0.19593,0.21047 0,0.0917 0.3171637,0.60457 0.4354666,0.70412 0.054756,0.0461 0.1728549,0.12366 0.2624433,0.17242 0.089589,0.0488 0.1797722,0.12571 0.2004079,0.171 0.031671,0.0695 0.056982,0.0807 0.1623679,0.072 0.096903,-0.008 0.1343261,-0.0302 0.1671915,-0.0992 z m -4.0011878,-0.27835 c 0.030242,-0.0274 0.2118323,-0.12638 0.4035348,-0.22002 0.8541895,-0.41725 1.5150092,-0.92269 2.0028278,-1.53189 0.1261192,-0.15751 0.2598648,-0.31218 0.2972123,-0.34372 0.098043,-0.0828 0.1211299,-0.2109 0.055944,-0.31039 -0.098187,-0.14985 -0.353704,-0.0759 -0.353704,0.10234 0,0.19779 -0.7380433,0.9548 -1.2974558,1.33079 -0.4499136,0.3024 -1.0178052,0.58834 -1.1684743,0.58834 -0.1460704,0 -0.2401737,0.0806 -0.2401737,0.20563 0,0.10497 0.1024993,0.22868 0.1894692,0.22868 0.030709,0 0.080578,-0.0224 0.1108197,-0.0498 z m 4.1946983,-0.49996 c 0.045102,-0.0451 0.082003,-0.11109 0.082003,-0.14664 0,-0.0894 -0.1084773,-0.21498 -0.1908773,-0.22106 -0.1714875,-0.0126 -0.4209385,-0.32135 -0.4317468,-0.53433 -0.0051,-0.10051 -0.112953,-0.21868 -0.1995897,-0.21868 -0.1518447,0 -0.2359517,0.27689 -0.118845,0.39125 0.03366,0.0329 0.1161952,0.15169 0.1834099,0.26403 0.067214,0.11235 0.1748764,0.24014 0.2392484,0.28398 0.064372,0.0438 0.1171425,0.091 0.1172681,0.10476 4.234e-4,0.0454 0.1328344,0.15869 0.1854944,0.15869 0.028397,0 0.088533,-0.0369 0.133635,-0.082 z m -0.051631,-0.98708 c 0.085093,-0.0851 0.085466,-0.23574 9.79e-4,-0.39428 -0.036213,-0.0679 -0.127953,-0.34154 -0.2038673,-0.60798 -0.1029359,-0.36127 -0.1882711,-0.57785 -0.3356644,-0.85192 l -0.1976385,-0.36749 -0.5749073,-0.33264 c -0.316199,-0.18294 -0.6128477,-0.33658 -0.6592196,-0.34141 -0.046372,-0.005 -0.3041412,0.0697 -0.57282,0.16559 l -0.4885077,0.17437 -0.6096124,0.64312 c -0.4059089,0.42821 -0.6325195,0.64311 -0.678166,0.64311 -0.1007438,0 -0.1907455,0.097 -0.1907455,0.20563 0,0.10645 0.1028618,0.22869 0.1924413,0.22869 0.032343,0 0.2691275,-0.21984 0.5261869,-0.48852 1.0480362,-1.09545 0.8839792,-0.95822 1.3298162,-1.11231 0.217093,-0.075 0.4192344,-0.13643 0.4492032,-0.13643 0.029969,0 0.2838969,0.13155 0.5642837,0.29233 l 0.5097947,0.29233 0.1646632,0.30067 c 0.1096568,0.20024 0.2112129,0.45864 0.3040131,0.77353 0.1453269,0.49312 0.1511795,0.52843 0.116482,0.70283 -0.017195,0.0864 -0.00503,0.12277 0.064295,0.1921 0.1027361,0.10273 0.1987364,0.10894 0.2889935,0.0187 z m -4.15892,-0.13438 c 0.01161,-0.0188 0.1139767,-0.0808 0.2274803,-0.13774 0.1429539,-0.0718 0.3193005,-0.21393 0.5738662,-0.46267 0.4411117,-0.43101 1.3804228,-1.11971 1.5356646,-1.12594 0.2949369,-0.0119 0.2764081,-0.51128 -0.018968,-0.51128 -0.089821,0 -0.2291445,0.12838 -0.2314919,0.21331 -5.557e-4,0.0205 -0.2448674,0.21387 -0.5428912,0.42973 -0.298024,0.21586 -0.6997176,0.54338 -0.8926528,0.72781 -0.4137705,0.39554 -0.5850919,0.5083 -0.7286569,0.47958 -0.1903159,-0.0381 -0.3188118,0.2123 -0.1849043,0.36026 0.059441,0.0657 0.2279258,0.083 0.2625539,0.0269 z"
         id="path864-9"
         inkscape:connector-curvature="0"
         clip-path="url(#clipPath888)" />
    </g>
    <path
       style="fill:none;stroke:none;stroke-width:3.09574103;stroke-linejoin:round;stroke-dasharray:12.38296416, 3.09574104"
       d="M 8.3272901,1.8765309 H 319.78763 V 192.10706 H 8.3272901 Z"
       id="rect946"
       inkscape:connector-curvature="0" />
    <g
       id="g9258"
       transform="matrix(0.97808787,0,0,0.97570596,16.297714,-27.392007)">
      <path
         style="fill:#2875e2;fill-opacity:1;stroke:#2875e2;stroke-width:2.12548995;stroke-linejoin:round;stroke-miterlimit:4;stroke-dasharray:none;stroke-opacity:1"
         d="m 173.18745,61.216228 h 7.49198 v 8.482013 h -7.49198 z"
         id="rect9250"
         inkscape:connector-curvature="0" />
      <g
         style="fill:#f9f9f9"
         transform="matrix(-0.01576436,0,0,0.01532883,180.99717,61.611612)"
         id="Icon_1_">
        <g
           style="fill:#f9f9f9"
           id="g9235">
          <g
             style="fill:#f9f9f9"
             id="g9231">
            <path
               style="fill:#f9f9f9;fill-opacity:0.9"
               d="M 256,43 C 137.789,43 43,138.851 43,256 43,373.149 137.789,469 256,469 374.211,469 469,373.149 469,256 469,138.851 373.149,43 256,43 Z m 0,383.4 C 162.282,426.4 85.6,349.717 85.6,256 85.6,162.283 162.282,85.6 256,85.6 c 93.718,0 170.4,76.682 170.4,170.4 0,93.718 -76.682,170.4 -170.4,170.4 z"
               id="path9229"
               inkscape:connector-curvature="0" />
          </g>
          <path
             style="fill:#f9f9f9;fill-opacity:0.9"
             d="M 234.7,277.3 346.525,344.393 362.5,317.768 266.65,261.324 V 149.5 H 234.7 Z"
             id="polygon9233"
             inkscape:connector-curvature="0" />
        </g>
      </g>
    </g>
    <g
       id="g9511"
       transform="matrix(0.39826624,0,0,0.29727125,87.977806,97.931039)">
      <path
         style="fill:#2875e2;fill-opacity:1;stroke:#2875e2;stroke-width:2.7650001;stroke-linejoin:round;stroke-miterlimit:4;stroke-dasharray:none;stroke-opacity:1"
         d="m 240.79233,82.136124 h 22.30659 v 29.882136 h -22.30659 z"
         id="rect9398"
         inkscape:connector-curvature="0" />
      <path
         style="fill:#ffffff;stroke-width:0.50399601"
         d="m 244.93837,89.508329 h 15.6332 v -2.339732 h -15.6332 c -0.9597,0 -1.737,1.047025 -1.737,2.339732 v 12.868661 h -1.73704 v 3.5096 h 12.15916 v -3.5096 h -8.68512 z m 16.50173,2.339763 h -5.21108 c -0.47767,0 -0.86851,0.526424 -0.86851,1.169852 v 11.698776 c 0,0.64343 0.39084,1.16987 0.86851,1.16987 h 5.21108 c 0.47765,0 0.86848,-0.52644 0.86848,-1.16987 V 93.017944 c 0,-0.643428 -0.39083,-1.169852 -0.86848,-1.169852 z m -0.86853,10.528898 h -3.47405 v -8.189138 h 3.47405 z"
         id="path9491"
         inkscape:connector-curvature="0" />
    </g>
    <g
       id="g9543"
       transform="matrix(0.65058058,0,0,0.63392756,-15.918441,-17.758868)">
      <path
         style="fill:#2875e2;fill-opacity:1;stroke:#2875e2;stroke-width:2.7650001;stroke-linejoin:round;stroke-miterlimit:4;stroke-dasharray:none;stroke-opacity:1"
         d="m 215.25435,79.448486 h 11.11352 v 13.746877 h -11.11352 z"
         id="rect9513"
         inkscape:connector-curvature="0" />
      <g
         id="g9535">
        <g
           transform="matrix(0.38289692,0,0,0.40388074,211.52847,76.517921)"
           id="g9523"
           clip-path="url(#clipPath9527)">
          <path
             d="M 24.82,0.03 C 24.38,0.05 23.94,0.16 23.56,0.36 L 6.37,8.55 C 5.47,8.99 4.81,9.81 4.59,10.77 L 0.34,29.22 c -0.19,0.85 -0.03,1.76 0.44,2.5 0.08,0.08 0.14,0.16 0.19,0.27 l 11.9,14.78 C 13.5,47.53 14.46,48 15.45,48 h 19.08 c 0.98,0 1.94,-0.47 2.57,-1.23 L 49,31.96 c 0.6,-0.76 0.85,-1.78 0.63,-2.74 L 45.38,10.77 C 45.16,9.81 44.5,8.99 43.6,8.55 L 26.41,0.36 C 25.92,0.11 25.37,0 24.82,0.03 Z"
             pointer-events="all"
             id="path9517"
             style="fill:#ffffff;stroke:none"
             inkscape:connector-curvature="0" />
          <path
             d="m 24.83,1.47 c -0.41,0.02 -0.82,0.12 -1.18,0.3 L 7.49,9.48 C 6.64,9.89 6.02,10.66 5.82,11.57 l -4,17.34 c -0.18,0.8 -0.02,1.65 0.41,2.34 0.08,0.08 0.13,0.16 0.18,0.26 L 13.6,45.4 c 0.59,0.72 1.49,1.16 2.42,1.16 h 17.93 c 0.93,0 1.83,-0.44 2.43,-1.16 L 47.56,31.49 c 0.57,-0.73 0.8,-1.68 0.59,-2.58 L 44.16,11.57 C 43.95,10.66 43.33,9.89 42.48,9.48 L 26.33,1.77 C 25.86,1.54 25.35,1.44 24.83,1.47 Z"
             pointer-events="all"
             id="path9519"
             style="fill:#2875e2;stroke:none"
             inkscape:connector-curvature="0" />
          <path
             d="m 25,9.6 -11.78,5.25 v 7.84 c 0,7.26 5.02,14.05 11.78,15.71 6.76,-1.66 11.78,-8.45 11.78,-15.71 v -7.84 z m 0,5.54 c 1.52,0 2.91,0.93 3.47,2.33 0.61,1.4 0.29,3.03 -0.79,4.11 -1.11,1.08 -2.71,1.4 -4.11,0.82 -1.43,-0.59 -2.33,-1.96 -2.33,-3.47 0,-2.1 1.69,-3.79 3.76,-3.79 z m 7.05,15.59 c 0,0.09 0,0.18 -0.05,0.27 -0.09,0.11 -0.18,0.26 -0.27,0.37 -1.66,2.31 -4.02,4 -6.73,4.84 C 22.29,35.37 19.96,33.68 18.27,31.37 18.18,31.26 18.09,31.11 18,31 17.97,30.91 17.95,30.82 17.95,30.73 v -2.1 c 0,-2.88 4.69,-4.34 7.05,-4.34 2.36,0 7.05,1.46 7.05,4.34 z"
             pointer-events="all"
             id="path9521"
             style="fill:#ffffff;stroke:none"
             inkscape:connector-curvature="0" />
        </g>
      </g>
    </g>
    <g
       transform="matrix(1.0140923,0,0,0.98610353,2.1166667,0)"
       style="font-style:normal;font-variant:normal;font-weight:bold;font-stretch:normal;font-size:7.92784977px;line-height:1.25;font-family:'MS Gothic';-inkscape-font-specification:'MS Gothic Bold';letter-spacing:0px;word-spacing:0px;fill:#2875e2;fill-opacity:1;stroke-width:0.19819701"
       id="text9587" />
    <g
       id="g9966"
       transform="matrix(0.37893492,0,0,0.34404464,47.795446,71.838812)">
      <path
         style="fill:#2875e2;fill-opacity:1;stroke:#2875e2;stroke-width:2.7650001;stroke-linejoin:round;stroke-miterlimit:4;stroke-dasharray:none;stroke-opacity:1"
         d="m 281.38947,109.30381 h 24.45894 v 27.50067 h -24.45894 z"
         id="rect9959"
         inkscape:connector-curvature="0" />
      <g
         clip-path="url(#clipPath9955)"
         transform="matrix(0.59428998,0,0,0.63808489,278.39453,107.52292)"
         id="g9939">
        <path
           d="M 24.82,0.03 C 24.38,0.05 23.94,0.16 23.56,0.36 L 6.37,8.55 C 5.47,8.99 4.81,9.81 4.59,10.77 L 0.34,29.22 c -0.19,0.85 -0.03,1.76 0.44,2.5 0.08,0.08 0.14,0.16 0.19,0.27 l 11.9,14.78 C 13.5,47.53 14.46,48 15.45,48 h 19.08 c 0.98,0 1.94,-0.47 2.57,-1.23 L 49,31.96 c 0.6,-0.76 0.85,-1.78 0.63,-2.74 L 45.38,10.77 C 45.16,9.81 44.5,8.99 43.6,8.55 L 26.41,0.36 C 25.92,0.11 25.37,0 24.82,0.03 Z"
           pointer-events="all"
           id="path9933"
           style="fill:#ffffff;stroke:none"
           inkscape:connector-curvature="0" />
        <path
           d="m 24.83,1.47 c -0.41,0.02 -0.82,0.12 -1.18,0.3 L 7.49,9.48 C 6.64,9.89 6.02,10.66 5.82,11.57 l -4,17.34 c -0.18,0.8 -0.02,1.65 0.41,2.34 0.08,0.08 0.13,0.16 0.18,0.26 L 13.6,45.4 c 0.59,0.72 1.49,1.16 2.42,1.16 h 17.93 c 0.93,0 1.83,-0.44 2.43,-1.16 L 47.56,31.49 c 0.57,-0.73 0.8,-1.68 0.59,-2.58 L 44.16,11.57 C 43.95,10.66 43.33,9.89 42.48,9.48 L 26.33,1.77 C 25.86,1.54 25.35,1.44 24.83,1.47 Z"
           pointer-events="all"
           id="path9935"
           style="fill:#2875e2;stroke:none"
           inkscape:connector-curvature="0" />
        <path
           d="m 10,34 v 2.84 h 5.25 V 34 Z m 9.03,0 v 2.84 H 40 V 34 Z m -1.4,-7.63 v 2.88 h 5.21 v -2.88 z m 9.02,0 v 2.88 H 40 v -2.88 z m -9.02,-7.59 v 2.85 h 5.21 v -2.85 z m 9.02,0 v 2.85 H 40 V 18.78 Z M 10,11.16 V 14 h 5.25 v -2.84 z m 9.03,0 V 14 H 40 v -2.84 z"
           pointer-events="all"
           id="path9937"
           style="fill:#ffffff;stroke:none"
           inkscape:connector-curvature="0" />
      </g>
    </g>
    <text
       xml:space="preserve"
       style="font-style:normal;font-weight:normal;font-size:10.58333302px;line-height:1.25;font-family:sans-serif;letter-spacing:0px;word-spacing:0px;fill:#000000;fill-opacity:1;stroke:none;stroke-width:0.26458332"
       x="167.82373"
       y="164.18587"
       id="text462"><tspan
         sodipodi:role="line"
         id="tspan460"
         x="167.82373"
         y="173.84137"
         style="stroke-width:0.26458332" /></text>
    <text
       xml:space="preserve"
       style="font-style:normal;font-variant:normal;font-weight:normal;font-stretch:normal;font-size:10.58333302px;line-height:1.25;font-family:'MS Gothic';-inkscape-font-specification:'MS Gothic';letter-spacing:0px;word-spacing:0px;fill:#000000;fill-opacity:1;stroke:none;stroke-width:0.26458332"
       x="114.36986"
       y="157.23688"
       id="text466"><tspan
         sodipodi:role="line"
         id="tspan464"
         x="114.36986"
         y="167.65485"
         style="font-style:normal;font-variant:normal;font-weight:normal;font-stretch:normal;font-family:'MS Gothic';-inkscape-font-specification:'MS Gothic';stroke-width:0.26458332" /></text>
    <g
       aria-label="Identity and context aware  access proxy"
       style="font-style:normal;font-weight:normal;font-size:10.58333302px;line-height:1.25;font-family:sans-serif;letter-spacing:0px;word-spacing:0px;fill:#0055d4;fill-opacity:1;stroke:none;stroke-width:0.26458332"
       id="text1059"
       transform="translate(20.116667)">
      <path
         d="m 93.908649,154.8899 v 5.1562 q 0,0.14393 -0.143934,0.14393 h -0.5334 q -0.143933,0 -0.143933,-0.14393 v -5.1562 q 0,-0.14393 0.143933,-0.14393 h 0.5334 q 0.143934,0 0.143934,0.14393 z"
         style="font-style:normal;font-variant:normal;font-weight:600;font-stretch:normal;font-size:8.46666622px;font-family:Rajdhani;-inkscape-font-specification:'Rajdhani Semi-Bold';text-align:center;text-anchor:middle;fill:#0055d4;fill-opacity:1;stroke-width:0.26458332"
         id="path1427"
         inkscape:connector-curvature="0" />
      <path
         d="m 96.718788,160.19003 h -0.4318 q -0.6096,0 -0.9398,-0.33866 -0.321733,-0.34714 -0.321733,-0.97367 v -1.69333 q 0,-0.635 0.321733,-0.97367 0.3302,-0.33867 0.9398,-0.33867 h 0.4318 q 0.651933,0 0.846667,0.44874 h 0.03387 v -1.93887 q 0,-0.14393 0.143934,-0.14393 h 0.541866 q 0.143934,0 0.143934,0.14393 v 5.6642 q 0,0.14393 -0.143934,0.14393 h -0.541866 q -0.143934,0 -0.143934,-0.14393 v -0.3048 h -0.03387 q -0.194734,0.44873 -0.846667,0.44873 z m 0.880533,-1.43933 v -1.43933 q 0,-0.71967 -0.694266,-0.71967 h -0.448734 q -0.6096,0 -0.6096,0.62653 v 1.6256 q 0,0.62654 0.6096,0.62654 h 0.448734 q 0.694266,0 0.694266,-0.71967 z"
         style="font-style:normal;font-variant:normal;font-weight:600;font-stretch:normal;font-size:8.46666622px;font-family:Rajdhani;-inkscape-font-specification:'Rajdhani Semi-Bold';text-align:center;text-anchor:middle;fill:#0055d4;fill-opacity:1;stroke-width:0.26458332"
         id="path1429"
         inkscape:connector-curvature="0" />
      <path
         d="m 102.54875,160.19003 h -1.8288 q -0.62653,0 -0.973668,-0.34713 -0.338666,-0.34713 -0.338666,-0.9652 v -1.69333 q 0,-0.62654 0.338666,-0.9652 0.347138,-0.34714 0.973668,-0.34714 h 0.69427 q 0.62653,0 0.97366,0.34714 0.34714,0.33866 0.34714,0.9652 v 1.07526 q 0,0.1524 -0.1524,0.1524 h -2.26907 q -0.0931,0 -0.0931,0.0847 v 0.36407 q 0,0.61806 0.61806,0.61806 h 1.71027 q 0.1524,0 0.1524,0.1524 v 0.42334 q 0,0.13546 -0.1524,0.13546 z m -2.2352,-2.35373 h 1.51553 q 0.0847,0 0.0847,-0.0847 v -0.54186 q 0,-0.32174 -0.14393,-0.46567 -0.14394,-0.1524 -0.46567,-0.1524 h -0.46567 q -0.32173,0 -0.46566,0.1524 -0.14394,0.14393 -0.14394,0.46567 v 0.54186 q 0,0.0847 0.0847,0.0847 z"
         style="font-style:normal;font-variant:normal;font-weight:600;font-stretch:normal;font-size:8.46666622px;font-family:Rajdhani;-inkscape-font-specification:'Rajdhani Semi-Bold';text-align:center;text-anchor:middle;fill:#0055d4;fill-opacity:1;stroke-width:0.26458332"
         id="path1431"
         inkscape:connector-curvature="0" />
      <path
         d="m 104.3368,160.19003 h -0.5334 q -0.14393,0 -0.14393,-0.14393 v -4.03013 q 0,-0.14394 0.14393,-0.14394 h 0.5334 q 0.14394,0 0.14394,0.14394 v 0.3048 h 0.0339 q 0.2032,-0.44874 0.85514,-0.44874 h 0.37253 q 0.61807,0 0.94827,0.33867 0.3302,0.33867 0.3302,0.97367 v 2.86173 q 0,0.14393 -0.1524,0.14393 h -0.5334 q -0.14394,0 -0.14394,-0.14393 v -2.82787 q 0,-0.62653 -0.61806,-0.62653 H 105.175 q -0.69426,0 -0.69426,0.71967 v 2.73473 q 0,0.14393 -0.14394,0.14393 z"
         style="font-style:normal;font-variant:normal;font-weight:600;font-stretch:normal;font-size:8.46666622px;font-family:Rajdhani;-inkscape-font-specification:'Rajdhani Semi-Bold';text-align:center;text-anchor:middle;fill:#0055d4;fill-opacity:1;stroke-width:0.26458332"
         id="path1433"
         inkscape:connector-curvature="0" />
      <path
         d="m 108.16863,156.5917 h -0.4064 q -0.0847,0 -0.11853,-0.0254 -0.0254,-0.0339 -0.0254,-0.11007 v -0.44026 q 0,-0.14394 0.14393,-0.14394 h 0.4064 q 0.0847,0 0.0847,-0.0847 v -0.762 q 0,-0.14394 0.1524,-0.14394 h 0.5334 q 0.14393,0 0.14393,0.14394 v 0.762 q 0,0.0847 0.0931,0.0847 h 0.7874 q 0.1524,0 0.1524,0.14394 v 0.44026 q 0,0.13547 -0.1524,0.13547 h -0.7874 q -0.0931,0 -0.0931,0.0847 v 2.17593 q 0,0.61807 0.635,0.61807 h 0.3302 q 0.1524,0 0.1524,0.14393 v 0.44027 q 0,0.13546 -0.1524,0.13546 h -0.4572 q -0.62653,0 -0.98213,-0.33866 -0.3556,-0.33867 -0.3556,-0.95674 v -2.21826 q 0,-0.0847 -0.0847,-0.0847 z"
         style="font-style:normal;font-variant:normal;font-weight:600;font-stretch:normal;font-size:8.46666622px;font-family:Rajdhani;-inkscape-font-specification:'Rajdhani Semi-Bold';text-align:center;text-anchor:middle;fill:#0055d4;fill-opacity:1;stroke-width:0.26458332"
         id="path1435"
         inkscape:connector-curvature="0" />
      <path
         d="m 111.06053,155.15237 v -0.77047 q 0,-0.13547 0.13546,-0.13547 h 0.55034 q 0.13546,0 0.13546,0.13547 v 0.77047 q 0,0.14393 -0.13546,0.14393 h -0.55034 q -0.13546,0 -0.13546,-0.14393 z m 0,4.89373 v -4.03013 q 0,-0.14394 0.13546,-0.14394 h 0.54187 q 0.14393,0 0.14393,0.14394 v 4.03013 q 0,0.0847 -0.0339,0.11853 -0.0254,0.0254 -0.1016,0.0254 h -0.54187 q -0.14393,0 -0.14393,-0.14393 z"
         style="font-style:normal;font-variant:normal;font-weight:600;font-stretch:normal;font-size:8.46666622px;font-family:Rajdhani;-inkscape-font-specification:'Rajdhani Semi-Bold';text-align:center;text-anchor:middle;fill:#0055d4;fill-opacity:1;stroke-width:0.26458332"
         id="path1437"
         inkscape:connector-curvature="0" />
      <path
         d="m 113.11303,156.5917 h -0.4064 q -0.0847,0 -0.11853,-0.0254 -0.0254,-0.0339 -0.0254,-0.11007 v -0.44026 q 0,-0.14394 0.14393,-0.14394 h 0.4064 q 0.0847,0 0.0847,-0.0847 v -0.762 q 0,-0.14394 0.1524,-0.14394 h 0.5334 q 0.14393,0 0.14393,0.14394 v 0.762 q 0,0.0847 0.0931,0.0847 h 0.7874 q 0.1524,0 0.1524,0.14394 v 0.44026 q 0,0.13547 -0.1524,0.13547 h -0.7874 q -0.0931,0 -0.0931,0.0847 v 2.17593 q 0,0.61807 0.635,0.61807 h 0.3302 q 0.1524,0 0.1524,0.14393 v 0.44027 q 0,0.13546 -0.1524,0.13546 h -0.4572 q -0.62653,0 -0.98213,-0.33866 -0.3556,-0.33867 -0.3556,-0.95674 v -2.21826 q 0,-0.0847 -0.0847,-0.0847 z"
         style="font-style:normal;font-variant:normal;font-weight:600;font-stretch:normal;font-size:8.46666622px;font-family:Rajdhani;-inkscape-font-specification:'Rajdhani Semi-Bold';text-align:center;text-anchor:middle;fill:#0055d4;fill-opacity:1;stroke-width:0.26458332"
         id="path1439"
         inkscape:connector-curvature="0" />
      <path
         d="m 116.47059,161.56163 h -0.44873 q -0.14393,0 -0.14393,-0.14393 v -0.4318 q 0,-0.1524 0.14393,-0.1524 h 0.19473 q 0.51647,0 0.7112,-0.2032 0.2032,-0.2032 0.33867,-0.66887 h -0.33867 q -0.127,0 -0.1778,-0.14393 l -1.12606,-3.80153 q -0.0339,-0.14394 0.11006,-0.14394 h 0.56727 q 0.13547,0 0.16933,0.14394 l 0.92287,3.31893 h 0.0339 l 0.92286,-3.31893 q 0.0254,-0.14394 0.16934,-0.14394 h 0.54186 q 0.16087,0 0.13547,0.1524 l -1.15993,4.07247 q -0.19474,0.7112 -0.55034,1.08373 -0.3556,0.381 -1.016,0.381 z"
         style="font-style:normal;font-variant:normal;font-weight:600;font-stretch:normal;font-size:8.46666622px;font-family:Rajdhani;-inkscape-font-specification:'Rajdhani Semi-Bold';text-align:center;text-anchor:middle;fill:#0055d4;fill-opacity:1;stroke-width:0.26458332"
         id="path1441"
         inkscape:connector-curvature="0" />
      <path
         d="m 123.49012,160.19003 h -0.3302 q -0.62653,0 -0.97367,-0.34713 -0.33866,-0.34713 -0.33866,-0.9652 v -1.69333 q 0,-0.62654 0.33866,-0.9652 0.34714,-0.34714 0.97367,-0.34714 h 1.89653 q 0.1524,0 0.1524,0.14394 v 4.03013 q 0,0.14393 -0.1524,0.14393 h -0.5334 q -0.14393,0 -0.14393,-0.14393 v -0.3048 h -0.0339 q -0.2032,0.44873 -0.85513,0.44873 z m 0.889,-1.43933 v -2.07433 q 0,-0.0847 -0.0931,-0.0847 h -1.00754 q -0.6096,0 -0.6096,0.62653 v 1.6256 q 0,0.62654 0.6096,0.62654 h 0.4064 q 0.69427,0 0.69427,-0.71967 z"
         style="font-style:normal;font-variant:normal;font-weight:600;font-stretch:normal;font-size:8.46666622px;font-family:Rajdhani;-inkscape-font-specification:'Rajdhani Semi-Bold';text-align:center;text-anchor:middle;fill:#0055d4;fill-opacity:1;stroke-width:0.26458332"
         id="path1443"
         inkscape:connector-curvature="0" />
      <path
         d="m 126.94214,160.19003 h -0.5334 q -0.14393,0 -0.14393,-0.14393 v -4.03013 q 0,-0.14394 0.14393,-0.14394 h 0.5334 q 0.14393,0 0.14393,0.14394 v 0.3048 h 0.0339 q 0.2032,-0.44874 0.85513,-0.44874 h 0.37254 q 0.61806,0 0.94826,0.33867 0.3302,0.33867 0.3302,0.97367 v 2.86173 q 0,0.14393 -0.1524,0.14393 h -0.5334 q -0.14393,0 -0.14393,-0.14393 v -2.82787 q 0,-0.62653 -0.61807,-0.62653 h -0.39793 q -0.69427,0 -0.69427,0.71967 v 2.73473 q 0,0.14393 -0.14393,0.14393 z"
         style="font-style:normal;font-variant:normal;font-weight:600;font-stretch:normal;font-size:8.46666622px;font-family:Rajdhani;-inkscape-font-specification:'Rajdhani Semi-Bold';text-align:center;text-anchor:middle;fill:#0055d4;fill-opacity:1;stroke-width:0.26458332"
         id="path1445"
         inkscape:connector-curvature="0" />
      <path
         d="m 132.25563,160.19003 h -0.4318 q -0.6096,0 -0.9398,-0.33866 -0.32173,-0.34714 -0.32173,-0.97367 v -1.69333 q 0,-0.635 0.32173,-0.97367 0.3302,-0.33867 0.9398,-0.33867 h 0.4318 q 0.65194,0 0.84667,0.44874 h 0.0339 v -1.93887 q 0,-0.14393 0.14393,-0.14393 h 0.54187 q 0.14393,0 0.14393,0.14393 v 5.6642 q 0,0.14393 -0.14393,0.14393 h -0.54187 q -0.14393,0 -0.14393,-0.14393 v -0.3048 h -0.0339 q -0.19473,0.44873 -0.84667,0.44873 z m 0.88054,-1.43933 v -1.43933 q 0,-0.71967 -0.69427,-0.71967 h -0.44873 q -0.6096,0 -0.6096,0.62653 v 1.6256 q 0,0.62654 0.6096,0.62654 h 0.44873 q 0.69427,0 0.69427,-0.71967 z"
         style="font-style:normal;font-variant:normal;font-weight:600;font-stretch:normal;font-size:8.46666622px;font-family:Rajdhani;-inkscape-font-specification:'Rajdhani Semi-Bold';text-align:center;text-anchor:middle;fill:#0055d4;fill-opacity:1;stroke-width:0.26458332"
         id="path1447"
         inkscape:connector-curvature="0" />
      <path
         d="m 139.67124,159.6143 v 0.44027 q 0,0.13546 -0.1524,0.13546 h -1.2446 q -0.62653,0 -0.97366,-0.34713 -0.33867,-0.34713 -0.33867,-0.9652 v -1.69333 q 0,-0.62654 0.33867,-0.9652 0.34713,-0.34714 0.97366,-0.34714 h 1.2446 q 0.1524,0 0.1524,0.14394 v 0.44026 q 0,0.13547 -0.1524,0.13547 h -1.12606 q -0.6096,0 -0.6096,0.62653 v 1.6256 q 0,0.62654 0.6096,0.62654 h 1.12606 q 0.1524,0 0.1524,0.14393 z"
         style="font-style:normal;font-variant:normal;font-weight:600;font-stretch:normal;font-size:8.46666622px;font-family:Rajdhani;-inkscape-font-specification:'Rajdhani Semi-Bold';text-align:center;text-anchor:middle;fill:#0055d4;fill-opacity:1;stroke-width:0.26458332"
         id="path1449"
         inkscape:connector-curvature="0" />
      <path
         d="m 142.44236,160.19003 h -0.74507 q -0.62653,0 -0.97366,-0.34713 -0.33867,-0.34713 -0.33867,-0.9652 v -1.69333 q 0,-0.62654 0.33867,-0.9652 0.34713,-0.34714 0.97366,-0.34714 h 0.74507 q 0.61806,0 0.9652,0.34714 0.3556,0.33866 0.3556,0.9652 v 1.69333 q 0,0.61807 -0.3556,0.9652 -0.34714,0.34713 -0.9652,0.34713 z m -0.62654,-0.71966 h 0.51647 q 0.6096,0 0.6096,-0.61807 v -1.64253 q 0,-0.61807 -0.6096,-0.61807 h -0.51647 q -0.32173,0 -0.46566,0.1524 -0.14394,0.14393 -0.14394,0.46567 v 1.64253 q 0,0.32173 0.14394,0.47413 0.14393,0.14394 0.46566,0.14394 z"
         style="font-style:normal;font-variant:normal;font-weight:600;font-stretch:normal;font-size:8.46666622px;font-family:Rajdhani;-inkscape-font-specification:'Rajdhani Semi-Bold';text-align:center;text-anchor:middle;fill:#0055d4;fill-opacity:1;stroke-width:0.26458332"
         id="path1451"
         inkscape:connector-curvature="0" />
      <path
         d="m 145.41336,160.19003 h -0.5334 q -0.14393,0 -0.14393,-0.14393 v -4.03013 q 0,-0.14394 0.14393,-0.14394 h 0.5334 q 0.14393,0 0.14393,0.14394 v 0.3048 h 0.0339 q 0.2032,-0.44874 0.85513,-0.44874 h 0.37254 q 0.61806,0 0.94826,0.33867 0.3302,0.33867 0.3302,0.97367 v 2.86173 q 0,0.14393 -0.1524,0.14393 h -0.5334 q -0.14393,0 -0.14393,-0.14393 v -2.82787 q 0,-0.62653 -0.61807,-0.62653 h -0.39793 q -0.69427,0 -0.69427,0.71967 v 2.73473 q 0,0.14393 -0.14393,0.14393 z"
         style="font-style:normal;font-variant:normal;font-weight:600;font-stretch:normal;font-size:8.46666622px;font-family:Rajdhani;-inkscape-font-specification:'Rajdhani Semi-Bold';text-align:center;text-anchor:middle;fill:#0055d4;fill-opacity:1;stroke-width:0.26458332"
         id="path1453"
         inkscape:connector-curvature="0" />
      <path
         d="m 149.24519,156.5917 h -0.4064 q -0.0847,0 -0.11853,-0.0254 -0.0254,-0.0339 -0.0254,-0.11007 v -0.44026 q 0,-0.14394 0.14393,-0.14394 h 0.4064 q 0.0847,0 0.0847,-0.0847 v -0.762 q 0,-0.14394 0.1524,-0.14394 h 0.5334 q 0.14393,0 0.14393,0.14394 v 0.762 q 0,0.0847 0.0931,0.0847 h 0.7874 q 0.1524,0 0.1524,0.14394 v 0.44026 q 0,0.13547 -0.1524,0.13547 h -0.7874 q -0.0931,0 -0.0931,0.0847 v 2.17593 q 0,0.61807 0.635,0.61807 h 0.3302 q 0.1524,0 0.1524,0.14393 v 0.44027 q 0,0.13546 -0.1524,0.13546 h -0.4572 q -0.62653,0 -0.98213,-0.33866 -0.3556,-0.33867 -0.3556,-0.95674 v -2.21826 q 0,-0.0847 -0.0847,-0.0847 z"
         style="font-style:normal;font-variant:normal;font-weight:600;font-stretch:normal;font-size:8.46666622px;font-family:Rajdhani;-inkscape-font-specification:'Rajdhani Semi-Bold';text-align:center;text-anchor:middle;fill:#0055d4;fill-opacity:1;stroke-width:0.26458332"
         id="path1455"
         inkscape:connector-curvature="0" />
      <path
         d="m 155.15122,160.19003 h -1.8288 q -0.62653,0 -0.97367,-0.34713 -0.33866,-0.34713 -0.33866,-0.9652 v -1.69333 q 0,-0.62654 0.33866,-0.9652 0.34714,-0.34714 0.97367,-0.34714 h 0.69427 q 0.62653,0 0.97366,0.34714 0.34714,0.33866 0.34714,0.9652 v 1.07526 q 0,0.1524 -0.1524,0.1524 h -2.26907 q -0.0931,0 -0.0931,0.0847 v 0.36407 q 0,0.61806 0.61806,0.61806 h 1.71027 q 0.1524,0 0.1524,0.1524 v 0.42334 q 0,0.13546 -0.1524,0.13546 z m -2.2352,-2.35373 h 1.51553 q 0.0847,0 0.0847,-0.0847 v -0.54186 q 0,-0.32174 -0.14393,-0.46567 -0.14394,-0.1524 -0.46567,-0.1524 h -0.46567 q -0.32173,0 -0.46566,0.1524 -0.14394,0.14393 -0.14394,0.46567 v 0.54186 q 0,0.0847 0.0847,0.0847 z"
         style="font-style:normal;font-variant:normal;font-weight:600;font-stretch:normal;font-size:8.46666622px;font-family:Rajdhani;-inkscape-font-specification:'Rajdhani Semi-Bold';text-align:center;text-anchor:middle;fill:#0055d4;fill-opacity:1;stroke-width:0.26458332"
         id="path1457"
         inkscape:connector-curvature="0" />
      <path
         d="m 156.66834,160.19003 h -0.64347 q -0.18626,0 -0.0931,-0.14393 l 1.12607,-2.0574 -1.10067,-1.97273 q -0.0931,-0.14394 0.0762,-0.14394 h 0.65193 q 0.16087,0 0.22014,0.14394 l 0.6858,1.45626 h 0.0339 l 0.64347,-1.45626 q 0.0593,-0.14394 0.21167,-0.14394 h 0.64346 q 0.1778,0 0.0847,0.14394 l -1.0668,1.96426 1.15147,2.06587 q 0.0847,0.14393 -0.0762,0.14393 h -0.66887 q -0.14393,0 -0.2032,-0.14393 l -0.71967,-1.4986 h -0.0339 l -0.7112,1.4986 q -0.0593,0.14393 -0.21167,0.14393 z"
         style="font-style:normal;font-variant:normal;font-weight:600;font-stretch:normal;font-size:8.46666622px;font-family:Rajdhani;-inkscape-font-specification:'Rajdhani Semi-Bold';text-align:center;text-anchor:middle;fill:#0055d4;fill-opacity:1;stroke-width:0.26458332"
         id="path1459"
         inkscape:connector-curvature="0" />
      <path
         d="m 160.14272,156.5917 h -0.4064 q -0.0847,0 -0.11854,-0.0254 -0.0254,-0.0339 -0.0254,-0.11007 v -0.44026 q 0,-0.14394 0.14394,-0.14394 h 0.4064 q 0.0847,0 0.0847,-0.0847 v -0.762 q 0,-0.14394 0.1524,-0.14394 h 0.5334 q 0.14394,0 0.14394,0.14394 v 0.762 q 0,0.0847 0.0931,0.0847 h 0.7874 q 0.1524,0 0.1524,0.14394 v 0.44026 q 0,0.13547 -0.1524,0.13547 h -0.7874 q -0.0931,0 -0.0931,0.0847 v 2.17593 q 0,0.61807 0.635,0.61807 h 0.3302 q 0.1524,0 0.1524,0.14393 v 0.44027 q 0,0.13546 -0.1524,0.13546 h -0.4572 q -0.62654,0 -0.98214,-0.33866 -0.3556,-0.33867 -0.3556,-0.95674 v -2.21826 q 0,-0.0847 -0.0847,-0.0847 z"
         style="font-style:normal;font-variant:normal;font-weight:600;font-stretch:normal;font-size:8.46666622px;font-family:Rajdhani;-inkscape-font-specification:'Rajdhani Semi-Bold';text-align:center;text-anchor:middle;fill:#0055d4;fill-opacity:1;stroke-width:0.26458332"
         id="path1461"
         inkscape:connector-curvature="0" />
      <path
         d="m 166.5676,160.19003 h -0.3302 q -0.62654,0 -0.97367,-0.34713 -0.33867,-0.34713 -0.33867,-0.9652 v -1.69333 q 0,-0.62654 0.33867,-0.9652 0.34713,-0.34714 0.97367,-0.34714 h 1.89653 q 0.1524,0 0.1524,0.14394 v 4.03013 q 0,0.14393 -0.1524,0.14393 h -0.5334 q -0.14393,0 -0.14393,-0.14393 v -0.3048 h -0.0339 q -0.2032,0.44873 -0.85513,0.44873 z m 0.889,-1.43933 v -2.07433 q 0,-0.0847 -0.0931,-0.0847 h -1.00753 q -0.6096,0 -0.6096,0.62653 v 1.6256 q 0,0.62654 0.6096,0.62654 h 0.4064 q 0.69427,0 0.69427,-0.71967 z"
         style="font-style:normal;font-variant:normal;font-weight:600;font-stretch:normal;font-size:8.46666622px;font-family:Rajdhani;-inkscape-font-specification:'Rajdhani Semi-Bold';text-align:center;text-anchor:middle;fill:#0055d4;fill-opacity:1;stroke-width:0.26458332"
         id="path1463"
         inkscape:connector-curvature="0" />
      <path
         d="m 170.85781,160.19003 h -0.72813 q -0.127,0 -0.16933,-0.14393 l -0.97367,-4.03013 q -0.0339,-0.14394 0.1016,-0.14394 h 0.6096 q 0.1524,0 0.16933,0.14394 l 0.61807,3.2004 h 0.0593 l 0.74506,-3.2004 q 0.0254,-0.14394 0.16087,-0.14394 h 0.5588 q 0.14393,0 0.1778,0.14394 l 0.72813,3.2004 h 0.0593 l 0.61807,-3.2004 q 0.0254,-0.14394 0.16933,-0.14394 h 0.6096 q 0.14393,0 0.1016,0.14394 l -0.97367,4.03013 q -0.0254,0.14393 -0.16933,0.14393 h -0.72813 q -0.13547,0 -0.16934,-0.14393 l -0.67733,-3.14113 h -0.0593 l -0.66886,3.14113 q -0.0254,0.14393 -0.16934,0.14393 z"
         style="font-style:normal;font-variant:normal;font-weight:600;font-stretch:normal;font-size:8.46666622px;font-family:Rajdhani;-inkscape-font-specification:'Rajdhani Semi-Bold';text-align:center;text-anchor:middle;fill:#0055d4;fill-opacity:1;stroke-width:0.26458332"
         id="path1465"
         inkscape:connector-curvature="0" />
      <path
         d="m 176.75405,160.19003 h -0.3302 q -0.62653,0 -0.97367,-0.34713 -0.33866,-0.34713 -0.33866,-0.9652 v -1.69333 q 0,-0.62654 0.33866,-0.9652 0.34714,-0.34714 0.97367,-0.34714 h 1.89653 q 0.1524,0 0.1524,0.14394 v 4.03013 q 0,0.14393 -0.1524,0.14393 h -0.5334 q -0.14393,0 -0.14393,-0.14393 v -0.3048 h -0.0339 q -0.2032,0.44873 -0.85513,0.44873 z m 0.889,-1.43933 v -2.07433 q 0,-0.0847 -0.0931,-0.0847 h -1.00754 q -0.6096,0 -0.6096,0.62653 v 1.6256 q 0,0.62654 0.6096,0.62654 h 0.4064 q 0.69427,0 0.69427,-0.71967 z"
         style="font-style:normal;font-variant:normal;font-weight:600;font-stretch:normal;font-size:8.46666622px;font-family:Rajdhani;-inkscape-font-specification:'Rajdhani Semi-Bold';text-align:center;text-anchor:middle;fill:#0055d4;fill-opacity:1;stroke-width:0.26458332"
         id="path1467"
         inkscape:connector-curvature="0" />
      <path
         d="m 180.20607,160.19003 h -0.5334 q -0.14394,0 -0.14394,-0.14393 v -4.03013 q 0,-0.14394 0.14394,-0.14394 h 0.5334 q 0.14393,0 0.14393,0.14394 v 0.32173 h 0.0339 q 0.0847,-0.21167 0.32173,-0.33867 0.24553,-0.127 0.54187,-0.127 h 0.31326 q 0.14394,0 0.14394,0.14394 v 0.44026 q 0,0.16087 -0.14394,0.13547 h -0.508 q -0.70273,0 -0.70273,0.77047 v 2.68393 q 0,0.14393 -0.14393,0.14393 z"
         style="font-style:normal;font-variant:normal;font-weight:600;font-stretch:normal;font-size:8.46666622px;font-family:Rajdhani;-inkscape-font-specification:'Rajdhani Semi-Bold';text-align:center;text-anchor:middle;fill:#0055d4;fill-opacity:1;stroke-width:0.26458332"
         id="path1469"
         inkscape:connector-curvature="0" />
      <path
         d="m 185.42948,160.19003 h -1.8288 q -0.62654,0 -0.97367,-0.34713 -0.33867,-0.34713 -0.33867,-0.9652 v -1.69333 q 0,-0.62654 0.33867,-0.9652 0.34713,-0.34714 0.97367,-0.34714 h 0.69426 q 0.62654,0 0.97367,0.34714 0.34713,0.33866 0.34713,0.9652 v 1.07526 q 0,0.1524 -0.1524,0.1524 h -2.26906 q -0.0931,0 -0.0931,0.0847 v 0.36407 q 0,0.61806 0.61807,0.61806 h 1.71027 q 0.1524,0 0.1524,0.1524 v 0.42334 q 0,0.13546 -0.1524,0.13546 z m -2.2352,-2.35373 h 1.51553 q 0.0847,0 0.0847,-0.0847 v -0.54186 q 0,-0.32174 -0.14394,-0.46567 -0.14393,-0.1524 -0.46566,-0.1524 h -0.46567 q -0.32173,0 -0.46567,0.1524 -0.14393,0.14393 -0.14393,0.46567 v 0.54186 q 0,0.0847 0.0847,0.0847 z"
         style="font-style:normal;font-variant:normal;font-weight:600;font-stretch:normal;font-size:8.46666622px;font-family:Rajdhani;-inkscape-font-specification:'Rajdhani Semi-Bold';text-align:center;text-anchor:middle;fill:#0055d4;fill-opacity:1;stroke-width:0.26458332"
         id="path1471"
         inkscape:connector-curvature="0" />
      <path
         d="m 119.33947,173.4192 h -0.3302 q -0.62653,0 -0.97367,-0.34713 -0.33866,-0.34714 -0.33866,-0.9652 v -1.69334 q 0,-0.62653 0.33866,-0.9652 0.34714,-0.34713 0.97367,-0.34713 h 1.89653 q 0.1524,0 0.1524,0.14393 v 4.03014 q 0,0.14393 -0.1524,0.14393 h -0.5334 q -0.14393,0 -0.14393,-0.14393 v -0.3048 h -0.0339 q -0.2032,0.44873 -0.85513,0.44873 z m 0.889,-1.43933 v -2.07434 q 0,-0.0847 -0.0931,-0.0847 h -1.00754 q -0.6096,0 -0.6096,0.62653 v 1.6256 q 0,0.62653 0.6096,0.62653 h 0.4064 q 0.69427,0 0.69427,-0.71966 z"
         style="font-style:normal;font-variant:normal;font-weight:600;font-stretch:normal;font-size:8.46666622px;font-family:Rajdhani;-inkscape-font-specification:'Rajdhani Semi-Bold';text-align:center;text-anchor:middle;fill:#0055d4;fill-opacity:1;stroke-width:0.26458332"
         id="path1473"
         inkscape:connector-curvature="0" />
      <path
         d="m 124.73882,172.84347 v 0.44026 q 0,0.13547 -0.1524,0.13547 h -1.2446 q -0.62653,0 -0.97366,-0.34713 -0.33867,-0.34714 -0.33867,-0.9652 v -1.69334 q 0,-0.62653 0.33867,-0.9652 0.34713,-0.34713 0.97366,-0.34713 h 1.2446 q 0.1524,0 0.1524,0.14393 v 0.44027 q 0,0.13547 -0.1524,0.13547 h -1.12606 q -0.6096,0 -0.6096,0.62653 v 1.6256 q 0,0.62653 0.6096,0.62653 h 1.12606 q 0.1524,0 0.1524,0.14394 z"
         style="font-style:normal;font-variant:normal;font-weight:600;font-stretch:normal;font-size:8.46666622px;font-family:Rajdhani;-inkscape-font-specification:'Rajdhani Semi-Bold';text-align:center;text-anchor:middle;fill:#0055d4;fill-opacity:1;stroke-width:0.26458332"
         id="path1475"
         inkscape:connector-curvature="0" />
      <path
         d="m 128.16187,172.84347 v 0.44026 q 0,0.13547 -0.1524,0.13547 h -1.2446 q -0.62653,0 -0.97367,-0.34713 -0.33866,-0.34714 -0.33866,-0.9652 v -1.69334 q 0,-0.62653 0.33866,-0.9652 0.34714,-0.34713 0.97367,-0.34713 h 1.2446 q 0.1524,0 0.1524,0.14393 v 0.44027 q 0,0.13547 -0.1524,0.13547 h -1.12607 q -0.6096,0 -0.6096,0.62653 v 1.6256 q 0,0.62653 0.6096,0.62653 h 1.12607 q 0.1524,0 0.1524,0.14394 z"
         style="font-style:normal;font-variant:normal;font-weight:600;font-stretch:normal;font-size:8.46666622px;font-family:Rajdhani;-inkscape-font-specification:'Rajdhani Semi-Bold';text-align:center;text-anchor:middle;fill:#0055d4;fill-opacity:1;stroke-width:0.26458332"
         id="path1477"
         inkscape:connector-curvature="0" />
      <path
         d="m 132.01672,173.4192 h -1.8288 q -0.62654,0 -0.97367,-0.34713 -0.33867,-0.34714 -0.33867,-0.9652 v -1.69334 q 0,-0.62653 0.33867,-0.9652 0.34713,-0.34713 0.97367,-0.34713 h 0.69426 q 0.62654,0 0.97367,0.34713 0.34713,0.33867 0.34713,0.9652 v 1.07527 q 0,0.1524 -0.1524,0.1524 h -2.26906 q -0.0931,0 -0.0931,0.0847 v 0.36406 q 0,0.61807 0.61807,0.61807 h 1.71027 q 0.1524,0 0.1524,0.1524 v 0.42333 q 0,0.13547 -0.1524,0.13547 z m -2.2352,-2.35373 h 1.51553 q 0.0847,0 0.0847,-0.0847 v -0.54187 q 0,-0.32173 -0.14394,-0.46566 -0.14393,-0.1524 -0.46566,-0.1524 h -0.46567 q -0.32173,0 -0.46567,0.1524 -0.14393,0.14393 -0.14393,0.46566 v 0.54187 q 0,0.0847 0.0847,0.0847 z"
         style="font-style:normal;font-variant:normal;font-weight:600;font-stretch:normal;font-size:8.46666622px;font-family:Rajdhani;-inkscape-font-specification:'Rajdhani Semi-Bold';text-align:center;text-anchor:middle;fill:#0055d4;fill-opacity:1;stroke-width:0.26458332"
         id="path1479"
         inkscape:connector-curvature="0" />
      <path
         d="m 134.66837,173.4192 h -1.55787 q -0.14393,0 -0.14393,-0.14393 v -0.41487 q 0,-0.13547 0.14393,-0.13547 h 1.4224 q 0.55034,0 0.55034,-0.381 v -0.1016 q 0,-0.33866 -0.39794,-0.51646 l -0.92286,-0.44027 q -0.4318,-0.2032 -0.62654,-0.44873 -0.19473,-0.24554 -0.19473,-0.64347 0,-1.0922 1.21073,-1.0922 h 1.40547 q 0.13547,0 0.13547,0.14393 V 169.66 q 0,0.14393 -0.13547,0.14393 h -1.23613 q -0.254,0 -0.38947,0.0931 -0.13547,0.0847 -0.13547,0.2286 v 0.0931 q 0,0.27093 0.4318,0.47413 l 0.93134,0.47414 q 0.44026,0.19473 0.60113,0.46566 0.16933,0.26247 0.16933,0.6858 0,1.10067 -1.26153,1.10067 z"
         style="font-style:normal;font-variant:normal;font-weight:600;font-stretch:normal;font-size:8.46666622px;font-family:Rajdhani;-inkscape-font-specification:'Rajdhani Semi-Bold';text-align:center;text-anchor:middle;fill:#0055d4;fill-opacity:1;stroke-width:0.26458332"
         id="path1481"
         inkscape:connector-curvature="0" />
      <path
         d="m 138.356,173.4192 h -1.55787 q -0.14393,0 -0.14393,-0.14393 v -0.41487 q 0,-0.13547 0.14393,-0.13547 h 1.4224 q 0.55034,0 0.55034,-0.381 v -0.1016 q 0,-0.33866 -0.39794,-0.51646 l -0.92286,-0.44027 q -0.4318,-0.2032 -0.62654,-0.44873 -0.19473,-0.24554 -0.19473,-0.64347 0,-1.0922 1.21073,-1.0922 h 1.40547 q 0.13547,0 0.13547,0.14393 V 169.66 q 0,0.14393 -0.13547,0.14393 h -1.23613 q -0.254,0 -0.38947,0.0931 -0.13547,0.0847 -0.13547,0.2286 v 0.0931 q 0,0.27093 0.4318,0.47413 l 0.93134,0.47414 q 0.44026,0.19473 0.60113,0.46566 0.16933,0.26247 0.16933,0.6858 0,1.10067 -1.26153,1.10067 z"
         style="font-style:normal;font-variant:normal;font-weight:600;font-stretch:normal;font-size:8.46666622px;font-family:Rajdhani;-inkscape-font-specification:'Rajdhani Semi-Bold';text-align:center;text-anchor:middle;fill:#0055d4;fill-opacity:1;stroke-width:0.26458332"
         id="path1483"
         inkscape:connector-curvature="0" />
      <path
         d="m 143.19748,174.613 h -0.5334 q -0.14393,0 -0.14393,-0.14393 v -5.22394 q 0,-0.14393 0.14393,-0.14393 h 0.5334 q 0.14393,0 0.14393,0.14393 v 0.3048 h 0.0339 q 0.2032,-0.44873 0.85513,-0.44873 h 0.4318 q 0.6096,0 0.93134,0.33867 0.3302,0.33866 0.3302,0.97366 v 1.69334 q 0,0.62653 -0.3302,0.97366 -0.32174,0.33867 -0.93134,0.33867 h -0.4318 q -0.65193,0 -0.85513,-0.44873 h -0.0339 v 1.4986 q 0,0.14393 -0.14393,0.14393 z m 0.8382,-1.91347 h 0.44873 q 0.6096,0 0.6096,-0.62653 v -1.6256 q 0,-0.62653 -0.6096,-0.62653 h -0.44873 q -0.69427,0 -0.69427,0.71966 v 1.43934 q 0,0.71966 0.69427,0.71966 z"
         style="font-style:normal;font-variant:normal;font-weight:600;font-stretch:normal;font-size:8.46666622px;font-family:Rajdhani;-inkscape-font-specification:'Rajdhani Semi-Bold';text-align:center;text-anchor:middle;fill:#0055d4;fill-opacity:1;stroke-width:0.26458332"
         id="path1485"
         inkscape:connector-curvature="0" />
      <path
         d="m 147.57964,173.4192 h -0.5334 q -0.14393,0 -0.14393,-0.14393 v -4.03014 q 0,-0.14393 0.14393,-0.14393 h 0.5334 q 0.14393,0 0.14393,0.14393 v 0.32174 h 0.0339 q 0.0847,-0.21167 0.32173,-0.33867 0.24554,-0.127 0.54187,-0.127 h 0.31327 q 0.14393,0 0.14393,0.14393 v 0.44027 q 0,0.16087 -0.14393,0.13547 h -0.508 q -0.70274,0 -0.70274,0.77046 v 2.68394 q 0,0.14393 -0.14393,0.14393 z"
         style="font-style:normal;font-variant:normal;font-weight:600;font-stretch:normal;font-size:8.46666622px;font-family:Rajdhani;-inkscape-font-specification:'Rajdhani Semi-Bold';text-align:center;text-anchor:middle;fill:#0055d4;fill-opacity:1;stroke-width:0.26458332"
         id="path1487"
         inkscape:connector-curvature="0" />
      <path
         d="m 151.71931,173.4192 h -0.74507 q -0.62653,0 -0.97366,-0.34713 -0.33867,-0.34714 -0.33867,-0.9652 v -1.69334 q 0,-0.62653 0.33867,-0.9652 0.34713,-0.34713 0.97366,-0.34713 h 0.74507 q 0.61807,0 0.9652,0.34713 0.3556,0.33867 0.3556,0.9652 v 1.69334 q 0,0.61806 -0.3556,0.9652 -0.34713,0.34713 -0.9652,0.34713 z m -0.62653,-0.71967 h 0.51646 q 0.6096,0 0.6096,-0.61806 v -1.64254 q 0,-0.61806 -0.6096,-0.61806 h -0.51646 q -0.32174,0 -0.46567,0.1524 -0.14393,0.14393 -0.14393,0.46566 v 1.64254 q 0,0.32173 0.14393,0.47413 0.14393,0.14393 0.46567,0.14393 z"
         style="font-style:normal;font-variant:normal;font-weight:600;font-stretch:normal;font-size:8.46666622px;font-family:Rajdhani;-inkscape-font-specification:'Rajdhani Semi-Bold';text-align:center;text-anchor:middle;fill:#0055d4;fill-opacity:1;stroke-width:0.26458332"
         id="path1489"
         inkscape:connector-curvature="0" />
      <path
         d="m 154.41938,173.4192 h -0.64347 q -0.18626,0 -0.0931,-0.14393 l 1.12607,-2.0574 -1.10067,-1.97274 q -0.0931,-0.14393 0.0762,-0.14393 h 0.65193 q 0.16087,0 0.22014,0.14393 l 0.6858,1.45627 h 0.0339 l 0.64347,-1.45627 q 0.0593,-0.14393 0.21167,-0.14393 h 0.64346 q 0.1778,0 0.0847,0.14393 l -1.0668,1.96427 1.15147,2.06587 q 0.0847,0.14393 -0.0762,0.14393 h -0.66887 q -0.14393,0 -0.2032,-0.14393 l -0.71967,-1.4986 h -0.0339 l -0.7112,1.4986 q -0.0593,0.14393 -0.21167,0.14393 z"
         style="font-style:normal;font-variant:normal;font-weight:600;font-stretch:normal;font-size:8.46666622px;font-family:Rajdhani;-inkscape-font-specification:'Rajdhani Semi-Bold';text-align:center;text-anchor:middle;fill:#0055d4;fill-opacity:1;stroke-width:0.26458332"
         id="path1491"
         inkscape:connector-curvature="0" />
      <path
         d="m 158.27476,174.7908 h -0.44874 q -0.14393,0 -0.14393,-0.14393 v -0.4318 q 0,-0.1524 0.14393,-0.1524 h 0.19474 q 0.51646,0 0.7112,-0.2032 0.2032,-0.2032 0.33866,-0.66887 h -0.33866 q -0.127,0 -0.1778,-0.14393 l -1.12607,-3.80154 q -0.0339,-0.14393 0.11007,-0.14393 h 0.56726 q 0.13547,0 0.16934,0.14393 l 0.92286,3.31894 h 0.0339 l 0.92287,-3.31894 q 0.0254,-0.14393 0.16933,-0.14393 h 0.54187 q 0.16086,0 0.13546,0.1524 l -1.15993,4.07247 q -0.19473,0.7112 -0.55033,1.08373 -0.3556,0.381 -1.016,0.381 z"
         style="font-style:normal;font-variant:normal;font-weight:600;font-stretch:normal;font-size:8.46666622px;font-family:Rajdhani;-inkscape-font-specification:'Rajdhani Semi-Bold';text-align:center;text-anchor:middle;fill:#0055d4;fill-opacity:1;stroke-width:0.26458332"
         id="path1493"
         inkscape:connector-curvature="0" />
    </g>
    <g
       aria-label="privilege"
       style="font-style:normal;font-weight:normal;font-size:10.58333302px;line-height:1.25;font-family:sans-serif;letter-spacing:0px;word-spacing:0px;fill:#0055d4;fill-opacity:1;stroke:none;stroke-width:0.26458332"
       id="text1081"
       transform="translate(20.116667)">
      <path
         d="m 94.582002,30.086122 h -0.381 q -0.118534,0 -0.118534,-0.118533 v -5.317067 q 0,-0.118533 0.118534,-0.118533 h 0.381 q 0.118533,0 0.118533,0.118533 v 0.3302 h 0.03387 q 0.211666,-0.448733 0.8636,-0.448733 h 0.508 q 0.575733,0 0.889,0.3302 0.321733,0.3302 0.321733,0.922867 v 1.811866 q 0,0.592667 -0.321733,0.922867 -0.313267,0.3302 -0.889,0.3302 h -0.508 q -0.651934,0 -0.8636,-0.448733 h -0.03387 v 1.566333 q 0,0.118533 -0.118533,0.118533 z m 0.905933,-1.778 h 0.499533 q 0.719667,0 0.719667,-0.7366 v -1.761066 q 0,-0.7366 -0.719667,-0.7366 h -0.499533 q -0.381,0 -0.5842,0.2032 -0.2032,0.2032 -0.2032,0.575733 v 1.6764 q 0,0.372533 0.2032,0.575733 0.2032,0.2032 0.5842,0.2032 z"
         style="font-style:normal;font-variant:normal;font-weight:500;font-stretch:normal;font-size:8.46666622px;font-family:Rajdhani;-inkscape-font-specification:'Rajdhani Medium';text-align:center;text-anchor:middle;fill:#0055d4;fill-opacity:1;stroke-width:0.26458332"
         id="path1345"
         inkscape:connector-curvature="0" />
      <path
         d="m 98.898017,28.849989 h -0.381 q -0.118533,0 -0.118533,-0.118533 v -4.080934 q 0,-0.118533 0.118533,-0.118533 h 0.381 q 0.118533,0 0.118533,0.118533 v 0.338667 h 0.03387 q 0.08467,-0.186267 0.321733,-0.321733 0.237067,-0.135467 0.5588,-0.135467 h 0.330197 q 0.11007,0 0.11007,0.118533 v 0.313267 q 0,0.05927 -0.0254,0.09313 -0.0254,0.0254 -0.0847,0.01693 h -0.457197 q -0.381,0 -0.5842,0.2286 -0.2032,0.2286 -0.2032,0.626533 v 2.802467 q 0,0.118533 -0.118533,0.118533 z"
         style="font-style:normal;font-variant:normal;font-weight:500;font-stretch:normal;font-size:8.46666622px;font-family:Rajdhani;-inkscape-font-specification:'Rajdhani Medium';text-align:center;text-anchor:middle;fill:#0055d4;fill-opacity:1;stroke-width:0.26458332"
         id="path1347"
         inkscape:connector-curvature="0" />
      <path
         d="m 101.16933,23.820789 v -0.795866 q 0,-0.118534 0.11007,-0.118534 h 0.38947 q 0.11853,0 0.11853,0.118534 v 0.795866 q 0,0.118534 -0.11853,0.118534 h -0.38947 q -0.11007,0 -0.11007,-0.118534 z m 0,4.910667 v -4.080934 q 0,-0.118533 0.11007,-0.118533 h 0.38947 q 0.11853,0 0.11853,0.118533 v 4.080934 q 0,0.118533 -0.11853,0.118533 h -0.381 q -0.11854,0 -0.11854,-0.118533 z"
         style="font-style:normal;font-variant:normal;font-weight:500;font-stretch:normal;font-size:8.46666622px;font-family:Rajdhani;-inkscape-font-specification:'Rajdhani Medium';text-align:center;text-anchor:middle;fill:#0055d4;fill-opacity:1;stroke-width:0.26458332"
         id="path1349"
         inkscape:connector-curvature="0" />
      <path
         d="m 102.66542,24.531989 h 0.39793 q 0.11007,0 0.13547,0.118533 l 1.016,3.5814 h 0.0423 l 1.00754,-3.5814 q 0.0339,-0.118533 0.14393,-0.118533 h 0.39793 q 0.11854,0 0.0847,0.118533 l -1.2192,4.072467 q -0.0254,0.127 -0.1524,0.127 h -0.57573 q -0.11854,0 -0.1524,-0.127 l -1.21074,-4.072467 q -0.0339,-0.118533 0.0847,-0.118533 z"
         style="font-style:normal;font-variant:normal;font-weight:500;font-stretch:normal;font-size:8.46666622px;font-family:Rajdhani;-inkscape-font-specification:'Rajdhani Medium';text-align:center;text-anchor:middle;fill:#0055d4;fill-opacity:1;stroke-width:0.26458332"
         id="path1351"
         inkscape:connector-curvature="0" />
      <path
         d="m 106.69251,23.820789 v -0.795866 q 0,-0.118534 0.11007,-0.118534 h 0.38946 q 0.11854,0 0.11854,0.118534 v 0.795866 q 0,0.118534 -0.11854,0.118534 h -0.38946 q -0.11007,0 -0.11007,-0.118534 z m 0,4.910667 v -4.080934 q 0,-0.118533 0.11007,-0.118533 h 0.38946 q 0.11854,0 0.11854,0.118533 v 4.080934 q 0,0.118533 -0.11854,0.118533 h -0.381 q -0.11853,0 -0.11853,-0.118533 z"
         style="font-style:normal;font-variant:normal;font-weight:500;font-stretch:normal;font-size:8.46666622px;font-family:Rajdhani;-inkscape-font-specification:'Rajdhani Medium';text-align:center;text-anchor:middle;fill:#0055d4;fill-opacity:1;stroke-width:0.26458332"
         id="path1353"
         inkscape:connector-curvature="0" />
      <path
         d="m 109.06066,28.849989 h -0.381 q -0.11853,0 -0.11853,-0.118533 v -5.715 q 0,-0.118533 0.11853,-0.118533 h 0.381 q 0.11854,0 0.11854,0.118533 v 5.715 q 0,0.118533 -0.11854,0.118533 z"
         style="font-style:normal;font-variant:normal;font-weight:500;font-stretch:normal;font-size:8.46666622px;font-family:Rajdhani;-inkscape-font-specification:'Rajdhani Medium';text-align:center;text-anchor:middle;fill:#0055d4;fill-opacity:1;stroke-width:0.26458332"
         id="path1355"
         inkscape:connector-curvature="0" />
      <path
         d="m 113.35075,28.849989 h -1.79493 q -0.5842,0 -0.92287,-0.3302 -0.3302,-0.3302 -0.3302,-0.922867 v -1.811866 q 0,-0.592667 0.3302,-0.922867 0.33867,-0.3302 0.92287,-0.3302 h 0.7112 q 0.5842,0 0.9144,0.3302 0.3302,0.3302 0.3302,0.922867 v 1.075266 q 0,0.127 -0.11854,0.127 h -2.39606 q -0.0847,0 -0.0847,0.0762 v 0.516467 q 0,0.7366 0.7112,0.7366 h 1.7272 q 0.11853,0 0.11853,0.118533 v 0.3048 q 0,0.110067 -0.11853,0.110067 z m -2.35373,-2.3114 h 1.8288 q 0.0847,0 0.0847,-0.08467 v -0.651933 q 0,-0.728133 -0.7112,-0.728133 h -0.57573 q -0.7112,0 -0.7112,0.728133 v 0.651933 q 0,0.08467 0.0847,0.08467 z"
         style="font-style:normal;font-variant:normal;font-weight:500;font-stretch:normal;font-size:8.46666622px;font-family:Rajdhani;-inkscape-font-specification:'Rajdhani Medium';text-align:center;text-anchor:middle;fill:#0055d4;fill-opacity:1;stroke-width:0.26458332"
         id="path1357"
         inkscape:connector-curvature="0" />
      <path
         d="m 116.18867,28.621389 h -0.47413 q -0.57574,0 -0.89747,-0.3302 -0.32173,-0.3302 -0.32173,-0.922867 v -1.583266 q 0,-0.592667 0.3302,-0.922867 0.33866,-0.3302 0.92286,-0.3302 h 1.83727 q 0.11853,0 0.11853,0.118533 v 4.199467 q 0,0.5842 -0.33866,0.9144 -0.3302,0.338667 -0.9144,0.338667 h -1.55787 q -0.127,0 -0.127,-0.118534 v -0.313266 q 0,-0.118534 0.127,-0.118534 h 1.48167 q 0.7112,0 0.7112,-0.728133 v -0.651933 h -0.0339 q -0.22013,0.448733 -0.8636,0.448733 z m 0.89747,-1.3208 v -2.150533 q 0,-0.0762 -0.0847,-0.0762 h -1.17687 q -0.7112,0 -0.7112,0.7366 v 1.532466 q 0,0.7366 0.7112,0.7366 h 0.47414 q 0.381,0 0.5842,-0.2032 0.2032,-0.2032 0.2032,-0.575733 z"
         style="font-style:normal;font-variant:normal;font-weight:500;font-stretch:normal;font-size:8.46666622px;font-family:Rajdhani;-inkscape-font-specification:'Rajdhani Medium';text-align:center;text-anchor:middle;fill:#0055d4;fill-opacity:1;stroke-width:0.26458332"
         id="path1359"
         inkscape:connector-curvature="0" />
      <path
         d="m 121.83395,28.849989 h -1.79493 q -0.5842,0 -0.92287,-0.3302 -0.3302,-0.3302 -0.3302,-0.922867 v -1.811866 q 0,-0.592667 0.3302,-0.922867 0.33867,-0.3302 0.92287,-0.3302 h 0.7112 q 0.5842,0 0.9144,0.3302 0.3302,0.3302 0.3302,0.922867 v 1.075266 q 0,0.127 -0.11854,0.127 h -2.39606 q -0.0847,0 -0.0847,0.0762 v 0.516467 q 0,0.7366 0.7112,0.7366 h 1.7272 q 0.11853,0 0.11853,0.118533 v 0.3048 q 0,0.110067 -0.11853,0.110067 z m -2.35373,-2.3114 h 1.8288 q 0.0847,0 0.0847,-0.08467 v -0.651933 q 0,-0.728133 -0.7112,-0.728133 h -0.57573 q -0.7112,0 -0.7112,0.728133 v 0.651933 q 0,0.08467 0.0847,0.08467 z"
         style="font-style:normal;font-variant:normal;font-weight:500;font-stretch:normal;font-size:8.46666622px;font-family:Rajdhani;-inkscape-font-specification:'Rajdhani Medium';text-align:center;text-anchor:middle;fill:#0055d4;fill-opacity:1;stroke-width:0.26458332"
         id="path1361"
         inkscape:connector-curvature="0" />
    </g>
    <g
       aria-label="location"
       style="font-style:normal;font-weight:normal;font-size:10.58333302px;line-height:1.25;font-family:sans-serif;letter-spacing:0px;word-spacing:0px;fill:#0055d4;fill-opacity:1;stroke:none;stroke-width:0.26458332"
       id="text1087"
       transform="translate(20.116667)">
      <path
         d="m 125.98628,40.877117 h -0.381 q -0.11853,0 -0.11853,-0.118533 v -5.715 q 0,-0.118533 0.11853,-0.118533 h 0.381 q 0.11854,0 0.11854,0.118533 v 5.715 q 0,0.118533 -0.11854,0.118533 z"
         style="font-style:normal;font-variant:normal;font-weight:500;font-stretch:normal;font-size:8.46666622px;font-family:Rajdhani;-inkscape-font-specification:'Rajdhani Medium';text-align:center;text-anchor:middle;fill:#0055d4;fill-opacity:1;stroke-width:0.26458332"
         id="path1364"
         inkscape:connector-curvature="0" />
      <path
         d="m 129.20957,40.877117 h -0.72813 q -0.5842,0 -0.92287,-0.3302 -0.3302,-0.3302 -0.3302,-0.922866 v -1.811867 q 0,-0.592667 0.3302,-0.922867 0.33867,-0.3302 0.92287,-0.3302 h 0.72813 q 0.5842,0 0.9144,0.3302 0.33867,0.3302 0.33867,0.922867 v 1.811867 q 0,0.592666 -0.33867,0.922866 -0.3302,0.3302 -0.9144,0.3302 z m -0.6604,-0.541866 h 0.59267 q 0.7112,0 0.7112,-0.728134 v -1.778 q 0,-0.728133 -0.7112,-0.728133 h -0.59267 q -0.7112,0 -0.7112,0.728133 v 1.778 q 0,0.728134 0.7112,0.728134 z"
         style="font-style:normal;font-variant:normal;font-weight:500;font-stretch:normal;font-size:8.46666622px;font-family:Rajdhani;-inkscape-font-specification:'Rajdhani Medium';text-align:center;text-anchor:middle;fill:#0055d4;fill-opacity:1;stroke-width:0.26458332"
         id="path1366"
         inkscape:connector-curvature="0" />
      <path
         d="m 134.06097,40.453784 v 0.313266 q 0,0.110067 -0.11853,0.110067 h -1.22767 q -0.5842,0 -0.92287,-0.3302 -0.3302,-0.3302 -0.3302,-0.922866 v -1.811867 q 0,-0.592667 0.3302,-0.922867 0.33867,-0.3302 0.92287,-0.3302 h 1.22767 q 0.11853,0 0.11853,0.118534 v 0.313266 q 0,0.110067 -0.11853,0.110067 h -1.15994 q -0.70273,0 -0.70273,0.7366 v 1.761067 q 0,0.7366 0.70273,0.7366 h 1.15994 q 0.11853,0 0.11853,0.118533 z"
         style="font-style:normal;font-variant:normal;font-weight:500;font-stretch:normal;font-size:8.46666622px;font-family:Rajdhani;-inkscape-font-specification:'Rajdhani Medium';text-align:center;text-anchor:middle;fill:#0055d4;fill-opacity:1;stroke-width:0.26458332"
         id="path1368"
         inkscape:connector-curvature="0" />
      <path
         d="m 136.52847,40.877117 h -0.44026 q -0.5842,0 -0.92287,-0.3302 -0.3302,-0.3302 -0.3302,-0.922866 v -1.811867 q 0,-0.592667 0.3302,-0.922867 0.33867,-0.3302 0.92287,-0.3302 h 1.83726 q 0.11854,0 0.11854,0.118534 v 4.080933 q 0,0.118533 -0.11854,0.118533 h -0.381 q -0.11853,0 -0.11853,-0.118533 v -0.3302 h -0.0339 q -0.21166,0.448733 -0.8636,0.448733 z m 0.89747,-1.3208 v -2.379133 q 0,-0.0762 -0.0847,-0.0762 h -1.18533 q -0.70273,0 -0.70273,0.7366 v 1.761067 q 0,0.7366 0.70273,0.7366 h 0.4826 q 0.381,0 0.5842,-0.2032 0.2032,-0.2032 0.2032,-0.575734 z"
         style="font-style:normal;font-variant:normal;font-weight:500;font-stretch:normal;font-size:8.46666622px;font-family:Rajdhani;-inkscape-font-specification:'Rajdhani Medium';text-align:center;text-anchor:middle;fill:#0055d4;fill-opacity:1;stroke-width:0.26458332"
         id="path1370"
         inkscape:connector-curvature="0" />
      <path
         d="m 139.38015,37.100984 h -0.46567 q -0.11853,0 -0.11853,-0.110067 v -0.313266 q 0,-0.118534 0.11853,-0.118534 h 0.46567 q 0.0847,0 0.0847,-0.0762 v -0.728133 q 0,-0.118533 0.11853,-0.118533 h 0.381 q 0.11007,0 0.11007,0.118533 v 0.728133 q 0,0.0762 0.0931,0.0762 h 0.89747 q 0.127,0 0.127,0.118534 v 0.313266 q 0,0.110067 -0.127,0.110067 h -0.89747 q -0.0931,0 -0.0931,0.0762 v 2.4384 q 0,0.719667 0.74506,0.719667 h 0.3302 q 0.127,0 0.127,0.118533 v 0.313266 q 0,0.110067 -0.127,0.110067 h -0.4064 q -0.5842,0 -0.93133,-0.321733 -0.34713,-0.3302 -0.34713,-0.9144 v -2.4638 q 0,-0.0762 -0.0847,-0.0762 z"
         style="font-style:normal;font-variant:normal;font-weight:500;font-stretch:normal;font-size:8.46666622px;font-family:Rajdhani;-inkscape-font-specification:'Rajdhani Medium';text-align:center;text-anchor:middle;fill:#0055d4;fill-opacity:1;stroke-width:0.26458332"
         id="path1372"
         inkscape:connector-curvature="0" />
      <path
         d="m 142.22164,35.847917 v -0.795866 q 0,-0.118534 0.11007,-0.118534 h 0.38947 q 0.11853,0 0.11853,0.118534 v 0.795866 q 0,0.118534 -0.11853,0.118534 h -0.38947 q -0.11007,0 -0.11007,-0.118534 z m 0,4.910667 v -4.080933 q 0,-0.118534 0.11007,-0.118534 h 0.38947 q 0.11853,0 0.11853,0.118534 v 4.080933 q 0,0.118533 -0.11853,0.118533 h -0.381 q -0.11854,0 -0.11854,-0.118533 z"
         style="font-style:normal;font-variant:normal;font-weight:500;font-stretch:normal;font-size:8.46666622px;font-family:Rajdhani;-inkscape-font-specification:'Rajdhani Medium';text-align:center;text-anchor:middle;fill:#0055d4;fill-opacity:1;stroke-width:0.26458332"
         id="path1374"
         inkscape:connector-curvature="0" />
      <path
         d="m 145.94446,40.877117 h -0.72813 q -0.5842,0 -0.92287,-0.3302 -0.3302,-0.3302 -0.3302,-0.922866 v -1.811867 q 0,-0.592667 0.3302,-0.922867 0.33867,-0.3302 0.92287,-0.3302 h 0.72813 q 0.5842,0 0.9144,0.3302 0.33867,0.3302 0.33867,0.922867 v 1.811867 q 0,0.592666 -0.33867,0.922866 -0.3302,0.3302 -0.9144,0.3302 z m -0.6604,-0.541866 h 0.59267 q 0.7112,0 0.7112,-0.728134 v -1.778 q 0,-0.728133 -0.7112,-0.728133 h -0.59267 q -0.7112,0 -0.7112,0.728133 v 1.778 q 0,0.728134 0.7112,0.728134 z"
         style="font-style:normal;font-variant:normal;font-weight:500;font-stretch:normal;font-size:8.46666622px;font-family:Rajdhani;-inkscape-font-specification:'Rajdhani Medium';text-align:center;text-anchor:middle;fill:#0055d4;fill-opacity:1;stroke-width:0.26458332"
         id="path1376"
         inkscape:connector-curvature="0" />
      <path
         d="m 148.7808,40.877117 h -0.381 q -0.11854,0 -0.11854,-0.118533 v -4.080933 q 0,-0.118534 0.11854,-0.118534 h 0.381 q 0.11853,0 0.11853,0.118534 v 0.3302 h 0.0339 q 0.21166,-0.448734 0.8636,-0.448734 h 0.47413 q 0.57573,0 0.89747,0.3302 0.32173,0.3302 0.32173,0.922867 v 2.9464 q 0,0.118533 -0.11853,0.118533 h -0.381 q -0.11854,0 -0.11854,-0.118533 v -2.921 q 0,-0.7366 -0.7112,-0.7366 h -0.47413 q -0.381,0 -0.5842,0.2032 -0.2032,0.2032 -0.2032,0.575733 v 2.878667 q 0,0.118533 -0.11853,0.118533 z"
         style="font-style:normal;font-variant:normal;font-weight:500;font-stretch:normal;font-size:8.46666622px;font-family:Rajdhani;-inkscape-font-specification:'Rajdhani Medium';text-align:center;text-anchor:middle;fill:#0055d4;fill-opacity:1;stroke-width:0.26458332"
         id="path1378"
         inkscape:connector-curvature="0" />
    </g>
    <g
       aria-label="time"
       style="font-style:normal;font-weight:normal;font-size:10.58333302px;line-height:1.25;font-family:sans-serif;letter-spacing:0px;word-spacing:0px;fill:#0055d4;fill-opacity:1;stroke:none;stroke-width:0.26458332"
       id="text1091"
       transform="translate(20.116667)">
      <path
         d="m 161.87003,24.539316 h -0.46567 q -0.11853,0 -0.11853,-0.110067 v -0.313267 q 0,-0.118533 0.11853,-0.118533 h 0.46567 q 0.0847,0 0.0847,-0.0762 v -0.728133 q 0,-0.118534 0.11853,-0.118534 h 0.381 q 0.11007,0 0.11007,0.118534 v 0.728133 q 0,0.0762 0.0931,0.0762 h 0.89747 q 0.127,0 0.127,0.118533 v 0.313267 q 0,0.110067 -0.127,0.110067 h -0.89747 q -0.0931,0 -0.0931,0.0762 v 2.438399 q 0,0.719667 0.74506,0.719667 h 0.3302 q 0.127,0 0.127,0.118533 v 0.313267 q 0,0.110067 -0.127,0.110067 h -0.4064 q -0.5842,0 -0.93133,-0.321734 -0.34713,-0.3302 -0.34713,-0.9144 v -2.463799 q 0,-0.0762 -0.0847,-0.0762 z"
         style="font-style:normal;font-variant:normal;font-weight:500;font-stretch:normal;font-size:8.46666622px;font-family:Rajdhani;-inkscape-font-specification:'Rajdhani Medium';text-align:center;text-anchor:middle;fill:#0055d4;fill-opacity:1;stroke-width:0.26458332"
         id="path1381"
         inkscape:connector-curvature="0" />
      <path
         d="m 164.71152,23.286249 v -0.795867 q 0,-0.118533 0.11007,-0.118533 h 0.38947 q 0.11853,0 0.11853,0.118533 v 0.795867 q 0,0.118533 -0.11853,0.118533 h -0.38947 q -0.11007,0 -0.11007,-0.118533 z m 0,4.910666 v -4.080933 q 0,-0.118533 0.11007,-0.118533 h 0.38947 q 0.11853,0 0.11853,0.118533 v 4.080933 q 0,0.118534 -0.11853,0.118534 h -0.381 q -0.11854,0 -0.11854,-0.118534 z"
         style="font-style:normal;font-variant:normal;font-weight:500;font-stretch:normal;font-size:8.46666622px;font-family:Rajdhani;-inkscape-font-specification:'Rajdhani Medium';text-align:center;text-anchor:middle;fill:#0055d4;fill-opacity:1;stroke-width:0.26458332"
         id="path1383"
         inkscape:connector-curvature="0" />
      <path
         d="m 167.03734,28.315449 h -0.381 q -0.11853,0 -0.11853,-0.118534 v -4.080933 q 0,-0.118533 0.11853,-0.118533 h 0.381 q 0.11854,0 0.11854,0.118533 v 0.3302 h 0.0339 q 0.23707,-0.448733 0.89747,-0.448733 h 0.31327 q 0.74506,0 1.03293,0.575733 0.13547,-0.2794 0.42333,-0.423333 0.29634,-0.1524 0.61807,-0.1524 h 0.29633 q 0.57574,0 0.89747,0.3302 0.32173,0.3302 0.32173,0.922867 v 2.946399 q 0,0.118534 -0.11853,0.118534 h -0.381 q -0.11853,0 -0.11853,-0.118534 v -2.920999 q 0,-0.7366 -0.7112,-0.7366 h -0.2794 q -0.381,0 -0.59267,0.220133 -0.2032,0.211667 -0.2032,0.5842 v 2.853266 q 0,0.118534 -0.11853,0.118534 h -0.381 q -0.11854,0 -0.11854,-0.118534 v -2.920999 q 0,-0.7366 -0.7112,-0.7366 h -0.31326 q -0.381,0 -0.5842,0.2032 -0.2032,0.2032 -0.2032,0.575733 v 2.878666 q 0,0.118534 -0.11854,0.118534 z"
         style="font-style:normal;font-variant:normal;font-weight:500;font-stretch:normal;font-size:8.46666622px;font-family:Rajdhani;-inkscape-font-specification:'Rajdhani Medium';text-align:center;text-anchor:middle;fill:#0055d4;fill-opacity:1;stroke-width:0.26458332"
         id="path1385"
         inkscape:connector-curvature="0" />
      <path
         d="m 176.08265,28.315449 h -1.79493 q -0.5842,0 -0.92287,-0.3302 -0.3302,-0.3302 -0.3302,-0.922867 v -1.811866 q 0,-0.592667 0.3302,-0.922867 0.33867,-0.3302 0.92287,-0.3302 h 0.7112 q 0.5842,0 0.9144,0.3302 0.3302,0.3302 0.3302,0.922867 v 1.075266 q 0,0.127 -0.11853,0.127 h -2.39607 q -0.0847,0 -0.0847,0.0762 v 0.516467 q 0,0.7366 0.7112,0.7366 h 1.7272 q 0.11854,0 0.11854,0.118533 v 0.3048 q 0,0.110067 -0.11854,0.110067 z m -2.35373,-2.3114 h 1.8288 q 0.0847,0 0.0847,-0.08467 v -0.651933 q 0,-0.728133 -0.7112,-0.728133 h -0.57574 q -0.7112,0 -0.7112,0.728133 v 0.651933 q 0,0.08467 0.0847,0.08467 z"
         style="font-style:normal;font-variant:normal;font-weight:500;font-stretch:normal;font-size:8.46666622px;font-family:Rajdhani;-inkscape-font-specification:'Rajdhani Medium';text-align:center;text-anchor:middle;fill:#0055d4;fill-opacity:1;stroke-width:0.26458332"
         id="path1387"
         inkscape:connector-curvature="0" />
    </g>
    <g
       aria-label="2FA"
       style="font-style:normal;font-weight:normal;font-size:10.58333302px;line-height:1.25;font-family:sans-serif;letter-spacing:0px;word-spacing:0px;fill:#0055d4;fill-opacity:1;stroke:none;stroke-width:0.26458332"
       id="text1095"
       transform="translate(20.116667)">
      <path
         d="m 101.93224,139.91557 v -0.762 q 0,-0.56727 0.47413,-0.93133 l 1.63407,-1.28694 q 0.42333,-0.32173 0.42333,-0.79586 v -0.3048 q 0,-0.71967 -0.72813,-0.71967 h -0.51647 q -0.7112,0 -0.7112,0.71967 v 0.34713 q 0,0.127 -0.11853,0.127 h -0.381 q -0.11007,0 -0.11007,-0.127 v -0.3556 q 0,-0.5842 0.3302,-0.90593 0.3302,-0.3302 0.9144,-0.3302 h 0.67733 q 0.5842,0 0.9144,0.3302 0.3302,0.32173 0.3302,0.90593 v 0.34713 q 0,0.6604 -0.52493,1.07527 l -1.65947,1.31233 q -0.2794,0.22014 -0.2794,0.5334 v 0.38947 h 2.3622 q 0.11854,0 0.11854,0.11853 v 0.31327 q 0,0.11853 -0.11854,0.11853 h -2.91253 q -0.11853,0 -0.11853,-0.11853 z"
         style="font-style:normal;font-variant:normal;font-weight:500;font-stretch:normal;font-size:8.46666622px;font-family:Rajdhani;-inkscape-font-specification:'Rajdhani Medium';text-align:center;text-anchor:middle;fill:#0055d4;fill-opacity:1;stroke-width:0.26458332"
         id="path1390"
         inkscape:connector-curvature="0" />
      <path
         d="m 106.70254,140.0341 h -0.381 q -0.11853,0 -0.11853,-0.11853 v -5.207 q 0,-0.11853 0.11853,-0.11853 h 2.63314 q 0.11853,0 0.11853,0.11853 v 0.3048 q 0,0.11853 -0.11853,0.11853 h -2.04894 q -0.0847,0 -0.0847,0.0762 v 1.84574 q 0,0.0762 0.0847,0.0762 h 1.81187 q 0.11853,0 0.11853,0.11853 v 0.3048 q 0,0.11853 -0.11853,0.11853 h -1.81187 q -0.0847,0 -0.0847,0.0847 v 2.159 q 0,0.11853 -0.11854,0.11853 z"
         style="font-style:normal;font-variant:normal;font-weight:500;font-stretch:normal;font-size:8.46666622px;font-family:Rajdhani;-inkscape-font-specification:'Rajdhani Medium';text-align:center;text-anchor:middle;fill:#0055d4;fill-opacity:1;stroke-width:0.26458332"
         id="path1392"
         inkscape:connector-curvature="0" />
      <path
         d="m 110.14027,140.0341 h -0.42333 q -0.11007,0 -0.0762,-0.11853 l 1.58327,-5.207 q 0.0339,-0.11853 0.16086,-0.11853 h 0.6096 q 0.127,0 0.16087,0.11853 l 1.58327,5.207 q 0.0339,0.11853 -0.0762,0.11853 h -0.4318 q -0.0931,0 -0.11854,-0.11853 l -0.39793,-1.23613 h -2.04893 l -0.39794,1.23613 q -0.0339,0.11853 -0.127,0.11853 z m 1.53247,-4.80906 -0.87207,2.92946 h 1.778 l -0.87206,-2.92946 z"
         style="font-style:normal;font-variant:normal;font-weight:500;font-stretch:normal;font-size:8.46666622px;font-family:Rajdhani;-inkscape-font-specification:'Rajdhani Medium';text-align:center;text-anchor:middle;fill:#0055d4;fill-opacity:1;stroke-width:0.26458332"
         id="path1394"
         inkscape:connector-curvature="0" />
    </g>
    <g
       aria-label="context"
       style="font-style:normal;font-weight:normal;font-size:10.58333302px;line-height:1.25;font-family:sans-serif;letter-spacing:0px;word-spacing:0px;fill:#0055d4;fill-opacity:1;stroke:none;stroke-width:0.26458332"
       id="text1099"
       transform="translate(20.116667)">
      <path
         d="m 130.05603,127.04911 v 0.31327 q 0,0.11006 -0.11854,0.11006 h -1.22766 q -0.5842,0 -0.92287,-0.3302 -0.3302,-0.3302 -0.3302,-0.92286 v -1.81187 q 0,-0.59267 0.3302,-0.92287 0.33867,-0.3302 0.92287,-0.3302 h 1.22766 q 0.11854,0 0.11854,0.11854 v 0.31326 q 0,0.11007 -0.11854,0.11007 h -1.15993 q -0.70273,0 -0.70273,0.7366 v 1.76107 q 0,0.7366 0.70273,0.7366 h 1.15993 q 0.11854,0 0.11854,0.11853 z"
         style="font-style:normal;font-variant:normal;font-weight:500;font-stretch:normal;font-size:8.46666622px;font-family:Rajdhani;-inkscape-font-specification:'Rajdhani Medium';text-align:center;text-anchor:middle;fill:#0055d4;fill-opacity:1;stroke-width:0.26458332"
         id="path1397"
         inkscape:connector-curvature="0" />
      <path
         d="m 132.8114,127.47244 h -0.72814 q -0.5842,0 -0.92286,-0.3302 -0.3302,-0.3302 -0.3302,-0.92286 v -1.81187 q 0,-0.59267 0.3302,-0.92287 0.33866,-0.3302 0.92286,-0.3302 h 0.72814 q 0.5842,0 0.9144,0.3302 0.33866,0.3302 0.33866,0.92287 v 1.81187 q 0,0.59266 -0.33866,0.92286 -0.3302,0.3302 -0.9144,0.3302 z m -0.6604,-0.54186 h 0.59266 q 0.7112,0 0.7112,-0.72814 v -1.778 q 0,-0.72813 -0.7112,-0.72813 H 132.151 q -0.7112,0 -0.7112,0.72813 v 1.778 q 0,0.72814 0.7112,0.72814 z"
         style="font-style:normal;font-variant:normal;font-weight:500;font-stretch:normal;font-size:8.46666622px;font-family:Rajdhani;-inkscape-font-specification:'Rajdhani Medium';text-align:center;text-anchor:middle;fill:#0055d4;fill-opacity:1;stroke-width:0.26458332"
         id="path1399"
         inkscape:connector-curvature="0" />
      <path
         d="m 135.64773,127.47244 h -0.381 q -0.11853,0 -0.11853,-0.11853 v -4.08093 q 0,-0.11854 0.11853,-0.11854 h 0.381 q 0.11853,0 0.11853,0.11854 v 0.3302 h 0.0339 q 0.21167,-0.44874 0.8636,-0.44874 h 0.47413 q 0.57574,0 0.89747,0.3302 0.32173,0.3302 0.32173,0.92287 v 2.9464 q 0,0.11853 -0.11853,0.11853 h -0.381 q -0.11853,0 -0.11853,-0.11853 v -2.921 q 0,-0.7366 -0.7112,-0.7366 h -0.47414 q -0.381,0 -0.5842,0.2032 -0.2032,0.2032 -0.2032,0.57573 v 2.87867 q 0,0.11853 -0.11853,0.11853 z"
         style="font-style:normal;font-variant:normal;font-weight:500;font-stretch:normal;font-size:8.46666622px;font-family:Rajdhani;-inkscape-font-specification:'Rajdhani Medium';text-align:center;text-anchor:middle;fill:#0055d4;fill-opacity:1;stroke-width:0.26458332"
         id="path1401"
         inkscape:connector-curvature="0" />
      <path
         d="m 139.64162,123.69631 h -0.46567 q -0.11853,0 -0.11853,-0.11007 v -0.31326 q 0,-0.11854 0.11853,-0.11854 h 0.46567 q 0.0847,0 0.0847,-0.0762 v -0.72813 q 0,-0.11853 0.11854,-0.11853 h 0.381 q 0.11006,0 0.11006,0.11853 v 0.72813 q 0,0.0762 0.0931,0.0762 h 0.89746 q 0.127,0 0.127,0.11854 v 0.31326 q 0,0.11007 -0.127,0.11007 h -0.89746 q -0.0931,0 -0.0931,0.0762 v 2.4384 q 0,0.71967 0.74507,0.71967 h 0.3302 q 0.127,0 0.127,0.11853 v 0.31327 q 0,0.11006 -0.127,0.11006 h -0.4064 q -0.5842,0 -0.93133,-0.32173 -0.34714,-0.3302 -0.34714,-0.9144 v -2.4638 q 0,-0.0762 -0.0847,-0.0762 z"
         style="font-style:normal;font-variant:normal;font-weight:500;font-stretch:normal;font-size:8.46666622px;font-family:Rajdhani;-inkscape-font-specification:'Rajdhani Medium';text-align:center;text-anchor:middle;fill:#0055d4;fill-opacity:1;stroke-width:0.26458332"
         id="path1403"
         inkscape:connector-curvature="0" />
      <path
         d="m 145.40411,127.47244 h -1.79493 q -0.5842,0 -0.92287,-0.3302 -0.3302,-0.3302 -0.3302,-0.92286 v -1.81187 q 0,-0.59267 0.3302,-0.92287 0.33867,-0.3302 0.92287,-0.3302 h 0.7112 q 0.5842,0 0.9144,0.3302 0.3302,0.3302 0.3302,0.92287 v 1.07527 q 0,0.127 -0.11854,0.127 h -2.39606 q -0.0847,0 -0.0847,0.0762 v 0.51646 q 0,0.7366 0.7112,0.7366 h 1.7272 q 0.11853,0 0.11853,0.11854 v 0.3048 q 0,0.11006 -0.11853,0.11006 z m -2.35373,-2.3114 h 1.8288 q 0.0847,0 0.0847,-0.0847 v -0.65194 q 0,-0.72813 -0.7112,-0.72813 h -0.57573 q -0.7112,0 -0.7112,0.72813 v 0.65194 q 0,0.0847 0.0847,0.0847 z"
         style="font-style:normal;font-variant:normal;font-weight:500;font-stretch:normal;font-size:8.46666622px;font-family:Rajdhani;-inkscape-font-specification:'Rajdhani Medium';text-align:center;text-anchor:middle;fill:#0055d4;fill-opacity:1;stroke-width:0.26458332"
         id="path1405"
         inkscape:connector-curvature="0" />
      <path
         d="m 146.7773,127.47244 h -0.47414 q -0.13546,0 -0.0677,-0.11853 l 1.18533,-2.0828 -1.143,-1.99813 q -0.0677,-0.11854 0.0593,-0.11854 h 0.47413 q 0.11007,0 0.1778,0.11854 l 0.82974,1.6002 h 0.0339 l 0.7874,-1.6002 q 0.0593,-0.11854 0.1778,-0.11854 h 0.46567 q 0.14393,0 0.0593,0.11854 l -1.10914,1.98966 1.20227,2.09127 q 0.0762,0.11853 -0.0593,0.11853 h -0.49106 q -0.0931,0 -0.16087,-0.11853 l -0.87207,-1.66793 h -0.0339 l -0.87207,1.66793 q -0.0508,0.11853 -0.16933,0.11853 z"
         style="font-style:normal;font-variant:normal;font-weight:500;font-stretch:normal;font-size:8.46666622px;font-family:Rajdhani;-inkscape-font-specification:'Rajdhani Medium';text-align:center;text-anchor:middle;fill:#0055d4;fill-opacity:1;stroke-width:0.26458332"
         id="path1407"
         inkscape:connector-curvature="0" />
      <path
         d="m 150.39031,123.69631 h -0.46566 q -0.11854,0 -0.11854,-0.11007 v -0.31326 q 0,-0.11854 0.11854,-0.11854 h 0.46566 q 0.0847,0 0.0847,-0.0762 v -0.72813 q 0,-0.11853 0.11853,-0.11853 h 0.381 q 0.11007,0 0.11007,0.11853 v 0.72813 q 0,0.0762 0.0931,0.0762 h 0.89747 q 0.127,0 0.127,0.11854 v 0.31326 q 0,0.11007 -0.127,0.11007 h -0.89747 q -0.0931,0 -0.0931,0.0762 v 2.4384 q 0,0.71967 0.74507,0.71967 h 0.3302 q 0.127,0 0.127,0.11853 v 0.31327 q 0,0.11006 -0.127,0.11006 h -0.4064 q -0.5842,0 -0.93134,-0.32173 -0.34713,-0.3302 -0.34713,-0.9144 v -2.4638 q 0,-0.0762 -0.0847,-0.0762 z"
         style="font-style:normal;font-variant:normal;font-weight:500;font-stretch:normal;font-size:8.46666622px;font-family:Rajdhani;-inkscape-font-specification:'Rajdhani Medium';text-align:center;text-anchor:middle;fill:#0055d4;fill-opacity:1;stroke-width:0.26458332"
         id="path1409"
         inkscape:connector-curvature="0" />
    </g>
    <g
       aria-label="hygiene"
       style="font-style:normal;font-weight:normal;font-size:10.58333302px;line-height:1.25;font-family:sans-serif;letter-spacing:0px;word-spacing:0px;fill:#0055d4;fill-opacity:1;stroke:none;stroke-width:0.26458332"
       id="text1103"
       transform="translate(20.116667)">
      <path
         d="m 156.43497,138.96503 h -0.381 q -0.11853,0 -0.11853,-0.11854 v -5.715 q 0,-0.11853 0.11853,-0.11853 h 0.381 q 0.11853,0 0.11853,0.11853 v 1.96427 h 0.0339 q 0.21167,-0.44873 0.8636,-0.44873 h 0.47413 q 0.57574,0 0.89747,0.3302 0.32173,0.3302 0.32173,0.92286 v 2.9464 q 0,0.11854 -0.11853,0.11854 h -0.381 q -0.11853,0 -0.11853,-0.11854 v -2.921 q 0,-0.7366 -0.7112,-0.7366 h -0.47414 q -0.381,0 -0.5842,0.2032 -0.2032,0.2032 -0.2032,0.57574 v 2.87866 q 0,0.11854 -0.11853,0.11854 z"
         style="font-style:normal;font-variant:normal;font-weight:500;font-stretch:normal;font-size:8.46666622px;font-family:Rajdhani;-inkscape-font-specification:'Rajdhani Medium';text-align:center;text-anchor:middle;fill:#0055d4;fill-opacity:1;stroke-width:0.26458332"
         id="path1412"
         inkscape:connector-curvature="0" />
      <path
         d="m 160.61512,140.29429 h -0.37253 q -0.11854,0 -0.11854,-0.11853 v -0.31327 q 0,-0.11853 0.11854,-0.11853 h 0.21166 q 0.54187,0 0.762,-0.3048 0.1778,-0.24553 0.32174,-0.70273 h -0.24554 q -0.1016,0 -0.14393,-0.11854 l -1.2446,-3.85233 q -0.0339,-0.11853 0.0847,-0.11853 h 0.4064 q 0.11006,0 0.14393,0.11853 l 1.0922,3.48827 h 0.0339 l 1.0922,-3.48827 q 0.0254,-0.11853 0.13546,-0.11853 h 0.38947 q 0.14393,0 0.1016,0.127 l -1.26153,4.02166 q -0.21167,0.71967 -0.54187,1.10914 -0.32173,0.38946 -0.9652,0.38946 z"
         style="font-style:normal;font-variant:normal;font-weight:500;font-stretch:normal;font-size:8.46666622px;font-family:Rajdhani;-inkscape-font-specification:'Rajdhani Medium';text-align:center;text-anchor:middle;fill:#0055d4;fill-opacity:1;stroke-width:0.26458332"
         id="path1414"
         inkscape:connector-curvature="0" />
      <path
         d="m 165.82119,138.73643 h -0.47413 q -0.57573,0 -0.89747,-0.3302 -0.32173,-0.3302 -0.32173,-0.92287 v -1.58327 q 0,-0.59266 0.3302,-0.92286 0.33867,-0.3302 0.92287,-0.3302 h 1.83726 q 0.11854,0 0.11854,0.11853 v 4.19947 q 0,0.5842 -0.33867,0.9144 -0.3302,0.33866 -0.9144,0.33866 h -1.55787 q -0.127,0 -0.127,-0.11853 v -0.31327 q 0,-0.11853 0.127,-0.11853 h 1.48167 q 0.7112,0 0.7112,-0.72813 v -0.65194 h -0.0339 q -0.22013,0.44874 -0.8636,0.44874 z m 0.89747,-1.3208 v -2.15054 q 0,-0.0762 -0.0847,-0.0762 h -1.17686 q -0.7112,0 -0.7112,0.7366 v 1.53247 q 0,0.7366 0.7112,0.7366 h 0.47413 q 0.381,0 0.5842,-0.2032 0.2032,-0.2032 0.2032,-0.57573 z"
         style="font-style:normal;font-variant:normal;font-weight:500;font-stretch:normal;font-size:8.46666622px;font-family:Rajdhani;-inkscape-font-specification:'Rajdhani Medium';text-align:center;text-anchor:middle;fill:#0055d4;fill-opacity:1;stroke-width:0.26458332"
         id="path1416"
         inkscape:connector-curvature="0" />
      <path
         d="m 168.54548,133.93583 v -0.79587 q 0,-0.11853 0.11006,-0.11853 h 0.38947 q 0.11853,0 0.11853,0.11853 v 0.79587 q 0,0.11853 -0.11853,0.11853 h -0.38947 q -0.11006,0 -0.11006,-0.11853 z m 0,4.91066 v -4.08093 q 0,-0.11853 0.11006,-0.11853 h 0.38947 q 0.11853,0 0.11853,0.11853 v 4.08093 q 0,0.11854 -0.11853,0.11854 h -0.381 q -0.11853,0 -0.11853,-0.11854 z"
         style="font-style:normal;font-variant:normal;font-weight:500;font-stretch:normal;font-size:8.46666622px;font-family:Rajdhani;-inkscape-font-specification:'Rajdhani Medium';text-align:center;text-anchor:middle;fill:#0055d4;fill-opacity:1;stroke-width:0.26458332"
         id="path1418"
         inkscape:connector-curvature="0" />
      <path
         d="m 173.3351,138.96503 h -1.79494 q -0.5842,0 -0.92286,-0.3302 -0.3302,-0.3302 -0.3302,-0.92287 v -1.81187 q 0,-0.59266 0.3302,-0.92286 0.33866,-0.3302 0.92286,-0.3302 h 0.7112 q 0.5842,0 0.9144,0.3302 0.3302,0.3302 0.3302,0.92286 v 1.07527 q 0,0.127 -0.11853,0.127 h -2.39607 q -0.0847,0 -0.0847,0.0762 v 0.51647 q 0,0.7366 0.7112,0.7366 h 1.7272 q 0.11853,0 0.11853,0.11853 v 0.3048 q 0,0.11007 -0.11853,0.11007 z m -2.35374,-2.3114 h 1.8288 q 0.0847,0 0.0847,-0.0847 V 135.917 q 0,-0.72814 -0.7112,-0.72814 h -0.57573 q -0.7112,0 -0.7112,0.72814 v 0.65193 q 0,0.0847 0.0847,0.0847 z"
         style="font-style:normal;font-variant:normal;font-weight:500;font-stretch:normal;font-size:8.46666622px;font-family:Rajdhani;-inkscape-font-specification:'Rajdhani Medium';text-align:center;text-anchor:middle;fill:#0055d4;fill-opacity:1;stroke-width:0.26458332"
         id="path1420"
         inkscape:connector-curvature="0" />
      <path
         d="m 175.03848,138.96503 h -0.381 q -0.11853,0 -0.11853,-0.11854 v -4.08093 q 0,-0.11853 0.11853,-0.11853 h 0.381 q 0.11854,0 0.11854,0.11853 v 0.3302 h 0.0339 q 0.21167,-0.44873 0.8636,-0.44873 h 0.47414 q 0.57573,0 0.89746,0.3302 0.32174,0.3302 0.32174,0.92286 v 2.9464 q 0,0.11854 -0.11854,0.11854 h -0.381 q -0.11853,0 -0.11853,-0.11854 v -2.921 q 0,-0.7366 -0.7112,-0.7366 h -0.47413 q -0.381,0 -0.5842,0.2032 -0.2032,0.2032 -0.2032,0.57574 v 2.87866 q 0,0.11854 -0.11854,0.11854 z"
         style="font-style:normal;font-variant:normal;font-weight:500;font-stretch:normal;font-size:8.46666622px;font-family:Rajdhani;-inkscape-font-specification:'Rajdhani Medium';text-align:center;text-anchor:middle;fill:#0055d4;fill-opacity:1;stroke-width:0.26458332"
         id="path1422"
         inkscape:connector-curvature="0" />
      <path
         d="m 181.83483,138.96503 h -1.79493 q -0.5842,0 -0.92287,-0.3302 -0.3302,-0.3302 -0.3302,-0.92287 v -1.81187 q 0,-0.59266 0.3302,-0.92286 0.33867,-0.3302 0.92287,-0.3302 h 0.7112 q 0.5842,0 0.9144,0.3302 0.3302,0.3302 0.3302,0.92286 v 1.07527 q 0,0.127 -0.11853,0.127 h -2.39607 q -0.0847,0 -0.0847,0.0762 v 0.51647 q 0,0.7366 0.7112,0.7366 h 1.7272 q 0.11854,0 0.11854,0.11853 v 0.3048 q 0,0.11007 -0.11854,0.11007 z m -2.35373,-2.3114 h 1.8288 q 0.0847,0 0.0847,-0.0847 V 135.917 q 0,-0.72814 -0.7112,-0.72814 h -0.57574 q -0.7112,0 -0.7112,0.72814 v 0.65193 q 0,0.0847 0.0847,0.0847 z"
         style="font-style:normal;font-variant:normal;font-weight:500;font-stretch:normal;font-size:8.46666622px;font-family:Rajdhani;-inkscape-font-specification:'Rajdhani Medium';text-align:center;text-anchor:middle;fill:#0055d4;fill-opacity:1;stroke-width:0.26458332"
         id="path1424"
         inkscape:connector-curvature="0" />
    </g>
    <g
       transform="matrix(0.21846919,0,0,0.22778138,150.23629,22.809317)"
       id="layer1-9"
       inkscape:label="Layer 1">
      <g
         id="g1988"
         transform="translate(6.9204484,4.9781442)">
        <path
           style="fill:#00002b;fill-opacity:1;stroke:#000000;stroke-width:0.11844607px;stroke-linecap:butt;stroke-linejoin:miter;stroke-opacity:1"
           d="m 6.3747055,237.01314 0.03749,42.10863 21.9752745,16.54384 8.493138,0.0622 23.027579,-16.60605 -0.0065,-42.10862 z"
           id="path855"
           inkscape:connector-curvature="0" />
        <path
           style="fill:#ffffff;fill-opacity:1;stroke:none;stroke-width:0.009543;stroke-miterlimit:4;stroke-dasharray:none;stroke-opacity:1"
           d="m 28.347273,236.90921 h 8.533333 v 58.88544 h -8.533333 z"
           id="rect4620" />
        <g
           id="g1982">
          <path
             style="fill:#ffffff;fill-opacity:1;stroke:none;stroke-width:0.00996494;stroke-miterlimit:4;stroke-dasharray:none;stroke-opacity:1"
             d="m 6.283854,231.18489 h 53.625374 v 5.76414 H 6.283854 Z"
             id="rect11" />
        </g>
      </g>
    </g>
  </g>
</svg>
