<?xml version="1.0" encoding="UTF-8" standalone="no"?>
<!-- Created with Inkscape (http://www.inkscape.org/) -->

<svg
   xmlns:dc="http://purl.org/dc/elements/1.1/"
   xmlns:cc="http://creativecommons.org/ns#"
   xmlns:rdf="http://www.w3.org/1999/02/22-rdf-syntax-ns#"
   xmlns:svg="http://www.w3.org/2000/svg"
   xmlns="http://www.w3.org/2000/svg"
   xmlns:sodipodi="http://sodipodi.sourceforge.net/DTD/sodipodi-0.dtd"
   xmlns:inkscape="http://www.inkscape.org/namespaces/inkscape"
   width="79"
   height="79"
   viewBox="0 0 20.902083 20.902084"
   version="1.1"
   id="svg8"
   inkscape:version="0.92.4 (f8dce91, 2019-08-02)"
   sodipodi:docname="2fa.svg">
  <defs
     id="defs2">
    <linearGradient
       gradientUnits="userSpaceOnUse"
       x1="0"
       y1="78"
       x2="0"
       y2="0"
       id="mx-gradient-00ffff-1-00cccc-1-s-0">
      <stop
         offset="0%"
         style="stop-color:#00CCCC"
         id="stop956" />
      <stop
         offset="100%"
         style="stop-color:#00FFFF"
         id="stop958" />
    </linearGradient>
  </defs>
  <sodipodi:namedview
     id="base"
     pagecolor="#ffffff"
     bordercolor="#666666"
     borderopacity="1.0"
     inkscape:pageopacity="0.0"
     inkscape:pageshadow="2"
     inkscape:zoom="7.9195959"
     inkscape:cx="19.674578"
     inkscape:cy="33.092301"
     inkscape:document-units="mm"
     inkscape:current-layer="layer1"
     showgrid="false"
     units="px"
     inkscape:showpageshadow="false"
     inkscape:snap-global="false"
     inkscape:window-width="1920"
     inkscape:window-height="1013"
     inkscape:window-x="0"
     inkscape:window-y="0"
     inkscape:window-maximized="1" />
  <metadata
     id="metadata5">
    <rdf:RDF>
      <cc:Work
         rdf:about="">
        <dc:format>image/svg+xml</dc:format>
        <dc:type
           rdf:resource="http://purl.org/dc/dcmitype/StillImage" />
        <dc:title />
      </cc:Work>
    </rdf:RDF>
  </metadata>
  <g
     inkscape:label="Layer 1"
     inkscape:groupmode="layer"
     id="layer1"
     transform="translate(0,-276.0979)">
    <g
       id="g967"
       transform="matrix(0.26700625,0,0,0.26700625,0.07559573,276.19239)">
      <path
         style="fill:url(#mx-gradient-00ffff-1-00cccc-1-s-0);stroke:none"
         inkscape:connector-curvature="0"
         d="M 0,0 H 78 V 78 H 0 Z"
         pointer-events="none"
         id="path963" />
      <path
         style="fill:#ffffff;stroke:none"
         inkscape:connector-curvature="0"
         d="m 12.26,15.26 c -2.45,0 -4.46,2.01 -4.46,4.46 v 32.37 c 0,2.02 1.37,3.75 3.25,4.29 l 0.7,-2.33 c -0.89,-0.23 -1.51,-1 -1.51,-1.96 V 19.72 c 0,-1.14 0.88,-2.02 2.02,-2.02 h 48.52 c 0.99,0 1.8,0.68 1.98,1.62 l 2.31,-0.8 c -0.53,-1.87 -2.26,-3.26 -4.29,-3.26 z m 6.3,6.24 c -2.49,0 -4.53,2.03 -4.53,4.52 v 32.19 c 0,2.49 2.04,4.53 4.53,4.53 h 47.12 c 2.48,0 4.52,-2.04 4.52,-4.53 V 26.02 c 0,-2.49 -2.04,-4.52 -4.52,-4.52 z m 0,2.43 h 47.12 c 1.18,0 2.08,0.91 2.08,2.09 v 8.03 h -3.88 v -5.1 c 0,-0.33 -0.13,-0.64 -0.36,-0.87 -0.22,-0.22 -0.53,-0.35 -0.86,-0.35 h -23.6 c -0.32,0 -0.63,0.13 -0.86,0.35 -0.23,0.23 -0.36,0.54 -0.36,0.87 v 5.1 H 16.47 v -8.03 c 0,-1.18 0.91,-2.09 2.09,-2.09 z m 21.72,6.24 h 21.16 v 16.95 c -0.2,-0.3 -0.43,-0.59 -0.66,-0.88 -1.2,-1.52 -2.78,-2.91 -4.67,-3.79 0.94,-1.17 1.5,-2.64 1.5,-4.25 0,-3.73 -3.06,-6.8 -6.8,-6.8 -3.74,0 -6.79,3.07 -6.79,6.8 0,1.66 0.59,3.18 1.59,4.36 -2.18,1.08 -4.03,2.71 -5.33,4.88 z m 10.53,3.67 c 2.42,0 4.36,1.94 4.36,4.36 0,2.43 -1.94,4.36 -4.36,4.36 -2.42,0 -4.35,-1.93 -4.35,-4.36 0,-2.42 1.93,-4.36 4.35,-4.36 z m -34.34,2.64 h 21.37 v 18.73 c 0,0.32 0.13,0.63 0.36,0.86 0.23,0.23 0.54,0.36 0.86,0.36 h 23.6 c 0.33,0 0.64,-0.13 0.86,-0.36 0.23,-0.23 0.36,-0.54 0.36,-0.86 V 36.48 h 3.88 v 21.73 c 0,1.18 -0.9,2.09 -2.08,2.09 H 18.56 c -1.18,0 -2.09,-0.91 -2.09,-2.09 z m 2.55,6.3 v 2.44 h 12.49 v -2.44 z m 34.91,1.46 c 1.94,0.54 3.69,1.94 4.95,3.51 1.31,1.65 2.03,3.59 2.03,4.41 v 1.83 H 40.96 v -1.57 c 0.87,-4.31 3.33,-6.85 6.81,-8.14 0.92,0.46 1.95,0.72 3.04,0.72 1.13,0 2.19,-0.28 3.12,-0.76 z m -34.92,4.8 v 2.44 h 8.69 v -2.44 z m 10.02,0 v 2.44 h 3.69 v -2.44 z"
         pointer-events="none"
         id="path965" />
    </g>
    <rect
       style="fill:#00cdcd;fill-rule:evenodd;stroke-width:0.26458332;fill-opacity:1"
       id="rect1548"
       width="16.725447"
       height="12.945683"
       x="2.0788691"
       y="280.32178" />
    <rect
       y="-1.0937278"
       x="-297.1055"
       height="21.096949"
       width="20.94603"
       id="rect3024"
       style="fill:#004455;fill-opacity:1;fill-rule:evenodd;stroke-width:0.37798262"
       transform="matrix(-0.00389919,-0.9999924,0.99999735,-0.00230267,0,0)" />
    <g
       transform="matrix(0.01925477,0,0,0.02149565,7.2623432,282.06986)"
       id="g4659"
       style="fill:#ffffff">
      <g
         id="g4657"
         style="fill:#ffffff">
        <path
           inkscape:connector-curvature="0"
           d="m 56.707,96.158 c 4.287,0 7.948,-2.674 9.419,-6.43 2.728,-2.424 8.614,-7.621 12.529,-11.057 0.07,-0.062 0.137,-0.121 0.207,-0.188 0.991,-0.936 44.981,-42.437 52.866,-49.873 l 45.706,-13.954 55.066,28.623 16.398,26.541 11.841,35.411 4.113,13.986 c -1.813,2.029 -2.922,4.685 -2.922,7.607 0,6.304 5.126,11.432 11.43,11.432 6.3,0 11.43,-5.128 11.43,-11.432 0,-4.303 -2.396,-8.056 -5.92,-10.008 l -4.624,-15.699 c -0.02,-0.074 -0.044,-0.161 -0.071,-0.238 L 262.027,64.567 c -0.171,-0.515 -0.397,-1.008 -0.685,-1.464 l -17.844,-28.9 c -0.67,-1.082 -1.621,-1.969 -2.751,-2.554 L 181.394,0.796 c -1.644,-0.849 -3.553,-1.03 -5.325,-0.491 L 126.022,15.59 c -1.035,0.317 -1.992,0.869 -2.779,1.617 l -51.764,48.84 c -0.842,0.791 -1.543,1.451 -2.12,2.043 l -0.022,-0.022 c 0,0 -3.571,3.14 -7.124,6.28 -0.802,0.705 -1.595,1.401 -2.348,2.069 -0.992,-0.323 -2.048,-0.501 -3.155,-0.501 -5.575,0 -10.116,4.538 -10.116,10.116 -0.003,5.585 4.538,10.126 10.113,10.126 z m 216.649,37.059 c -3.524,0 -6.389,-2.868 -6.389,-6.389 0,-3.521 2.864,-6.384 6.389,-6.384 3.519,0 6.383,2.862 6.383,6.384 0,3.522 -2.864,6.389 -6.383,6.389 z M 56.707,80.954 c 2.812,0 5.085,2.274 5.085,5.077 0,2.801 -2.274,5.082 -5.085,5.082 -2.799,0 -5.073,-2.281 -5.073,-5.082 -10e-4,-2.8 2.273,-5.077 5.073,-5.077 z"
           id="path4639"
           style="fill:#ffffff" />
        <path
           inkscape:connector-curvature="0"
           d="m 69.095,201.496 c 19.893,-7.136 91.263,-35.799 133.522,-92.792 4.688,-0.876 8.251,-4.997 8.251,-9.941 0,-5.58 -4.534,-10.125 -10.119,-10.125 -5.585,0 -10.13,4.544 -10.13,10.125 0,0.722 0.082,1.422 0.227,2.101 -39.203,52.453 -105.102,79.548 -125.378,86.93 -1.512,-0.897 -3.28,-1.424 -5.161,-1.424 -5.586,0 -10.124,4.537 -10.124,10.119 0,5.582 4.538,10.123 10.124,10.123 3.755,0 7.039,-2.06 8.788,-5.116 z M 200.749,93.681 c 2.799,0 5.078,2.274 5.078,5.079 0,2.799 -2.279,5.08 -5.078,5.08 -2.807,0 -5.082,-2.281 -5.082,-5.08 0,-2.805 2.282,-5.079 5.082,-5.079 z M 60.307,201.574 c -2.804,0 -5.085,-2.286 -5.085,-5.085 0,-2.799 2.281,-5.082 5.085,-5.082 2.8,0 5.081,2.283 5.081,5.082 -0.001,2.803 -2.282,5.085 -5.081,5.085 z"
           id="path4641"
           style="fill:#ffffff" />
        <path
           inkscape:connector-curvature="0"
           d="m 81.353,235.505 84.806,-47.578 c 0.514,-0.284 0.985,-0.633 1.403,-1.033 l 76.911,-73.014 c 2.632,-2.495 2.939,-6.577 0.723,-9.448 l -30.8,-39.709 c -2.043,-2.641 -5.653,-3.48 -8.654,-2.03 L 156.99,86.325 c -0.512,0.25 -0.986,0.561 -1.417,0.922 l -56.16,46.495 c -2.853,1.672 -19.536,11.228 -37.769,16.859 -1.578,-1.02 -3.455,-1.619 -5.474,-1.619 -5.583,0 -10.124,4.544 -10.124,10.123 0,5.587 4.541,10.119 10.124,10.119 3.638,0 6.822,-1.93 8.61,-4.816 21.965,-6.6 41.497,-18.311 42.359,-18.832 0.298,-0.183 0.582,-0.385 0.849,-0.603 l 55.929,-46.313 42.84,-20.763 23.367,30.141 -71.64,68.011 -85.291,47.842 c -0.592,-0.106 -1.194,-0.175 -1.819,-0.175 -5.582,0 -10.128,4.545 -10.128,10.126 0,5.585 4.546,10.12 10.128,10.12 5.021,0 9.18,-3.666 9.979,-8.457 z M 56.175,164.184 c -2.807,0 -5.082,-2.281 -5.082,-5.082 0,-2.803 2.275,-5.077 5.082,-5.077 2.799,0 5.078,2.274 5.078,5.077 0,2.801 -2.282,5.082 -5.078,5.082 z m 15.201,74.74 c -2.803,0 -5.084,-2.282 -5.084,-5.082 0,-2.803 2.281,-5.081 5.084,-5.081 2.801,0 5.082,2.278 5.082,5.081 0.003,2.8 -2.281,5.082 -5.082,5.082 z"
           id="path4643"
           style="fill:#ffffff" />
        <path
           inkscape:connector-curvature="0"
           d="m 213.534,311.022 c -0.691,0 -1.369,0.075 -2.026,0.208 L 177.8,293.627 c -2.405,-1.252 -5.312,-1.022 -7.487,0.596 l -26.002,19.366 c -1.03,-0.359 -2.13,-0.558 -3.284,-0.558 -5.585,0 -10.123,4.541 -10.123,10.122 0,5.582 4.538,10.127 10.123,10.127 4.394,0 8.131,-2.824 9.533,-6.735 l 24.633,-18.35 28.394,14.825 c 0.887,4.691 5.007,8.247 9.948,8.247 5.585,0 10.123,-4.538 10.123,-10.119 -10e-4,-5.585 -4.539,-10.126 -10.124,-10.126 z m -72.507,17.213 c -2.803,0 -5.083,-2.275 -5.083,-5.078 0,-2.803 2.281,-5.078 5.083,-5.078 2.801,0 5.082,2.275 5.082,5.078 0.003,2.803 -2.281,5.078 -5.082,5.078 z m 72.507,-2.005 c -2.803,0 -5.079,-2.279 -5.079,-5.082 0,-2.8 2.276,-5.085 5.079,-5.085 2.799,0 5.082,2.285 5.082,5.085 0,2.803 -2.283,5.082 -5.082,5.082 z"
           id="path4645"
           style="fill:#ffffff" />
        <path
           inkscape:connector-curvature="0"
           d="m 238.889,275.104 c -1.434,0 -2.796,0.301 -4.031,0.842 L 181.842,249.13 c -2.231,-1.122 -4.891,-0.989 -6.995,0.353 -1.845,1.184 -40.109,25.687 -58.139,37.794 -1.02,-0.346 -2.11,-0.54 -3.244,-0.54 -5.583,0 -10.128,4.537 -10.128,10.115 0,5.592 4.544,10.13 10.128,10.13 4.481,0 8.28,-2.93 9.611,-6.975 14.294,-9.653 45.63,-29.807 55.988,-36.449 l 50.467,25.522 c 1.52,3.676 5.137,6.276 9.359,6.276 5.585,0 10.123,-4.545 10.123,-10.119 0,-5.596 -4.538,-10.133 -10.123,-10.133 z m -125.426,26.833 c -2.805,0 -5.085,-2.276 -5.085,-5.086 0,-2.796 2.281,-5.074 5.085,-5.074 2.799,0 5.08,2.278 5.08,5.074 0,2.809 -2.28,5.086 -5.08,5.086 z m 125.426,-11.625 c -2.803,0 -5.078,-2.283 -5.078,-5.082 0,-2.803 2.275,-5.082 5.078,-5.082 2.803,0 5.082,2.279 5.082,5.082 0,2.798 -2.28,5.082 -5.082,5.082 z"
           id="path4647"
           style="fill:#ffffff" />
        <path
           inkscape:connector-curvature="0"
           d="m 258.152,241.135 c -1.41,0 -2.741,0.287 -3.963,0.808 L 186.751,204.96 c -2.159,-1.181 -4.78,-1.156 -6.919,0.082 L 89.95,256.928 c -1.059,-0.376 -2.187,-0.589 -3.369,-0.589 -5.578,0 -10.123,4.542 -10.123,10.123 0,5.578 4.544,10.119 10.123,10.119 4.476,0 8.282,-2.922 9.609,-6.957 l 87.256,-50.374 65.336,35.823 c 1.513,3.692 5.137,6.3 9.37,6.3 5.581,0 10.126,-4.534 10.126,-10.119 0,-5.574 -4.545,-10.119 -10.126,-10.119 z M 81.497,266.466 c 0,-2.803 2.281,-5.086 5.083,-5.086 2.801,0 5.082,2.283 5.082,5.086 0,2.799 -2.281,5.075 -5.082,5.075 -2.802,0 -5.083,-2.279 -5.083,-5.075 z m 176.655,-10.127 c -2.807,0 -5.086,-2.282 -5.086,-5.081 0,-2.803 2.279,-5.086 5.086,-5.086 2.799,0 5.078,2.283 5.078,5.086 0,2.803 -2.279,5.081 -5.078,5.081 z"
           id="path4649"
           style="fill:#ffffff" />
        <path
           inkscape:connector-curvature="0"
           d="m 264.449,202.892 c -0.866,0 -1.697,0.124 -2.502,0.325 -6.293,-3.326 -12.583,-6.652 -18.873,-9.972 -0.537,-0.284 -1.081,-0.571 -1.608,-0.855 -0.137,-0.075 -0.223,-0.113 -0.294,-0.147 -0.11,-0.096 -0.236,-0.212 -0.404,-0.359 -2.591,-2.286 -4.709,-5.126 -6.704,-7.926 -1.831,-2.563 -3.569,-5.212 -5.201,-7.912 0.838,-1.478 1.324,-3.179 1.324,-4.996 0,-5.578 -4.541,-10.121 -10.119,-10.121 -5.589,0 -10.134,4.543 -10.134,10.121 0,3.535 1.828,6.646 4.579,8.463 2.279,3.96 4.743,7.823 7.357,11.574 3.519,5.048 7.58,10.916 13.162,13.859 6.513,3.446 13.038,6.896 19.561,10.342 1.041,4.49 5.055,7.851 9.856,7.851 5.581,0 10.129,-4.541 10.129,-10.123 0,-5.579 -4.548,-10.124 -10.129,-10.124 z m -44.382,-36.918 c 2.799,0 5.075,2.275 5.075,5.078 0,2.804 -2.276,5.082 -5.075,5.082 -2.81,0 -5.086,-2.278 -5.086,-5.082 0,-2.803 2.277,-5.078 5.086,-5.078 z m 44.382,52.123 c -2.807,0 -5.082,-2.279 -5.082,-5.082 0,-2.799 2.275,-5.078 5.082,-5.078 2.796,0 5.078,2.279 5.078,5.078 0,2.802 -2.282,5.082 -5.078,5.082 z"
           id="path4651"
           style="fill:#ffffff" />
        <path
           inkscape:connector-curvature="0"
           d="m 277.111,164.432 c -1.027,0 -2.009,0.154 -2.943,0.438 l -3.908,-2.786 c -1.865,-1.324 -3.73,-2.652 -5.599,-3.981 -0.038,-0.028 -0.075,-0.058 -0.116,-0.084 -3.21,-4.692 -6.42,-9.387 -9.623,-14.081 0.469,-1.167 0.732,-2.435 0.732,-3.766 0,-5.583 -4.545,-10.125 -10.123,-10.125 -5.585,0 -10.126,4.542 -10.126,10.125 0,4.22 2.598,7.835 6.272,9.356 3.84,5.621 7.673,11.238 11.52,16.856 2.101,3.069 6.152,5.194 9.137,7.323 1.677,1.194 3.36,2.392 5.037,3.59 1.198,4.254 5.106,7.378 9.74,7.378 5.581,0 10.122,-4.541 10.122,-10.119 0.004,-5.58 -4.537,-10.124 -10.122,-10.124 z m -31.573,-29.345 c 2.8,0 5.075,2.277 5.075,5.082 0,2.799 -2.275,5.08 -5.075,5.08 -2.806,0 -5.085,-2.281 -5.085,-5.08 -0.007,-2.801 2.279,-5.082 5.085,-5.082 z m 31.573,44.552 c -2.807,0 -5.082,-2.282 -5.082,-5.082 0,-2.803 2.275,-5.082 5.082,-5.082 2.803,0 5.078,2.279 5.078,5.082 0.007,2.799 -2.275,5.082 -5.078,5.082 z"
           id="path4653"
           style="fill:#ffffff" />
        <path
           inkscape:connector-curvature="0"
           d="m 173.434,36.646 c -17.828,11.589 -35.651,23.173 -53.473,34.766 -7.878,5.119 -14.599,11.887 -21.637,18.093 -5.09,4.488 -10.186,8.981 -15.282,13.475 -0.074,0.062 -0.144,0.125 -0.221,0.192 -0.207,0.15 -0.613,0.441 -1.114,0.732 -3.866,2.284 -7.797,4.454 -11.8,6.483 -1.752,0.883 -3.525,1.723 -5.32,2.521 -0.063,0.024 -0.104,0.041 -0.15,0.062 -0.091,0.04 -0.185,0.074 -0.277,0.11 -1.679,-1.237 -3.746,-1.977 -5.992,-1.977 -5.578,0 -10.123,4.538 -10.123,10.12 0,5.583 4.544,10.124 10.123,10.124 3.287,0 6.203,-1.574 8.051,-4.005 8.249,-2.803 16.084,-7.333 23.501,-11.764 3.754,-2.247 6.995,-5.862 10.248,-8.737 5.996,-5.284 11.988,-10.564 17.98,-15.85 1.979,-1.749 3.966,-3.498 5.954,-5.246 l 0.284,-0.252 c 18.974,-12.338 37.954,-24.681 56.926,-37.019 1.376,0.542 2.868,0.851 4.429,0.851 6.7,0 12.142,-5.445 12.142,-12.139 0,-6.697 -5.441,-12.145 -12.142,-12.145 -6.506,-0.002 -11.82,5.155 -12.107,11.605 z M 53.095,121.221 c 0,-2.803 2.281,-5.081 5.077,-5.081 2.801,0 5.082,2.278 5.082,5.081 0,2.804 -2.281,5.078 -5.082,5.078 -2.797,0.003 -5.077,-2.271 -5.077,-5.078 z m 139.544,-84.04 c 0,3.912 -3.176,7.096 -7.091,7.096 -3.915,0 -7.098,-3.188 -7.098,-7.096 0,-3.918 3.183,-7.099 7.098,-7.099 3.915,0.003 7.091,3.186 7.091,7.099 z"
           id="path4655"
           style="fill:#ffffff" />
      </g>
    </g>
    <g
       transform="matrix(0.03937218,0,0,0.03591545,1.3292977,278.24165)"
       id="g1013"
       style="fill:#f9f9f9">
      <g
         id="g1011"
         style="fill:#f9f9f9">
        <path
           inkscape:connector-curvature="0"
           d="m 116.029,50.899 v 361.088 c 0,1.635 1.328,2.96 2.963,2.96 h 221.263 c 1.635,0 2.961,-1.325 2.961,-2.96 V 50.899 c 0,-1.635 -1.326,-2.96 -2.961,-2.96 H 118.992 c -1.635,-10e-4 -2.963,1.325 -2.963,2.96 z m 5.926,2.963 h 215.34 v 355.164 h -215.34 z"
           id="path965-3"
           style="fill:#f9f9f9" />
        <path
           inkscape:connector-curvature="0"
           d="M 246.647,418.141 H 214.74 c -5.657,0 -10.263,4.605 -10.263,10.252 v 6.383 c 0,5.657 4.605,10.258 10.263,10.258 h 31.907 c 5.657,0 10.263,-4.605 10.263,-10.258 v -6.383 c -0.01,-5.646 -4.605,-10.252 -10.263,-10.252 z m 4.332,16.635 c 0,2.387 -1.945,4.332 -4.342,4.332 h -31.905 c -2.394,0 -4.336,-1.945 -4.336,-4.332 v -6.383 c 0,-2.387 1.942,-4.326 4.336,-4.326 h 31.905 c 2.396,0 4.342,1.939 4.342,4.326 z"
           id="path967"
           style="fill:#f9f9f9" />
        <path
           inkscape:connector-curvature="0"
           d="m 203.797,29.704 h 57.135 c 2.56,0 4.637,-2.077 4.637,-4.636 0,-2.552 -2.077,-4.628 -4.637,-4.628 h -57.135 c -2.557,0 -4.636,2.077 -4.636,4.628 0,2.551 2.079,4.636 4.636,4.636 z m 0,-7.3 h 57.135 c 1.468,0 2.661,1.193 2.661,2.656 0,1.46 -1.193,2.661 -2.661,2.661 h -57.135 c -1.467,0 -2.661,-1.193 -2.661,-2.661 0,-1.471 1.194,-2.656 2.661,-2.656 z"
           id="path969"
           style="fill:#f9f9f9" />
        <circle
           cx="207.44"
           cy="25.066999"
           r="1.3279999"
           id="circle971"
           style="fill:#f9f9f9" />
        <circle
           cx="211.32001"
           cy="25.066999"
           r="1.3279999"
           id="circle973"
           style="fill:#f9f9f9" />
        <circle
           cx="215.189"
           cy="25.066999"
           r="1.3279999"
           id="circle975"
           style="fill:#f9f9f9" />
        <circle
           cx="219.062"
           cy="25.066999"
           r="1.3279999"
           id="circle977"
           style="fill:#f9f9f9" />
        <circle
           cx="222.94901"
           cy="25.066999"
           r="1.3279999"
           id="circle979"
           style="fill:#f9f9f9" />
        <circle
           cx="226.81799"
           cy="25.066999"
           r="1.3279999"
           id="circle981"
           style="fill:#f9f9f9" />
        <circle
           cx="230.69"
           cy="25.066999"
           r="1.3279999"
           id="circle983"
           style="fill:#f9f9f9" />
        <circle
           cx="234.562"
           cy="25.066999"
           r="1.3279999"
           id="circle985"
           style="fill:#f9f9f9" />
        <path
           inkscape:connector-curvature="0"
           d="m 238.441,23.74 c 0.731,0 1.325,0.594 1.325,1.328 0,0.734 -0.594,1.328 -1.325,1.328 -0.736,0 -1.33,-0.594 -1.33,-1.328 0,-0.734 0.594,-1.328 1.33,-1.328 z"
           id="path987"
           style="fill:#f9f9f9" />
        <path
           inkscape:connector-curvature="0"
           d="m 242.326,23.74 c 0.736,0 1.33,0.594 1.33,1.328 0,0.734 -0.594,1.328 -1.33,1.328 -0.731,0 -1.325,-0.594 -1.325,-1.328 0,-0.734 0.594,-1.328 1.325,-1.328 z"
           id="path989"
           style="fill:#f9f9f9" />
        <path
           inkscape:connector-curvature="0"
           d="m 246.195,23.74 c 0.736,0 1.331,0.594 1.331,1.328 0,0.734 -0.595,1.328 -1.331,1.328 -0.731,0 -1.325,-0.594 -1.325,-1.328 0,-0.734 0.594,-1.328 1.325,-1.328 z"
           id="path991"
           style="fill:#f9f9f9" />
        <path
           inkscape:connector-curvature="0"
           d="m 250.07,23.74 c 0.731,0 1.325,0.594 1.325,1.328 0,0.734 -0.594,1.328 -1.325,1.328 -0.736,0 -1.331,-0.594 -1.331,-1.328 0,-0.734 0.595,-1.328 1.331,-1.328 z"
           id="path993"
           style="fill:#f9f9f9" />
        <path
           inkscape:connector-curvature="0"
           d="m 253.939,23.74 c 0.736,0 1.325,0.594 1.325,1.328 0,0.734 -0.589,1.328 -1.325,1.328 -0.731,0 -1.325,-0.594 -1.325,-1.328 0,-0.734 0.594,-1.328 1.325,-1.328 z"
           id="path995"
           style="fill:#f9f9f9" />
        <path
           inkscape:connector-curvature="0"
           d="m 257.824,23.74 c 0.736,0 1.33,0.594 1.33,1.328 0,0.734 -0.594,1.328 -1.33,1.328 -0.731,0 -1.325,-0.594 -1.325,-1.328 0,-0.734 0.594,-1.328 1.325,-1.328 z"
           id="path997"
           style="fill:#f9f9f9" />
        <path
           inkscape:connector-curvature="0"
           d="m 310.143,23.25 c 1.777,0 3.22,1.444 3.22,3.225 0,1.78 -1.442,3.222 -3.22,3.222 -1.782,0 -3.225,-1.442 -3.225,-3.222 0,-1.781 1.442,-3.225 3.225,-3.225 z"
           id="path999"
           style="fill:#f9f9f9" />
        <path
           inkscape:connector-curvature="0"
           d="m 170.003,426.514 h -15.351 c -0.482,0 -0.861,0.387 -0.861,0.863 v 7.927 c 0,0.478 0.386,0.863 0.861,0.863 0.475,0 0.846,-0.386 0.846,-0.863 v -7.078 h 13.652 v 7.078 c 0,0.478 0.394,0.863 0.853,0.863 0.473,0 0.861,-0.386 0.861,-0.863 v -7.927 c 0.008,-0.476 -0.388,-0.863 -0.861,-0.863 z"
           id="path1001"
           style="fill:#f9f9f9" />
        <path
           inkscape:connector-curvature="0"
           d="m 165.87,429.84 h -7.086 c -0.472,0 -0.853,0.386 -0.853,0.858 0,0.478 0.389,0.858 0.853,0.858 h 7.086 c 0.482,0 0.863,-0.381 0.863,-0.858 0,-0.472 -0.381,-0.858 -0.863,-0.858 z"
           id="path1003"
           style="fill:#f9f9f9" />
        <path
           inkscape:connector-curvature="0"
           d="m 165.87,433.293 h -7.086 c -0.472,0 -0.853,0.396 -0.853,0.858 0,0.478 0.389,0.863 0.853,0.863 h 7.086 c 0.482,0 0.863,-0.386 0.863,-0.863 0,-0.461 -0.381,-0.858 -0.863,-0.858 z"
           id="path1005"
           style="fill:#f9f9f9" />
        <path
           inkscape:connector-curvature="0"
           d="m 300.51,428.317 h -5.911 l 0.178,-0.421 -3.011,1.274 3.011,1.27 -0.178,-0.412 h 5.911 c 1.792,0 3.239,1.407 3.239,3.144 0,1.742 -1.452,3.148 -3.239,3.148 h -5.799 c -0.473,0 -0.843,0.386 -0.843,0.854 0,0.472 0.37,0.858 0.843,0.858 h 5.799 c 2.731,0 4.956,-2.189 4.956,-4.865 0,-2.682 -2.225,-4.85 -4.956,-4.85 z"
           id="path1007"
           style="fill:#f9f9f9" />
        <path
           inkscape:connector-curvature="0"
           d="m 96.05,35.099 v 391.477 c 0,19.356 15.745,35.104 35.099,35.104 H 330.53 c 19.353,0 35.1,-15.747 35.1,-35.104 V 35.099 C 365.63,15.744 349.883,0 330.53,0 H 131.149 C 111.794,-0.007 96.05,15.737 96.05,35.099 Z m 257.738,0 v 391.477 c 0,12.821 -10.431,23.252 -23.247,23.252 H 131.149 c -12.819,0 -23.25,-10.431 -23.25,-23.252 V 35.099 c 0,-12.822 10.43,-23.25 23.25,-23.25 H 330.53 c 12.827,-0.007 23.258,10.428 23.258,23.25 z"
           id="path1009"
           style="fill:#f9f9f9" />
      </g>
    </g>
    <rect
       style="fill:#ffffff;fill-rule:evenodd;stroke-width:0.26458332"
       id="rect1697"
       width="0.56794775"
       height="13.964833"
       x="4.8108511"
       y="279.25995" />
    <rect
       y="279.25995"
       x="15.434814"
       height="13.964833"
       width="0.56794775"
       id="rect1699"
       style="fill:#ffffff;fill-rule:evenodd;stroke-width:0.26458332" />
    <path
       style="opacity:1;fill:#000055;fill-opacity:1;fill-rule:evenodd;stroke:none;stroke-width:1.08094275;stroke-miterlimit:4;stroke-dasharray:none;stroke-dashoffset:0;stroke-opacity:1;paint-order:stroke fill markers"
       d="M 0.26874657,76.403521 C 0.26275028,74.763536 0.18903542,56.972026 0.10493577,36.866834 0.02083612,16.761641 -0.04182376,0.29900763 -0.03430839,0.28320355 -0.02679303,0.26739947 17.908211,0.21541048 39.821257,0.16767245 L 79.663158,0.08087603 79.746373,24.88201 c 0.04577,13.640624 0.120362,31.427998 0.165764,39.527497 l 0.08255,14.726361 -13.435716,0.07716 c -7.389643,0.04244 -25.325527,0.09856 -39.857518,0.124723 L 0.27964891,79.385314 Z M 55.351143,70.651013 c 1.089462,-0.230917 1.769313,-0.586622 2.571827,-1.345606 1.075883,-1.017526 1.576872,-2.264525 1.576872,-3.924954 v -0.608155 h 0.505076 0.505077 V 38.382062 11.991827 h -0.540114 -0.540112 l -0.36608,-0.840314 C 58.404707,9.6388622 56.983411,8.5367369 55.269828,8.2096129 54.71924,8.1045053 50.250923,8.0753181 38.917984,8.1028022 l -15.59423,0.037818 -0.691598,0.2828742 c -1.499713,0.6134044 -2.544917,1.6177276 -3.037077,2.9182906 -0.215844,0.570379 -0.238477,0.587991 -0.803661,0.625393 l -0.581561,0.03849 v 26.383317 26.383317 h 0.56821 0.568211 v 1.068551 c 0,1.507693 0.316356,2.300954 1.314776,3.2968 0.85275,0.850553 1.834404,1.38119 2.875588,1.554409 0.369047,0.0614 7.489525,0.117289 15.823284,0.124201 12.584252,0.01044 15.294471,-0.01757 15.991217,-0.165246 z"
       id="path862"
       inkscape:connector-curvature="0"
       transform="matrix(0.26458333,0,0,0.26458333,0,276.0979)" />
    <path
       style="opacity:1;fill:#000055;fill-opacity:1;fill-rule:evenodd;stroke:none;stroke-width:1.08094275;stroke-miterlimit:4;stroke-dasharray:none;stroke-dashoffset:0;stroke-opacity:1;paint-order:stroke fill markers"
       d="m 23.165593,39.550051 0.03189,-24.085825 16.004604,-0.03205 16.004605,-0.03205 V 39.518001 63.635876 H 39.170198 23.133701 Z m 15.010883,9.858921 c 0.09531,-0.11607 0.58845,-0.56597 1.095859,-0.999779 l 0.922563,-0.788742 0.971473,0.568329 c 0.534311,0.31258 1.040562,0.663044 1.125004,0.778809 0.327044,0.448357 0.43471,0.526152 0.728172,0.526152 0.355245,0 0.696662,-0.426595 0.696662,-0.87047 0,-0.366798 -0.331247,-0.771028 -0.631819,-0.771028 -0.117629,0 -0.803972,-0.340927 -1.525204,-0.757615 -0.721234,-0.416688 -1.370996,-0.757614 -1.443915,-0.757614 -0.07292,0 -0.576813,0.369337 -1.119765,0.820749 -0.568652,0.472778 -1.10726,0.820749 -1.270399,0.820749 -0.640839,0 -0.978003,0.967808 -0.502736,1.443075 0.259518,0.259518 0.735809,0.253221 0.954105,-0.01262 z m -1.875001,-2.226209 c 0.16065,-0.245182 3.118415,-2.484494 3.953772,-2.993387 0.23548,-0.143451 0.45357,-0.05424 2.020305,0.826426 0.965981,0.542981 1.881463,1.119204 2.034405,1.280494 0.152942,0.161291 0.390308,0.293256 0.527479,0.293256 0.280488,0 0.772809,-0.556031 0.772809,-0.872816 0,-0.3827 -0.375807,-0.768682 -0.748419,-0.768682 -0.213466,0 -1.130114,-0.438237 -2.296338,-1.097849 -1.067576,-0.603816 -2.034827,-1.090784 -2.149445,-1.08215 -0.11462,0.0086 -1.147976,0.70154 -2.296346,1.539791 -1.148372,0.83825 -2.192987,1.524092 -2.321367,1.524092 -0.12838,0 -0.359705,0.08845 -0.514053,0.196563 -0.337284,0.236243 -0.384009,0.944713 -0.08221,1.246511 0.299266,0.299267 0.874504,0.251001 1.099409,-0.09225 z m -1.953627,-2.4765 c 0.187067,-0.202434 1.717671,-1.253834 3.401341,-2.336447 l 3.061221,-1.968385 2.305215,1.413698 c 1.267869,0.777535 2.43035,1.54483 2.583292,1.705102 0.341896,0.358279 0.714513,0.3721 1.047749,0.03886 0.492085,-0.492084 0.171618,-1.388959 -0.496297,-1.388959 -0.23264,0 -1.213226,-0.524238 -2.834233,-1.515229 -1.363188,-0.833376 -2.542826,-1.515229 -2.621416,-1.515229 -0.07859,0 -1.643277,0.965958 -3.477082,2.146574 -1.953577,1.257727 -3.459857,2.146574 -3.63768,2.146574 -0.340522,0 -0.69662,0.421743 -0.69662,0.825035 0,0.343972 0.4454,0.816463 0.769651,0.816463 0.140105,0 0.407792,-0.165627 0.594859,-0.36806 z m -1.254025,-2.520345 c 0.130215,-0.130215 0.258063,-0.29525 0.284106,-0.366746 0.02604,-0.07149 1.42897,-0.994362 3.117616,-2.050818 l 3.070266,-1.920828 2.86438,-3.027364 c 2.047458,-2.163957 2.874639,-3.123078 2.90035,-3.362967 0.05223,-0.487348 -2.275141,-3.809116 -2.666227,-3.805401 -0.150662,0.0014 -1.080599,0.443913 -2.066528,0.983291 -1.669006,0.913075 -1.941947,1.1182 -3.958784,2.975186 -1.895724,1.745472 -2.309267,2.064137 -3.312136,2.552244 -0.810678,0.394566 -1.304335,0.557744 -1.687313,0.557744 -0.607315,0 -0.802789,0.212491 -0.802789,0.872673 0,0.272126 0.09359,0.44552 0.320845,0.594423 0.3243,0.212489 0.433676,0.192941 1.068114,-0.190891 0.104172,-0.06302 0.790609,-0.407565 1.525415,-0.765649 1.235714,-0.602184 1.495944,-0.799603 3.466413,-2.629744 1.947053,-1.808392 2.265961,-2.051627 3.705486,-2.826215 l 1.575083,-0.84753 0.798448,1.153187 c 0.439147,0.634253 0.798448,1.199418 0.798448,1.255921 0,0.0565 -1.151953,1.322965 -2.559896,2.81436 l -2.559896,2.711624 -3.133122,1.959379 c -1.723217,1.077657 -3.234897,1.959378 -3.359289,1.959378 -0.532164,0 -0.768926,0.806975 -0.381331,1.299723 0.314572,0.399914 0.660806,0.436556 0.992341,0.10502 z m 14.253029,-1.929735 c 0.214159,-0.449072 0.01843,-0.951363 -0.439814,-1.128702 -1.23339,-0.477316 -1.955213,-0.956439 -2.364318,-1.569358 -0.31424,-0.470794 -0.406244,-0.724983 -0.356532,-0.985034 0.07656,-0.400476 -0.357365,-0.968946 -0.739609,-0.968946 -0.291261,0 -0.740523,0.482588 -0.740523,0.795455 0,0.346742 1.198729,2.285003 1.645858,2.661237 0.20695,0.174137 0.65331,0.467395 0.991912,0.651686 0.338602,0.184289 0.679454,0.475127 0.757447,0.646306 0.119702,0.262717 0.215366,0.305132 0.613674,0.272089 0.366248,-0.03038 0.507689,-0.11426 0.631905,-0.374733 z m -15.1226,-1.052039 c 0.114299,-0.10344 0.800626,-0.477649 1.525171,-0.831574 3.228433,-1.577024 5.726019,-3.487344 7.569743,-5.789843 0.476671,-0.595281 0.982166,-1.179877 1.123322,-1.299102 0.370558,-0.312984 0.457814,-0.797094 0.211442,-1.173107 -0.371101,-0.566371 -1.336834,-0.286955 -1.336834,0.386786 0,0.747557 -2.789455,3.608688 -4.90377,5.029776 -1.700461,1.142924 -3.846823,2.223637 -4.416281,2.223637 -0.552077,0 -0.907743,0.304512 -0.907743,0.777185 0,0.396736 0.387399,0.864313 0.716104,0.864313 0.116066,0 0.304546,-0.08463 0.418846,-0.188071 z m 15.853978,-1.88963 c 0.170464,-0.170463 0.309934,-0.419862 0.309934,-0.554221 0,-0.337728 -0.409993,-0.812542 -0.721426,-0.835486 -0.648142,-0.04775 -1.590949,-1.214578 -1.631799,-2.019534 -0.01928,-0.379889 -0.426909,-0.826511 -0.754355,-0.826511 -0.573901,0 -0.891786,1.046513 -0.449178,1.478742 0.127221,0.12424 0.439163,0.573304 0.693203,0.997921 0.254039,0.424617 0.66095,0.907596 0.904246,1.073287 0.243295,0.165691 0.442743,0.343872 0.443218,0.395958 0.0016,0.17161 0.502051,0.599778 0.701081,0.599778 0.107329,0 0.334613,-0.13947 0.505076,-0.309934 z m -0.195142,-3.730676 c 0.321611,-0.321611 0.32302,-0.890998 0.0037,-1.490213 -0.136867,-0.256827 -0.483602,-1.290863 -0.770522,-2.297859 -0.389049,-1.365433 -0.711576,-2.184015 -1.268653,-3.219861 l -0.74698,-1.38896 -2.172878,-1.257187 c -1.195083,-0.691453 -2.316275,-1.272119 -2.491539,-1.290369 -0.175265,-0.01825 -1.14951,0.263378 -2.164989,0.625841 l -1.846328,0.659024 -2.304047,2.43068 c -1.534144,1.618462 -2.390625,2.430679 -2.563147,2.430679 -0.380764,0 -0.720928,0.36671 -0.720928,0.777185 0,0.402327 0.388769,0.864313 0.727337,0.864313 0.122243,0 1.017175,-0.830871 1.988738,-1.846379 3.961082,-4.140253 3.341024,-3.621613 5.026077,-4.204003 0.820509,-0.283585 1.584508,-0.515609 1.697776,-0.515609 0.11327,0 1.072996,0.497184 2.132726,1.104854 l 1.926783,1.104854 0.622349,1.136422 c 0.414451,0.756797 0.798285,1.733414 1.149026,2.923546 0.549267,1.863781 0.571387,1.997244 0.440247,2.656367 -0.06499,0.326642 -0.019,0.464038 0.243006,0.726048 0.388294,0.388293 0.75113,0.411755 1.092259,0.07063 z M 32.164335,33.075936 c 0.04388,-0.071 0.430778,-0.305272 0.859768,-0.520599 0.540298,-0.271197 1.206805,-0.808554 2.168943,-1.748665 1.667194,-1.629024 5.217346,-4.231989 5.804087,-4.255546 1.114722,-0.04476 1.044692,-1.932392 -0.07169,-1.932392 -0.33948,0 -0.866058,0.485221 -0.87493,0.80621 -0.0021,0.07744 -0.925483,0.808331 -2.051872,1.624193 -1.12639,0.815862 -2.644602,2.053715 -3.373806,2.750784 -1.563857,1.494939 -2.211371,1.921116 -2.753979,1.812594 -0.719304,-0.143861 -1.204958,0.80236 -0.698851,1.361602 0.224658,0.248244 0.861452,0.313583 0.99233,0.101819 z"
       id="path864"
       inkscape:connector-curvature="0"
       transform="matrix(0.26458333,0,0,0.26458333,0,276.0979)" />
    <path
       style="opacity:1;fill:#000055;fill-opacity:1;fill-rule:evenodd;stroke:none;stroke-width:1.08094275;stroke-miterlimit:4;stroke-dasharray:none;stroke-dashoffset:0;stroke-opacity:1;paint-order:stroke fill markers"
       d="m 23.80691,69.061075 c -1.084985,-0.217072 -1.955263,-0.879184 -2.394002,-1.82137 l -0.296396,-0.636506 -0.0012,-27.070065 c -9.52e-4,-20.887727 0.03384,-27.188762 0.152324,-27.589792 0.09712,-0.328704 0.392684,-0.760306 0.804166,-1.17429 1.127076,-1.1339298 -0.16618,-1.0587243 17.548191,-1.0204631 15.440758,0.033351 15.526639,0.034937 16.093227,0.2971981 0.708306,0.327859 1.354296,0.962619 1.65636,1.627565 0.221128,0.486779 0.230828,1.639831 0.233486,27.754486 0.0023,23.099301 -0.02419,27.311137 -0.174361,27.670548 -0.277155,0.663327 -1.025397,1.403644 -1.749525,1.730994 l -0.661857,0.299201 -15.341692,0.01897 c -8.43793,0.01043 -15.57884,-0.02848 -15.868688,-0.08647 z m 18.571027,-0.676771 c 0.666096,-0.278312 0.833195,-0.625866 0.833195,-1.732985 0,-0.951129 -0.0082,-0.976195 -0.446336,-1.360865 l -0.446334,-0.391887 h -2.893854 c -3.074355,0 -3.374309,0.04844 -3.738144,0.603725 -0.317922,0.485211 -0.366329,1.642446 -0.09095,2.174194 0.414132,0.799665 0.768504,0.883466 3.736896,0.883688 1.958933,1.27e-4 2.730958,-0.04444 3.045523,-0.17587 z m 7.979009,-1.149759 c 0.188856,-0.288232 0.189538,-0.342073 0.0078,-0.619373 -0.163779,-0.24996 -0.324975,-0.311406 -0.910937,-0.34724 -0.391569,-0.02395 -0.775739,-0.004 -0.85371,0.04437 -0.20061,0.124396 0.09763,0.212902 0.861308,0.255599 0.579842,0.03242 0.631345,0.06105 0.631345,0.350971 0,0.291785 -0.05016,0.318561 -0.662913,0.353839 -0.8781,0.05056 -0.854664,0.277506 0.02866,0.277506 0.598338,0 0.719452,-0.04256 0.898406,-0.315672 z M 28.185113,66.792603 v -0.505076 h 1.010153 1.010152 v 0.505076 c 0,0.277792 0.05682,0.505076 0.126269,0.505076 0.06945,0 0.126269,-0.284105 0.126269,-0.631345 v -0.631345 h -1.26269 -1.262691 v 0.631345 c 0,0.34724 0.05682,0.631345 0.126269,0.631345 0.06945,0 0.126269,-0.227284 0.126269,-0.505076 z m 1.641498,0.252538 c 0,-0.06945 -0.284105,-0.126269 -0.631345,-0.126269 -0.34724,0 -0.631346,0.05682 -0.631346,0.126269 0,0.06945 0.284106,0.126269 0.631346,0.126269 0.34724,0 0.631345,-0.05682 0.631345,-0.126269 z m 0,-0.505076 c 0,-0.06945 -0.284105,-0.126269 -0.631345,-0.126269 -0.34724,0 -0.631346,0.05682 -0.631346,0.126269 0,0.06945 0.284106,0.126269 0.631346,0.126269 0.34724,0 0.631345,-0.05682 0.631345,-0.126269 z M 56.027443,39.518484 V 14.706612 L 39.241396,14.67458 c -13.345459,-0.02547 -16.806648,4.17e-4 -16.886555,0.126269 -0.116038,0.182762 -0.143321,49.091684 -0.02755,49.39337 0.06968,0.181578 1.639953,0.197213 16.888489,0.168164 l 16.811667,-0.03203 z M 44.403529,11.837462 c 0.252959,-0.361149 0.248019,-0.425524 -0.05597,-0.729518 -0.243098,-0.243099 -0.420897,-0.252539 -4.756715,-0.252539 -4.013988,0 -4.529307,0.02274 -4.73509,0.208974 -0.286529,0.259305 -0.29355,0.522677 -0.02194,0.822804 0.195136,0.215624 0.512369,0.230913 4.791064,0.230913 h 4.582091 z m 7.150146,0.08065 c 0.221474,-0.26686 5.05e-4,-0.620761 -0.387591,-0.620761 -0.388097,0 -0.609066,0.353901 -0.387592,0.620761 0.09129,0.109994 0.265703,0.199988 0.387592,0.199988 0.121888,0 0.296305,-0.08999 0.387591,-0.199988 z"
       id="path866"
       inkscape:connector-curvature="0"
       transform="matrix(0.26458333,0,0,0.26458333,0,276.0979)" />
    <path
       style="opacity:1;fill:#000055;fill-opacity:1;fill-rule:evenodd;stroke:none;stroke-width:1.08094275;stroke-miterlimit:4;stroke-dasharray:none;stroke-dashoffset:0;stroke-opacity:1;paint-order:stroke fill markers"
       d="m 36.544125,67.524964 c -0.08334,-0.08334 -0.151522,-0.479086 -0.151522,-0.879441 0,-0.590441 0.04613,-0.752605 0.244237,-0.85863 0.325377,-0.174137 5.120795,-0.174137 5.446172,0 0.198109,0.106025 0.244237,0.268189 0.244237,0.85863 0,0.400355 -0.06818,0.796103 -0.151523,0.879441 -0.214502,0.214501 -5.417099,0.214501 -5.631601,0 z"
       id="path868"
       inkscape:connector-curvature="0"
       transform="matrix(0.26458333,0,0,0.26458333,0,276.0979)" />
  </g>
</svg>
