<?xml version="1.0" encoding="UTF-8" standalone="no"?>
<!-- Created with Inkscape (http://www.inkscape.org/) -->

<svg
   xmlns:dc="http://purl.org/dc/elements/1.1/"
   xmlns:cc="http://creativecommons.org/ns#"
   xmlns:rdf="http://www.w3.org/1999/02/22-rdf-syntax-ns#"
   xmlns:svg="http://www.w3.org/2000/svg"
   xmlns="http://www.w3.org/2000/svg"
   xmlns:sodipodi="http://sodipodi.sourceforge.net/DTD/sodipodi-0.dtd"
   xmlns:inkscape="http://www.inkscape.org/namespaces/inkscape"
   viewBox="0 0 196.01494 26.019587"
   version="1.1"
   id="svg5353"
   inkscape:version="0.92.4 (33fec40, 2019-01-16)"
   sodipodi:docname="trasa-blackbg.svg">
  <defs
     id="defs5347" />
  <sodipodi:namedview
     id="base"
     pagecolor="#ffffff"
     bordercolor="#666666"
     borderopacity="1.0"
     inkscape:pageopacity="0.0"
     inkscape:pageshadow="2"
     inkscape:zoom="2.8"
     inkscape:cx="48.505234"
     inkscape:cy="55.185351"
     inkscape:document-units="mm"
     inkscape:current-layer="layer1"
     showgrid="false"
     inkscape:showpageshadow="false"
     units="in"
     showguides="true"
     inkscape:guide-bbox="true"
     inkscape:snap-others="false"
     inkscape:object-paths="false"
     inkscape:snap-nodes="false"
     inkscape:snap-global="false"
     fit-margin-top="0"
     fit-margin-left="0"
     fit-margin-right="0"
     fit-margin-bottom="0"
     inkscape:window-width="1920"
     inkscape:window-height="986"
     inkscape:window-x="1920"
     inkscape:window-y="27"
     inkscape:window-maximized="1">
    <sodipodi:guide
       position="96.75361,25.982844"
       orientation="0,1"
       id="guide5355"
       inkscape:locked="false" />
    <sodipodi:guide
       position="98.35723,1.1267778"
       orientation="0,1"
       id="guide5357"
       inkscape:locked="false" />
    <sodipodi:guide
       position="0.0020386484,13.421174"
       orientation="1,0"
       id="guide5359"
       inkscape:locked="false" />
    <sodipodi:guide
       position="35.281619,3.799471"
       orientation="1,0"
       id="guide5361"
       inkscape:locked="false" />
    <sodipodi:guide
       position="75.639322,0.32496675"
       orientation="1,0"
       id="guide5363"
       inkscape:locked="false" />
    <sodipodi:guide
       position="40.35974,-14.107586"
       orientation="1,0"
       id="guide5365"
       inkscape:locked="false" />
    <sodipodi:guide
       position="80.717443,13.153905"
       orientation="1,0"
       id="guide5381"
       inkscape:locked="false" />
    <sodipodi:guide
       position="115.72974,-1.0113813"
       orientation="1,0"
       id="guide5383"
       inkscape:locked="false" />
    <sodipodi:guide
       position="120.80786,19.033835"
       orientation="1,0"
       id="guide5395"
       inkscape:locked="false" />
    <sodipodi:guide
       position="155.55291,9.4121302"
       orientation="1,0"
       id="guide5397"
       inkscape:locked="false" />
    <sodipodi:guide
       position="160.63104,11.015748"
       orientation="1,0"
       id="guide5409"
       inkscape:locked="false" />
    <sodipodi:guide
       position="195.64334,-1.2786506"
       orientation="1,0"
       id="guide5411"
       inkscape:locked="false" />
    <sodipodi:guide
       position="107.27782,20.67465"
       orientation="0,1"
       id="guide5421"
       inkscape:locked="false" />
    <sodipodi:guide
       position="120.69597,16.327924"
       orientation="0,1"
       id="guide5431"
       inkscape:locked="false" />
    <sodipodi:guide
       position="131.27932,11.792209"
       orientation="0,1"
       id="guide5433"
       inkscape:locked="false" />
  </sodipodi:namedview>
  <metadata
     id="metadata5350">
    <rdf:RDF>
      <cc:Work
         rdf:about="">
        <dc:format>image/svg+xml</dc:format>
        <dc:type
           rdf:resource="http://purl.org/dc/dcmitype/StillImage" />
        <dc:title></dc:title>
      </cc:Work>
    </rdf:RDF>
  </metadata>
  <g
     inkscape:label="Layer 1"
     inkscape:groupmode="layer"
     id="layer1"
     transform="translate(-14.430516,-197.53902)">
    <rect
       style="fill:#000000;fill-rule:evenodd"
       id="rect847"
       width="195"
       height="25"
       x="15.501945"
       y="197.84431" />
    <rect
       style="fill:#ffffff;fill-opacity:1;stroke-width:0.29325774"
       id="rect5367"
       width="35.286991"
       height="5.2921233"
       x="14.430516"
       y="197.58319" />
    <rect
       style="fill:#ffffff;fill-opacity:1;stroke-width:0.31675714"
       id="rect5369"
       width="5.8799295"
       height="20.337498"
       x="29.666916"
       y="202.6539" />
    <rect
       style="fill:#ffffff;fill-opacity:1;stroke-width:0.26458332"
       id="rect5375"
       width="3.4745038"
       height="7.2162771"
       x="86.595329"
       y="202.92117" />
    <path
       id="rect5379"
       transform="matrix(0.26458333,0,0,0.26458333,14.430516,197.53902)"
       style="fill:#ffffff;fill-opacity:1;stroke-width:1.78006387"
       d="m 221.69922,36.332031 c -0.002,2.32e-4 -0.002,0.0017 -0.004,0.002 -0.0525,0.0076 -0.10536,0.01575 -0.1582,0.01953 -0.0497,0.0038 -0.0986,0.0078 -0.14844,0.0078 -0.0441,0.0017 -0.0887,0.0037 -0.13281,0.0039 -0.0458,9.07e-4 -0.0929,3.41e-4 -0.13867,0 -0.0466,-3.78e-4 -0.0921,-7e-6 -0.13867,-0.002 -0.0418,-0.0015 -0.0832,-0.0031 -0.125,-0.0039 -0.0435,-0.0016 -0.0874,-0.0034 -0.13086,-0.0039 -0.0468,-0.0021 -0.0939,-0.004 -0.14063,-0.0078 -0.008,-5.05e-4 -0.0156,-0.0014 -0.0234,-0.002 -0.14645,0.01214 -0.29288,0.02327 -0.43945,0.0332 -0.1745,0.0113 -0.3506,0.01769 -0.52539,0.02148 -0.1807,0.004 -0.36027,0.0079 -0.54102,0.0039 -0.0841,-0.003 -0.16788,-0.01248 -0.25195,-0.01758 l 2.61524,18.59375 66.64062,43.361328 L 284.3769,72.17377 229.32807,36.355411 c -0.21526,0.0313 -0.44353,0.05132 -0.69726,0.04492 l -0.5957,-0.01172 c -0.24102,-0.004 -0.48166,-0.01183 -0.72266,-0.01563 -0.23403,-0.004 -0.46911,-0.0078 -0.70312,-0.0078 -0.23059,-9.5e-4 -0.46082,-6.92e-4 -0.69141,-0.002 -0.22427,-8.7e-4 -0.44762,-0.002 -0.67188,0 -0.22942,0.001 -0.46003,4.02e-4 -0.68945,0.002 -0.23127,10e-4 -0.46208,0.0029 -0.69336,0.0039 -0.23146,10e-4 -0.46191,0.0029 -0.69336,0.0039 -0.24102,10e-4 -0.48362,0.0021 -0.72461,-0.0039 -0.24876,-0.008 -0.49603,-0.01751 -0.74414,-0.03711 z"
       inkscape:connector-curvature="0" />
    <rect
       style="fill:#ffffff;fill-opacity:1;stroke-width:0.26860335"
       id="rect5385"
       width="5.8881154"
       height="24.7563"
       x="138.19554"
       y="171.05997"
       transform="matrix(0.9759164,0.21814486,-0.20596392,0.97855959,0,0)" />
    <rect
       style="fill:#ffffff;fill-opacity:1;stroke-width:0.26458332"
       id="rect5387"
       width="5.0781207"
       height="25.123335"
       x="72.59079"
       y="220.9037"
       transform="rotate(-13.080304)" />
    <rect
       style="fill:#ffffff;fill-opacity:1;stroke-width:0.26458332"
       id="rect5393"
       width="14.967093"
       height="4.543582"
       x="105.55663"
       y="207.25075" />
    <rect
       style="fill:#ffffff;fill-opacity:1;stroke-width:0.26458332"
       id="rect5401"
       width="4.0090427"
       height="6.9490075"
       x="135.24376"
       y="202.11935" />
    <rect
       style="fill:#ffffff;fill-opacity:1;stroke-width:0.26768371"
       id="rect5403"
       width="34.839531"
       height="4.6380758"
       x="135.22215"
       y="207.25955" />
    <rect
       transform="matrix(0.97600234,0.21776001,-0.20632984,0.9784825,0,0)"
       y="153.93126"
       x="215.6834"
       height="24.712395"
       width="5.8875971"
       id="rect5413"
       style="fill:#ffffff;fill-opacity:1;stroke-width:0.26835325" />
    <rect
       transform="rotate(-13.080304)"
       y="238.808"
       x="149.64992"
       height="25.123335"
       width="5.0781207"
       id="rect5415"
       style="fill:#ffffff;fill-opacity:1;stroke-width:0.26458332" />
    <rect
       y="207.22711"
       x="184.52669"
       height="4.543582"
       width="14.967093"
       id="rect5419"
       style="fill:#ffffff;fill-opacity:1;stroke-width:0.26458332" />
    <rect
       y="197.58319"
       x="54.755848"
       height="5.3157468"
       width="35.334236"
       id="rect5423"
       style="fill:#ffffff;fill-opacity:1;stroke-width:0.29410824" />
    <rect
       style="fill:#ffffff;fill-opacity:1;stroke-width:0.25070944"
       id="rect5425"
       width="25.790337"
       height="5.2921233"
       x="99.711395"
       y="197.58319" />
    <rect
       style="fill:#ffffff;fill-opacity:1;stroke-width:0.29099125"
       id="rect5427"
       width="34.743649"
       height="5.2921233"
       x="135.24115"
       y="197.58319" />
    <rect
       y="197.60681"
       x="178.71785"
       height="5.2684999"
       width="25.908455"
       id="rect5429"
       style="fill:#ffffff;fill-opacity:1;stroke-width:0.25072142" />
    <path
       id="rect5435"
       style="fill:#ffffff;fill-opacity:1;stroke-width:0.26783913"
       d="m 55.658101,207.16502 v 4.7008 h 34.414436 v -4.7008 H 75.036764 c -0.0368,0.003 -0.07371,0.006 -0.114205,0.005 l -0.157615,-0.003 c -0.03189,-5.4e-4 -0.06374,-0.001 -0.0956,-0.002 h -2.024166 c -0.03786,0.002 -0.07586,0.004 -0.113686,0.005 -0.04781,0.001 -0.09532,0.002 -0.143145,0.001 -0.02675,-0.001 -0.05338,-0.004 -0.0801,-0.006 -0.04312,0.005 -0.08759,0.008 -0.137461,0 z"
       inkscape:connector-curvature="0" />
    <rect
       y="202.63028"
       x="54.764538"
       height="19.770535"
       width="5.8799295"
       id="rect5437"
       style="fill:#ffffff;fill-opacity:1;stroke-width:0.3123107" />
    <rect
       style="fill:#ffffff;fill-opacity:1;stroke-width:0.21611819"
       id="rect5439"
       width="5.8799295"
       height="9.4673252"
       x="164.22644"
       y="213.00436" />
    <rect
       y="217.30882"
       x="135.12303"
       height="5.1267586"
       width="34.790897"
       id="rect5441"
       style="fill:#ffffff;fill-opacity:1;stroke-width:0.28660348" />
  </g>
</svg>
