<?xml version="1.0" encoding="UTF-8" standalone="no"?>
<!-- Created with Inkscape (http://www.inkscape.org/) -->

<svg
   xmlns:dc="http://purl.org/dc/elements/1.1/"
   xmlns:cc="http://creativecommons.org/ns#"
   xmlns:rdf="http://www.w3.org/1999/02/22-rdf-syntax-ns#"
   xmlns:svg="http://www.w3.org/2000/svg"
   xmlns="http://www.w3.org/2000/svg"
   xmlns:sodipodi="http://sodipodi.sourceforge.net/DTD/sodipodi-0.dtd"
   xmlns:inkscape="http://www.inkscape.org/namespaces/inkscape"
   width="58"
   height="58"
   viewBox="0 0 15.345833 15.345834"
   version="1.1"
   id="svg873"
   inkscape:version="0.92.3 (2405546, 2018-03-11)"
   sodipodi:docname="check.svg">
  <defs
     id="defs867" />
  <sodipodi:namedview
     id="base"
     pagecolor="#ffffff"
     bordercolor="#666666"
     borderopacity="1.0"
     inkscape:pageopacity="0.0"
     inkscape:pageshadow="2"
     inkscape:zoom="1.4"
     inkscape:cx="-64.285714"
     inkscape:cy="45.714285"
     inkscape:document-units="mm"
     inkscape:current-layer="layer1"
     showgrid="false"
     units="px"
     inkscape:window-width="1920"
     inkscape:window-height="1017"
     inkscape:window-x="1912"
     inkscape:window-y="-8"
     inkscape:window-maximized="1" />
  <metadata
     id="metadata870">
    <rdf:RDF>
      <cc:Work
         rdf:about="">
        <dc:format>image/svg+xml</dc:format>
        <dc:type
           rdf:resource="http://purl.org/dc/dcmitype/StillImage" />
        <dc:title></dc:title>
      </cc:Work>
    </rdf:RDF>
  </metadata>
  <g
     inkscape:label="Layer 1"
     inkscape:groupmode="layer"
     id="layer1"
     transform="translate(0,-281.65415)">
    <g
       id="g1428"
       transform="translate(20.977679,-12.284226)">
      <ellipse
         ry="6.614584"
         rx="6.9925594"
         cy="301.7247"
         cx="-13.229167"
         id="path1336"
         style="opacity:1;fill:#ffd42a;fill-opacity:1;stroke:none;stroke-width:3.5603683;stroke-linejoin:round;stroke-miterlimit:4;stroke-dasharray:none;stroke-opacity:1" />
      <path
         style="stroke-width:0.01540436"
         inkscape:connector-curvature="0"
         d="m -9.3900404,299.65148 -0.9544906,-0.59099 c -0.0295,-0.0191 -0.0661,-0.0328 -0.10779,-0.0328 -0.0417,0 -0.08,0.0136 -0.10953,0.0341 l -3.47194,3.50228 c 0,0 -1.36478,-1.03049 -1.40303,-1.06051 -0.0383,-0.03 -0.0887,-0.0805 -0.16517,-0.0805 -0.0765,0 -0.11127,0.0423 -0.15125,0.0737 -0.0295,0.0246 -0.51636,0.42584 -0.75628,0.62511 -0.0139,0.0123 -0.0226,0.0191 -0.0348,0.0286 -0.0208,0.0232 -0.0348,0.0491 -0.0348,0.0778 0,0.03 0.0139,0.0546 0.0348,0.0778 l 0.0487,0.0355 c 0,0 2.42184,1.82621 2.46183,1.85759 0.04,0.0314 0.0887,0.071 0.15995,0.071 0.0695,0 0.12691,-0.0587 0.15995,-0.0846 l 4.3307996,-4.36761 c 0.0208,-0.0232 0.0348,-0.0491 0.0348,-0.0792 0,-0.0341 -0.0174,-0.0628 -0.0417,-0.0874 z"
         id="path2459" />
    </g>
  </g>
</svg>
