<?xml version="1.0" encoding="UTF-8" standalone="no"?>
<!-- Created with Inkscape (http://www.inkscape.org/) -->

<svg
   xmlns:dc="http://purl.org/dc/elements/1.1/"
   xmlns:cc="http://creativecommons.org/ns#"
   xmlns:rdf="http://www.w3.org/1999/02/22-rdf-syntax-ns#"
   xmlns:svg="http://www.w3.org/2000/svg"
   xmlns="http://www.w3.org/2000/svg"
   xmlns:sodipodi="http://sodipodi.sourceforge.net/DTD/sodipodi-0.dtd"
   xmlns:inkscape="http://www.inkscape.org/namespaces/inkscape"
   width="8in"
   height="8in"
   viewBox="0 0 203.20002 203.19999"
   version="1.1"
   id="svg5353"
   inkscape:version="0.92.4 (33fec40, 2019-01-16)"
   sodipodi:docname="trasa-square.svg">
  <defs
     id="defs5347" />
  <sodipodi:namedview
     id="base"
     pagecolor="#ffffff"
     bordercolor="#666666"
     borderopacity="1.0"
     inkscape:pageopacity="0.0"
     inkscape:pageshadow="2"
     inkscape:zoom="0.98994949"
     inkscape:cx="430.84933"
     inkscape:cy="365.93416"
     inkscape:document-units="mm"
     inkscape:current-layer="layer1"
     showgrid="false"
     inkscape:showpageshadow="false"
     units="in"
     showguides="true"
     inkscape:guide-bbox="true"
     inkscape:snap-others="false"
     inkscape:object-paths="false"
     inkscape:snap-nodes="false"
     inkscape:snap-global="false"
     fit-margin-top="0"
     fit-margin-left="0"
     fit-margin-right="0"
     fit-margin-bottom="0"
     inkscape:window-width="1920"
     inkscape:window-height="1013"
     inkscape:window-x="0"
     inkscape:window-y="0"
     inkscape:window-maximized="1">
    <sodipodi:guide
       position="106.90781,123.47852"
       orientation="0,1"
       id="guide5355"
       inkscape:locked="false" />
    <sodipodi:guide
       position="98.35723,1.1267778"
       orientation="0,1"
       id="guide5357"
       inkscape:locked="false" />
    <sodipodi:guide
       position="0.0020386484,13.421174"
       orientation="1,0"
       id="guide5359"
       inkscape:locked="false" />
    <sodipodi:guide
       position="35.281619,3.799471"
       orientation="1,0"
       id="guide5361"
       inkscape:locked="false" />
    <sodipodi:guide
       position="75.639322,0.32496675"
       orientation="1,0"
       id="guide5363"
       inkscape:locked="false" />
    <sodipodi:guide
       position="40.35974,-14.107586"
       orientation="1,0"
       id="guide5365"
       inkscape:locked="false" />
    <sodipodi:guide
       position="80.717443,13.153905"
       orientation="1,0"
       id="guide5381"
       inkscape:locked="false" />
    <sodipodi:guide
       position="115.72974,-1.0113813"
       orientation="1,0"
       id="guide5383"
       inkscape:locked="false" />
    <sodipodi:guide
       position="120.80786,19.033835"
       orientation="1,0"
       id="guide5395"
       inkscape:locked="false" />
    <sodipodi:guide
       position="155.55291,9.4121302"
       orientation="1,0"
       id="guide5397"
       inkscape:locked="false" />
    <sodipodi:guide
       position="160.63104,11.015748"
       orientation="1,0"
       id="guide5409"
       inkscape:locked="false" />
    <sodipodi:guide
       position="195.64334,-1.2786506"
       orientation="1,0"
       id="guide5411"
       inkscape:locked="false" />
    <sodipodi:guide
       position="102.6315,96.217032"
       orientation="0,1"
       id="guide5421"
       inkscape:locked="false" />
    <sodipodi:guide
       position="120.69597,16.327924"
       orientation="0,1"
       id="guide5431"
       inkscape:locked="false" />
    <sodipodi:guide
       position="131.27932,11.792209"
       orientation="0,1"
       id="guide5433"
       inkscape:locked="false" />
    <sodipodi:guide
       position="59.714337,16.394718"
       orientation="0,1"
       id="guide5675"
       inkscape:locked="false" />
  </sodipodi:namedview>
  <metadata
     id="metadata5350">
    <rdf:RDF>
      <cc:Work
         rdf:about="">
        <dc:format>image/svg+xml</dc:format>
        <dc:type
           rdf:resource="http://purl.org/dc/dcmitype/StillImage" />
        <dc:title></dc:title>
      </cc:Work>
    </rdf:RDF>
  </metadata>
  <g
     inkscape:label="Layer 1"
     inkscape:groupmode="layer"
     id="layer1"
     transform="translate(-14.430516,-20.358597)">
    <rect
       style="fill:#ffffff;fill-rule:evenodd;stroke-width:0.26458332"
       id="rect930"
       width="203.65938"
       height="203.65938"
       x="14.430516"
       y="20.701025" />
    <rect
       style="fill:#0b1728;fill-opacity:1;stroke-width:0.29325774"
       id="rect5367"
       width="35.286991"
       height="5.2921233"
       x="17.370481"
       y="105.85602" />
    <rect
       style="fill:#0b1728;fill-opacity:1;stroke-width:0.31675714"
       id="rect5369"
       width="5.8799295"
       height="20.337498"
       x="32.60688"
       y="110.92673" />
    <rect
       style="fill:#0b1728;fill-opacity:1;stroke-width:0.26458332"
       id="rect5375"
       width="3.4745038"
       height="7.2162771"
       x="89.535294"
       y="111.19401" />
    <path
       id="rect5379"
       style="fill:#0b1728;fill-opacity:1;stroke-width:0.47097522"
       d="m 78.046878,115.43093 c -0.05312,0.008 -0.110299,0.0116 -0.172082,0.0109 -0.0051,4.2e-4 -0.0086,0.002 -0.01394,0.003 -0.01326,4.2e-4 -0.02653,8.5e-4 -0.03979,0.001 -0.01968,4e-4 -0.03923,8.5e-4 -0.05891,0.001 -0.0195,4.8e-4 -0.03889,10e-4 -0.05839,0.002 -0.01913,5.8e-4 -0.03822,0.001 -0.05736,0.002 -0.02048,6.9e-4 -0.04099,0.001 -0.06149,0.001 -0.01958,-1e-5 -0.03933,-5.3e-4 -0.05891,-5.3e-4 h -0.06098 -0.06046 c -0.02043,-1e-5 -0.04107,1e-5 -0.06149,0 h -0.05788 c -0.01857,-1e-5 -0.03723,0 -0.05581,0 h -0.05323 -0.05375 c -0.01783,-1e-5 -0.0359,2e-5 -0.05374,0 -0.01786,-1e-5 -0.03538,1e-5 -0.05323,0 h -0.05426 -0.0553 c -0.01894,-3e-5 -0.03788,3e-5 -0.05684,0 -0.01842,-3e-5 -0.03687,4e-5 -0.05529,0 -0.01797,-4e-5 -0.0363,-4.7e-4 -0.05426,-5.3e-4 -0.01818,-4e-5 -0.03608,5e-5 -0.05426,0 -0.0186,-5e-5 -0.03722,6e-5 -0.05581,0 -0.01799,-6e-5 -0.03626,-4.5e-4 -0.05426,-5.3e-4 -0.01722,-8e-5 -0.03445,9e-5 -0.05168,0 -0.01669,-10e-5 -0.03292,-3.9e-4 -0.04961,-5.2e-4 -0.01696,-1.1e-4 -0.03421,-3.8e-4 -0.05116,-5.3e-4 -0.01699,-1.4e-4 -0.03367,1.6e-4 -0.05064,0 -0.01685,-1.7e-4 -0.03378,-3.2e-4 -0.05064,-5.3e-4 -0.01683,-2e-4 -0.0338,-8e-4 -0.05064,-0.001 -0.01638,-2.6e-4 -0.0327,-2.2e-4 -0.04909,-5.3e-4 -0.01638,-3e-4 -0.03272,-6.7e-4 -0.04909,-0.001 -0.01598,-3.7e-4 -0.03208,-7.6e-4 -0.04806,-10e-4 -0.01545,-4.5e-4 -0.03107,-9.2e-4 -0.04651,-0.001 -0.01474,-5.3e-4 -0.02919,-0.001 -0.04393,-0.002 -0.01442,-6.6e-4 -0.029,-0.001 -0.04341,-0.002 -0.01138,-6.3e-4 -0.02273,-0.002 -0.03411,-0.003 -0.01082,6.3e-4 -0.02162,0.002 -0.03255,0.002 -0.01368,3.2e-4 -0.02766,6.9e-4 -0.04134,10e-4 -0.01347,4e-4 -0.02684,8.2e-4 -0.04031,0.001 -0.01312,4.5e-4 -0.02614,0.001 -0.03927,0.002 -0.01307,5.8e-4 -0.02622,0.001 -0.03928,0.002 -0.014,5.3e-4 -0.02787,4e-4 -0.04186,5.3e-4 -0.01283,-8e-5 -0.02595,1.4e-4 -0.03876,-5.3e-4 -0.01193,-5e-4 -0.02373,-0.001 -0.03565,-0.002 -0.01378,-10e-4 -0.02721,-0.003 -0.04082,-0.005 -2.65e-4,-7e-5 -7.94e-4,-4.5e-4 -0.0011,-5.3e-4 -0.04465,0.003 -0.08966,0.005 -0.134358,0.006 -0.04781,10e-4 -0.09532,0.002 -0.143145,10e-4 -0.02225,-8e-4 -0.04442,-0.003 -0.06666,-0.005 l 0.691949,4.91959 17.631997,11.47269 -0.973585,-6.92361 z"
       inkscape:connector-curvature="0" />
    <rect
       style="fill:#0b1728;fill-opacity:1;stroke-width:0.26860335"
       id="rect5385"
       width="5.8881154"
       height="24.7563"
       x="122.17876"
       y="80.893593"
       transform="matrix(0.9759164,0.21814486,-0.20596392,0.97855959,0,0)" />
    <rect
       style="fill:#0b1728;fill-opacity:1;stroke-width:0.26458332"
       id="rect5387"
       width="5.0781207"
       height="25.123335"
       x="96.213852"
       y="132.22191"
       transform="rotate(-13.080304)" />
    <rect
       style="fill:#0b1728;fill-opacity:1;stroke-width:0.26458332"
       id="rect5393"
       width="14.967093"
       height="4.543582"
       x="108.4966"
       y="115.52359" />
    <rect
       style="fill:#0b1728;fill-opacity:1;stroke-width:0.26458332"
       id="rect5401"
       width="4.0090427"
       height="6.9490075"
       x="138.18373"
       y="110.39217" />
    <rect
       style="fill:#0b1728;fill-opacity:1;stroke-width:0.26768371"
       id="rect5403"
       width="34.839531"
       height="4.6380758"
       x="138.16212"
       y="115.53239" />
    <rect
       transform="matrix(0.97600235,0.21776001,-0.20632984,0.9784825,0,0)"
       y="63.758942"
       x="199.63297"
       height="24.712395"
       width="5.8875971"
       id="rect5413"
       style="fill:#0b1728;fill-opacity:1;stroke-width:0.26835325" />
    <rect
       transform="rotate(-13.080304)"
       y="150.12621"
       x="173.2729"
       height="25.123335"
       width="5.0781207"
       id="rect5415"
       style="fill:#0b1728;fill-opacity:1;stroke-width:0.26458332" />
    <rect
       y="115.49992"
       x="187.46666"
       height="4.543582"
       width="14.967093"
       id="rect5419"
       style="fill:#0b1728;fill-opacity:1;stroke-width:0.26458332" />
    <rect
       y="105.85602"
       x="57.695812"
       height="5.3157468"
       width="35.334236"
       id="rect5423"
       style="fill:#0b1728;fill-opacity:1;stroke-width:0.29410824" />
    <rect
       style="fill:#0b1728;fill-opacity:1;stroke-width:0.25070944"
       id="rect5425"
       width="25.790337"
       height="5.2921233"
       x="102.65136"
       y="105.85602" />
    <rect
       style="fill:#0b1728;fill-opacity:1;stroke-width:0.29099125"
       id="rect5427"
       width="34.743649"
       height="5.2921233"
       x="138.18112"
       y="105.85602" />
    <rect
       y="105.87962"
       x="181.65782"
       height="5.2684999"
       width="25.908455"
       id="rect5429"
       style="fill:#0b1728;fill-opacity:1;stroke-width:0.25072142" />
    <path
       id="rect5435"
       style="fill:#0b1728;fill-opacity:1;stroke-width:0.26783913"
       d="m 58.597937,115.43765 v 4.70101 h 34.414436 v -4.70101 H 77.9766 c -0.03347,0.003 -0.0676,0.005 -0.10387,0.005 -0.0043,3.2e-4 -0.0073,0.002 -0.01188,0.002 -0.01326,4.2e-4 -0.02653,8.4e-4 -0.03979,0.001 -0.01969,3.9e-4 -0.03923,8.4e-4 -0.05891,0.001 -0.0195,4.8e-4 -0.03889,10e-4 -0.05839,0.002 -0.01913,5.9e-4 -0.03822,0.001 -0.05736,0.002 -0.02048,6.8e-4 -0.041,0.001 -0.0615,0.001 -0.01958,-1e-5 -0.03933,-5.3e-4 -0.05891,-5.3e-4 h -0.06098 -0.06046 c -0.02043,-1e-5 -0.04107,1e-5 -0.06149,0 h -0.05788 c -0.01857,-1e-5 -0.03723,0 -0.05581,0 H 77.17614 77.1224 c -0.01783,-1e-5 -0.0359,2e-5 -0.05374,0 -0.01786,-1e-5 -0.03538,1e-5 -0.05323,0 h -0.05426 -0.0553 c -0.01894,-3e-5 -0.03788,3e-5 -0.05684,0 -0.01842,-3e-5 -0.03687,4e-5 -0.05529,0 -0.01797,-4e-5 -0.0363,-4.8e-4 -0.05426,-5.3e-4 -0.01818,-4e-5 -0.03608,5e-5 -0.05426,0 -0.0186,-5e-5 -0.03722,6e-5 -0.05581,0 -0.01799,-6e-5 -0.03626,-4.5e-4 -0.05426,-5.3e-4 -0.01722,-8e-5 -0.03445,9e-5 -0.05168,0 -0.0167,-10e-5 -0.03292,-4e-4 -0.04961,-5.3e-4 -0.01696,-1.1e-4 -0.03421,-3.7e-4 -0.05116,-5.3e-4 -0.01699,-1.4e-4 -0.03367,1.6e-4 -0.05064,0 -0.01685,-1.7e-4 -0.03378,-3.1e-4 -0.05064,-5.3e-4 -0.01683,-2e-4 -0.0338,-7.9e-4 -0.05064,-0.001 -0.01638,-2.5e-4 -0.0327,-2.2e-4 -0.04909,-5.3e-4 -0.01638,-2.9e-4 -0.03272,-6.6e-4 -0.04909,-0.001 -0.01598,-3.7e-4 -0.03208,-7.7e-4 -0.04806,-10e-4 -0.01545,-4.5e-4 -0.03107,-9.3e-4 -0.04651,-0.001 -0.01474,-5.3e-4 -0.02919,-0.001 -0.04393,-0.002 -0.01442,-6.6e-4 -0.029,-0.001 -0.04341,-0.002 -0.0095,-5.3e-4 -0.01894,-0.001 -0.02842,-0.002 H 75.9478 c -0.0079,3.9e-4 -0.01577,0.001 -0.02376,0.001 -0.01368,3.2e-4 -0.02766,6.9e-4 -0.04134,0.001 -0.01347,4e-4 -0.02684,8.2e-4 -0.04031,10e-4 -0.01312,4.5e-4 -0.02614,0.001 -0.03927,0.002 -0.01307,5.8e-4 -0.02622,0.001 -0.03927,0.002 -0.014,5.3e-4 -0.02787,4e-4 -0.04186,5.3e-4 -0.01283,-8e-5 -0.02596,1.3e-4 -0.03876,-5.3e-4 -0.01193,-5e-4 -0.02373,-0.001 -0.03566,-0.002 -0.01378,-10e-4 -0.02722,-0.003 -0.04083,-0.005 h -0.0217 c -0.03786,0.002 -0.07586,0.004 -0.113688,0.005 -0.04781,0.001 -0.09532,0.002 -0.143145,0.001 -0.02675,-0.001 -0.05338,-0.004 -0.0801,-0.006 -0.04312,0.005 -0.08759,0.008 -0.137459,0 z"
       inkscape:connector-curvature="0" />
    <rect
       y="110.90311"
       x="57.704502"
       height="19.770535"
       width="5.8799295"
       id="rect5437"
       style="fill:#0b1728;fill-opacity:1;stroke-width:0.3123107" />
    <rect
       style="fill:#0b1728;fill-opacity:1;stroke-width:0.21611819"
       id="rect5439"
       width="5.8799295"
       height="9.4673252"
       x="167.16641"
       y="121.27718" />
    <rect
       y="125.58163"
       x="138.063"
       height="5.1267586"
       width="34.790897"
       id="rect5441"
       style="fill:#0b1728;fill-opacity:1;stroke-width:0.28660348" />
  </g>
</svg>
