<?xml version="1.0" encoding="UTF-8" standalone="no"?>
<!-- Created with Inkscape (http://www.inkscape.org/) -->

<svg
   xmlns:dc="http://purl.org/dc/elements/1.1/"
   xmlns:cc="http://creativecommons.org/ns#"
   xmlns:rdf="http://www.w3.org/1999/02/22-rdf-syntax-ns#"
   xmlns:svg="http://www.w3.org/2000/svg"
   xmlns="http://www.w3.org/2000/svg"
   xmlns:sodipodi="http://sodipodi.sourceforge.net/DTD/sodipodi-0.dtd"
   xmlns:inkscape="http://www.inkscape.org/namespaces/inkscape"
   viewBox="0 0 11.49292 11.209466"
   version="1.1"
   id="svg4918"
   inkscape:version="0.92.3 (2405546, 2018-03-11)"
   sodipodi:docname="GitHub-Mark2.svg"
   style="shape-rendering:crispEdges">
  <defs
     id="defs4912" />
  <sodipodi:namedview
     id="base"
     pagecolor="#ffffff"
     bordercolor="#666666"
     borderopacity="1.0"
     inkscape:pageopacity="0.0"
     inkscape:pageshadow="2"
     inkscape:zoom="0.35"
     inkscape:cx="17.433625"
     inkscape:cy="-95.959624"
     inkscape:document-units="mm"
     inkscape:current-layer="layer1"
     showgrid="false"
     inkscape:window-width="1456"
     inkscape:window-height="741"
     inkscape:window-x="321"
     inkscape:window-y="58"
     inkscape:window-maximized="0"
     inkscape:showpageshadow="false"
     fit-margin-top="0"
     fit-margin-left="0"
     fit-margin-right="0"
     fit-margin-bottom="0" />
  <metadata
     id="metadata4915">
    <rdf:RDF>
      <cc:Work
         rdf:about="">
        <dc:format>image/svg+xml</dc:format>
        <dc:type
           rdf:resource="http://purl.org/dc/dcmitype/StillImage" />
        <dc:title></dc:title>
      </cc:Work>
    </rdf:RDF>
  </metadata>
  <g
     inkscape:label="Layer 1"
     inkscape:groupmode="layer"
     id="layer1"
     transform="translate(-119.74152,-112.23455)">
    <path
       d="m 125.48757,112.23455 c -3.17324,0 -5.74605,2.57281 -5.74605,5.74675 0,2.53894 1.64642,4.69265 3.92995,5.45289 0.28751,0.0526 0.39229,-0.12489 0.39229,-0.27729 0,-0.13617 -0.005,-0.49776 -0.008,-0.97719 -1.59844,0.34713 -1.9357,-0.77047 -1.9357,-0.77047 -0.26141,-0.66392 -0.63817,-0.84067 -0.63817,-0.84067 -0.52176,-0.3563 0.0395,-0.34925 0.0395,-0.34925 0.57679,0.0406 0.88018,0.59232 0.88018,0.59232 0.51259,0.87806 1.34514,0.62441 1.67252,0.47731 0.0522,-0.37113 0.20038,-0.62442 0.36477,-0.768 -1.276,-0.14499 -2.61761,-0.63818 -2.61761,-2.84021 0,-0.62724 0.22401,-1.14018 0.59161,-1.542 -0.0593,-0.14534 -0.25647,-0.72954 0.0561,-1.52082 0,0 0.4826,-0.15452 1.58044,0.58914 0.45826,-0.12771 0.95004,-0.19121 1.43863,-0.19332 0.48789,0.002 0.97967,0.0656 1.43863,0.19332 1.09714,-0.74366 1.57868,-0.58914 1.57868,-0.58914 0.31362,0.79128 0.11642,1.37548 0.0571,1.52082 0.3683,0.40182 0.5909,0.91476 0.5909,1.542 0,2.20768 -1.34373,2.69345 -2.62396,2.83562 0.20638,0.17745 0.39017,0.52811 0.39017,1.06433 0,0.768 -0.007,1.38783 -0.007,1.57621 0,0.15382 0.10337,0.33267 0.39512,0.27658 2.28177,-0.76164 3.92677,-2.91394 3.92677,-5.45218 0,-3.17394 -2.57316,-5.74675 -5.7471,-5.74675"
       style="fill:#ffffff;fill-opacity:1;fill-rule:evenodd;stroke:none;stroke-width:0.35277775"
       id="path198-3"
       inkscape:connector-curvature="0" />
  </g>
</svg>
