<?xml version="1.0" encoding="UTF-8" standalone="no"?>
<!-- Generator: Adobe Illustrator 16.2.1, SVG Export Plug-In . SVG Version: 6.00 Build 0)  -->

<svg
   xmlns:dc="http://purl.org/dc/elements/1.1/"
   xmlns:cc="http://creativecommons.org/ns#"
   xmlns:rdf="http://www.w3.org/1999/02/22-rdf-syntax-ns#"
   xmlns:svg="http://www.w3.org/2000/svg"
   xmlns="http://www.w3.org/2000/svg"
   xmlns:sodipodi="http://sodipodi.sourceforge.net/DTD/sodipodi-0.dtd"
   xmlns:inkscape="http://www.inkscape.org/namespaces/inkscape"
   version="1.1"
   id="Layer_1"
   x="0px"
   y="0px"
   viewBox="0 0 512 512"
   style="enable-background:new 0 0 512 512;"
   xml:space="preserve"
   sodipodi:docname="totp.svg"
   inkscape:version="0.92.4 (33fec40, 2019-01-16)"><metadata
   id="metadata5452"><rdf:RDF><cc:Work
       rdf:about=""><dc:format>image/svg+xml</dc:format><dc:type
         rdf:resource="http://purl.org/dc/dcmitype/StillImage" /><dc:title></dc:title></cc:Work></rdf:RDF></metadata><defs
   id="defs5450" /><sodipodi:namedview
   pagecolor="#ffffff"
   bordercolor="#666666"
   borderopacity="1"
   objecttolerance="10"
   gridtolerance="10"
   guidetolerance="10"
   inkscape:pageopacity="0"
   inkscape:pageshadow="2"
   inkscape:window-width="1920"
   inkscape:window-height="1013"
   id="namedview5448"
   showgrid="false"
   inkscape:snap-global="false"
   inkscape:zoom="1.6152344"
   inkscape:cx="256"
   inkscape:cy="256"
   inkscape:window-x="0"
   inkscape:window-y="0"
   inkscape:window-maximized="1"
   inkscape:current-layer="Layer_1" />
<g
   id="g5445"
   transform="matrix(1.10969,0,0,1,-26.836969,16.096735)"
   style="fill:#00002b">
	<path
   d="M 328.2,64 H 183.8 C 170.7,64 160,74.7 160,87.9 v 336.3 c 0,13.1 10.7,23.8 23.8,23.8 h 144.3 c 13.1,0 23.8,-10.7 23.8,-23.8 V 87.9 C 352,74.7 341.3,64 328.2,64 Z M 240,99.9 c 0,-2.1 1.7,-3.9 3.9,-3.9 h 24.3 c 2.1,0 3.9,1.7 3.9,3.9 v 0.3 c 0,2.1 -1.7,3.9 -3.9,3.9 h -24.3 c -2.1,0 -3.9,-1.7 -3.9,-3.9 V 99.9 Z M 228,96 c 2.2,0 4,1.8 4,4 0,2.2 -1.8,4 -4,4 -2.2,0 -4,-1.8 -4,-4 0,-2.2 1.8,-4 4,-4 z m 28,336.1 c -8.9,0 -16.1,-7.2 -16.1,-16.1 0,-8.9 7.2,-16.1 16.1,-16.1 8.9,0 16.1,7.2 16.1,16.1 0,8.9 -7.3,16.1 -16.1,16.1 z M 336,384 H 176 V 128 h 160 z"
   id="path5443"
   inkscape:connector-curvature="0"
   style="fill:#00002b" />
</g>
<path
   sodipodi:type="star"
   style="opacity:1;fill:#216778;fill-opacity:1;fill-rule:evenodd;stroke:none;stroke-width:1.51181102;stroke-miterlimit:4;stroke-dasharray:none;stroke-opacity:0.94117647"
   id="path5454"
   sodipodi:sides="5"
   sodipodi:cx="181.39783"
   sodipodi:cy="258.16687"
   sodipodi:r1="11.892623"
   sodipodi:r2="5.9463115"
   sodipodi:arg1="0.89605538"
   sodipodi:arg2="1.5243739"
   inkscape:flatsided="false"
   inkscape:rounded="0"
   inkscape:randomized="0"
   d="m 188.82709,267.45345 -7.15332,-3.34667 -6.81224,3.99545 0.97238,-7.83739 -5.905,-5.24416 7.75429,-1.4971 3.16274,-7.23652 3.82003,6.91213 7.85969,0.77174 -5.39338,5.76903 z"
   inkscape:transform-center-x="-0.016330213"
   inkscape:transform-center-y="-1.1201024"
   transform="rotate(2.9144068,175.51573,505.60508)" /><path
   transform="rotate(2.9144068,237.42625,2939.34)"
   inkscape:transform-center-y="-1.1201024"
   inkscape:transform-center-x="-0.016330213"
   d="m 188.82709,267.45345 -7.15332,-3.34667 -6.81224,3.99545 0.97238,-7.83739 -5.905,-5.24416 7.75429,-1.4971 3.16274,-7.23652 3.82003,6.91213 7.85969,0.77174 -5.39338,5.76903 z"
   inkscape:randomized="0"
   inkscape:rounded="0"
   inkscape:flatsided="false"
   sodipodi:arg2="1.5243739"
   sodipodi:arg1="0.89605538"
   sodipodi:r2="5.9463115"
   sodipodi:r1="11.892623"
   sodipodi:cy="258.16687"
   sodipodi:cx="181.39783"
   sodipodi:sides="5"
   id="path5456"
   style="opacity:1;fill:#216778;fill-opacity:1;fill-rule:evenodd;stroke:none;stroke-width:1.51181102;stroke-miterlimit:4;stroke-dasharray:none;stroke-opacity:0.94117647"
   sodipodi:type="star" /><path
   sodipodi:type="star"
   style="opacity:1;fill:#216778;fill-opacity:1;fill-rule:evenodd;stroke:none;stroke-width:1.51181102;stroke-miterlimit:4;stroke-dasharray:none;stroke-opacity:0.94117647"
   id="path5458"
   sodipodi:sides="5"
   sodipodi:cx="181.39783"
   sodipodi:cy="258.16687"
   sodipodi:r1="11.892623"
   sodipodi:r2="5.9463115"
   sodipodi:arg1="0.89605538"
   sodipodi:arg2="1.5243739"
   inkscape:flatsided="false"
   inkscape:rounded="0"
   inkscape:randomized="0"
   d="m 188.82709,267.45345 -7.15332,-3.34667 -6.81224,3.99545 0.97238,-7.83739 -5.905,-5.24416 7.75429,-1.4971 3.16274,-7.23652 3.82003,6.91213 7.85969,0.77174 -5.39338,5.76903 z"
   inkscape:transform-center-x="-0.016330213"
   inkscape:transform-center-y="-1.1201024"
   transform="rotate(2.9144068,225.3537,2464.7617)" /><path
   transform="rotate(2.9144068,213.90025,2014.5207)"
   inkscape:transform-center-y="-1.1201024"
   inkscape:transform-center-x="-0.016330213"
   d="m 188.82709,267.45345 -7.15332,-3.34667 -6.81224,3.99545 0.97238,-7.83739 -5.905,-5.24416 7.75429,-1.4971 3.16274,-7.23652 3.82003,6.91213 7.85969,0.77174 -5.39338,5.76903 z"
   inkscape:randomized="0"
   inkscape:rounded="0"
   inkscape:flatsided="false"
   sodipodi:arg2="1.5243739"
   sodipodi:arg1="0.89605538"
   sodipodi:r2="5.9463115"
   sodipodi:r1="11.892623"
   sodipodi:cy="258.16687"
   sodipodi:cx="181.39783"
   sodipodi:sides="5"
   id="path5460"
   style="opacity:1;fill:#216778;fill-opacity:1;fill-rule:evenodd;stroke:none;stroke-width:1.51181102;stroke-miterlimit:4;stroke-dasharray:none;stroke-opacity:0.94117647"
   sodipodi:type="star" /><path
   sodipodi:type="star"
   style="opacity:1;fill:#216778;fill-opacity:1;fill-rule:evenodd;stroke:none;stroke-width:1.51181102;stroke-miterlimit:4;stroke-dasharray:none;stroke-opacity:0.94117647"
   id="path5462"
   sodipodi:sides="5"
   sodipodi:cx="181.39783"
   sodipodi:cy="258.16687"
   sodipodi:r1="11.892623"
   sodipodi:r2="5.9463115"
   sodipodi:arg1="0.89605538"
   sodipodi:arg2="1.5243739"
   inkscape:flatsided="false"
   inkscape:rounded="0"
   inkscape:randomized="0"
   d="m 188.82709,267.45345 -7.15332,-3.34667 -6.81224,3.99545 0.97238,-7.83739 -5.905,-5.24416 7.75429,-1.4971 3.16274,-7.23652 3.82003,6.91213 7.85969,0.77174 -5.39338,5.76903 z"
   inkscape:transform-center-x="-0.016330213"
   inkscape:transform-center-y="-1.1201024"
   transform="rotate(2.9144068,200.89904,1503.4364)" /><path
   transform="rotate(2.9144068,188.51694,1016.6895)"
   inkscape:transform-center-y="-1.1201024"
   inkscape:transform-center-x="-0.016330213"
   d="m 188.82709,267.45345 -7.15332,-3.34667 -6.81224,3.99545 0.97238,-7.83739 -5.905,-5.24416 7.75429,-1.4971 3.16274,-7.23652 3.82003,6.91213 7.85969,0.77174 -5.39338,5.76903 z"
   inkscape:randomized="0"
   inkscape:rounded="0"
   inkscape:flatsided="false"
   sodipodi:arg2="1.5243739"
   sodipodi:arg1="0.89605538"
   sodipodi:r2="5.9463115"
   sodipodi:r1="11.892623"
   sodipodi:cy="258.16687"
   sodipodi:cx="181.39783"
   sodipodi:sides="5"
   id="path5464"
   style="opacity:1;fill:#216778;fill-opacity:1;fill-rule:evenodd;stroke:none;stroke-width:1.51181102;stroke-miterlimit:4;stroke-dasharray:none;stroke-opacity:0.94117647"
   sodipodi:type="star" /><rect
   style="fill:#1c1f24;fill-rule:evenodd"
   id="rect5466"
   width="142.3942"
   height="3.095526"
   x="184.49335"
   y="274.26361" /><rect
   style="fill:#ffffff;fill-rule:evenodd;stroke-width:0.87013102"
   id="rect5468"
   width="7.7199836"
   height="14.4928"
   x="203.3949"
   y="268.43826" /><rect
   y="268.43826"
   x="300.59442"
   height="14.4928"
   width="7.7199836"
   id="rect5470"
   style="fill:#ffffff;fill-rule:evenodd;stroke-width:0.87013102" /><rect
   style="fill:#ffffff;fill-rule:evenodd;stroke-width:0.87013102"
   id="rect5472"
   width="7.7199836"
   height="14.4928"
   x="277.68753"
   y="268.43826" /><rect
   y="268.43826"
   x="253.54242"
   height="14.4928"
   width="7.7199836"
   id="rect5474"
   style="fill:#ffffff;fill-rule:evenodd;stroke-width:0.87013102" /><rect
   style="fill:#ffffff;fill-rule:evenodd;stroke-width:0.87013102"
   id="rect5476"
   width="7.7199836"
   height="14.4928"
   x="227.53999"
   y="268.43826" /></svg>