<?xml version="1.0" encoding="UTF-8" standalone="no"?>
<svg
   xmlns:dc="http://purl.org/dc/elements/1.1/"
   xmlns:cc="http://creativecommons.org/ns#"
   xmlns:rdf="http://www.w3.org/1999/02/22-rdf-syntax-ns#"
   xmlns:svg="http://www.w3.org/2000/svg"
   xmlns="http://www.w3.org/2000/svg"
   id="svg5353"
   version="1.1"
   viewBox="0 0 196.01492 26.019506"
   >
  <defs
     id="defs5347" />
  <metadata
     id="metadata5350">
    <rdf:RDF>
      <cc:Work
         rdf:about="">
        <dc:format>image/svg+xml</dc:format>
        <dc:type
           rdf:resource="http://purl.org/dc/dcmitype/StillImage" />
        <dc:title></dc:title>
      </cc:Work>
    </rdf:RDF>
  </metadata>
  <g
     transform="translate(-14.430516,-197.53902)"
     id="layer1">
    <g
       id="g6397">
      <rect
         style="fill:#0b1728;fill-opacity:1;stroke-width:0.29325774"
         id="rect5367"
         width="35.286991"
         height="5.2921233"
         x="14.430516"
         y="197.58319" />
      <rect
         style="fill:#0b1728;fill-opacity:1;stroke-width:0.31675714"
         id="rect5369"
         width="5.8799295"
         height="20.337498"
         x="29.666916"
         y="202.6539" />
      <rect
         style="fill:#0b1728;fill-opacity:1;stroke-width:0.26458332"
         id="rect5375"
         width="3.4745038"
         height="7.2162771"
         x="86.595329"
         y="202.92117" />
      <path
         id="rect5379"
         transform="matrix(0.26458333,0,0,0.26458333,14.430516,197.53902)"
         style="fill:#0b1728;fill-opacity:1;stroke-width:1.78006387"
         d="m 229.32812,36.355469 c -0.20076,0.02919 -0.41688,0.04373 -0.65039,0.04102 -0.0192,0.0016 -0.0325,0.0091 -0.0527,0.0098 -0.0501,0.0016 -0.10027,0.0032 -0.15039,0.0039 -0.0744,0.0015 -0.14828,0.0032 -0.22266,0.0039 -0.0737,0.0018 -0.147,0.0038 -0.2207,0.0078 -0.0723,0.0022 -0.14446,0.004 -0.2168,0.0078 -0.0774,0.0026 -0.15494,0.0039 -0.23242,0.0039 -0.074,-3.8e-5 -0.14866,-0.002 -0.22265,-0.002 h -0.23047 -0.22852 c -0.0772,-3.8e-5 -0.15521,3.7e-5 -0.23242,0 h -0.21875 c -0.0702,-3.8e-5 -0.14072,0 -0.21094,0 h -0.20117 -0.20313 c -0.0674,-3.8e-5 -0.13569,7.5e-5 -0.20312,0 -0.0675,-3.8e-5 -0.13371,3.7e-5 -0.20117,0 h -0.20508 -0.20899 c -0.0716,-1.14e-4 -0.14318,1.13e-4 -0.21484,0 -0.0696,-1.14e-4 -0.13936,1.51e-4 -0.20898,0 -0.0679,-1.52e-4 -0.1372,-0.0018 -0.20508,-0.002 -0.0687,-1.52e-4 -0.13637,1.87e-4 -0.20508,0 -0.0703,-1.89e-4 -0.14068,2.25e-4 -0.21094,0 -0.068,-2.27e-4 -0.13704,-0.0017 -0.20508,-0.002 -0.0651,-3.02e-4 -0.13019,3.41e-4 -0.19531,0 -0.0631,-3.78e-4 -0.12442,-0.0015 -0.1875,-0.002 -0.0641,-4.15e-4 -0.12929,-0.0014 -0.19336,-0.002 -0.0642,-5.29e-4 -0.12726,6.05e-4 -0.1914,0 -0.0637,-6.42e-4 -0.12769,-0.0012 -0.19141,-0.002 -0.0636,-7.56e-4 -0.12776,-0.003 -0.19141,-0.0039 -0.0619,-9.45e-4 -0.1236,-8.2e-4 -0.18554,-0.002 -0.0619,-0.0011 -0.12368,-0.0025 -0.18555,-0.0039 -0.0604,-0.0014 -0.12124,-0.0029 -0.18164,-0.0039 -0.0584,-0.0017 -0.11743,-0.0035 -0.17578,-0.0039 -0.0557,-0.002 -0.11031,-0.004 -0.16602,-0.0078 -0.0545,-0.0025 -0.1096,-0.004 -0.16406,-0.0078 -0.043,-0.0024 -0.0859,-0.0065 -0.12891,-0.0098 -0.0409,0.0024 -0.0817,0.0059 -0.12304,0.0059 -0.0517,0.0012 -0.10455,0.0026 -0.15625,0.0039 -0.0509,0.0015 -0.10144,0.0031 -0.15235,0.0039 -0.0496,0.0017 -0.0988,0.0038 -0.14843,0.0078 -0.0494,0.0022 -0.0991,0.004 -0.14844,0.0078 -0.0529,0.002 -0.10533,0.0015 -0.1582,0.002 -0.0485,-3.02e-4 -0.0981,5.13e-4 -0.14649,-0.002 -0.0451,-0.0019 -0.0897,-0.004 -0.13476,-0.0078 -0.0521,-0.0038 -0.10286,-0.01197 -0.1543,-0.01953 -0.001,-2.55e-4 -0.003,-0.0017 -0.004,-0.002 -0.16877,0.01061 -0.33886,0.01783 -0.50781,0.02148 -0.1807,0.004 -0.36027,0.0079 -0.54102,0.0039 -0.0841,-0.003 -0.16788,-0.01248 -0.25195,-0.01758 l 2.61524,18.59375 66.64062,43.361328 -3.67969,-26.167969 z" />
      <rect
         style="fill:#0b1728;fill-opacity:1;stroke-width:0.26860335"
         id="rect5385"
         width="5.8881154"
         height="24.7563"
         x="138.19554"
         y="171.05997"
         transform="matrix(0.9759164,0.21814486,-0.20596392,0.97855959,0,0)" />
      <rect
         style="fill:#0b1728;fill-opacity:1;stroke-width:0.26458332"
         id="rect5387"
         width="5.0781207"
         height="25.123335"
         x="72.59079"
         y="220.9037"
         transform="rotate(-13.080304)" />
      <rect
         style="fill:#0b1728;fill-opacity:1;stroke-width:0.26458332"
         id="rect5393"
         width="14.967093"
         height="4.543582"
         x="105.55663"
         y="207.25075" />
      <rect
         style="fill:#0b1728;fill-opacity:1;stroke-width:0.26458332"
         id="rect5401"
         width="4.0090427"
         height="6.9490075"
         x="135.24376"
         y="202.11935" />
      <rect
         style="fill:#0b1728;fill-opacity:1;stroke-width:0.26768371"
         id="rect5403"
         width="34.839531"
         height="4.6380758"
         x="135.22215"
         y="207.25955" />
      <rect
         transform="matrix(0.97600234,0.21776001,-0.20632984,0.9784825,0,0)"
         y="153.93126"
         x="215.6834"
         height="24.712395"
         width="5.8875971"
         id="rect5413"
         style="fill:#0b1728;fill-opacity:1;stroke-width:0.26835325" />
      <rect
         transform="rotate(-13.080304)"
         y="238.808"
         x="149.64992"
         height="25.123335"
         width="5.0781207"
         id="rect5415"
         style="fill:#0b1728;fill-opacity:1;stroke-width:0.26458332" />
      <rect
         y="207.22711"
         x="184.52669"
         height="4.543582"
         width="14.967093"
         id="rect5419"
         style="fill:#0b1728;fill-opacity:1;stroke-width:0.26458332" />
      <rect
         y="197.58319"
         x="54.755848"
         height="5.3157468"
         width="35.334236"
         id="rect5423"
         style="fill:#0b1728;fill-opacity:1;stroke-width:0.29410824" />
      <rect
         style="fill:#0b1728;fill-opacity:1;stroke-width:0.25070944"
         id="rect5425"
         width="25.790337"
         height="5.2921233"
         x="99.711395"
         y="197.58319" />
      <rect
         style="fill:#0b1728;fill-opacity:1;stroke-width:0.29099125"
         id="rect5427"
         width="34.743649"
         height="5.2921233"
         x="135.24115"
         y="197.58319" />
      <rect
         y="197.60681"
         x="178.71785"
         height="5.2684999"
         width="25.908455"
         id="rect5429"
         style="fill:#0b1728;fill-opacity:1;stroke-width:0.25072142" />
      <path
         id="rect5435"
         transform="matrix(0.26458333,0,0,0.26458333,14.430516,197.53902)"
         style="fill:#0b1728;fill-opacity:1;stroke-width:1.01230538"
         d="M 155.82031,36.380859 V 54.148438 H 285.89062 V 36.380859 H 229.0625 c -0.1265,0.01031 -0.25551,0.01854 -0.39258,0.01758 -0.0164,0.0012 -0.0277,0.0073 -0.0449,0.0078 -0.0501,0.0016 -0.10027,0.0032 -0.15039,0.0039 -0.0744,0.0015 -0.14828,0.0032 -0.22266,0.0039 -0.0737,0.0018 -0.147,0.0038 -0.2207,0.0078 -0.0723,0.0022 -0.14446,0.004 -0.2168,0.0078 -0.0774,0.0026 -0.15494,0.0039 -0.23242,0.0039 -0.074,-3.8e-5 -0.14866,-0.002 -0.22265,-0.002 h -0.23047 -0.22852 c -0.0772,-3.8e-5 -0.15521,3.7e-5 -0.23242,0 h -0.21875 c -0.0702,-3.8e-5 -0.14072,0 -0.21094,0 h -0.20117 -0.20313 c -0.0674,-3.8e-5 -0.13569,7.5e-5 -0.20312,0 -0.0675,-3.8e-5 -0.13371,3.7e-5 -0.20117,0 h -0.20508 -0.20899 c -0.0716,-1.14e-4 -0.14318,1.13e-4 -0.21484,0 -0.0696,-1.14e-4 -0.13936,1.51e-4 -0.20898,0 -0.0679,-1.52e-4 -0.1372,-0.0018 -0.20508,-0.002 -0.0687,-1.52e-4 -0.13637,1.87e-4 -0.20508,0 -0.0703,-1.89e-4 -0.14068,2.25e-4 -0.21094,0 -0.068,-2.27e-4 -0.13704,-0.0017 -0.20508,-0.002 -0.0651,-3.02e-4 -0.13019,3.41e-4 -0.19531,0 -0.0631,-3.78e-4 -0.12442,-0.0015 -0.1875,-0.002 -0.0641,-4.15e-4 -0.12929,-0.0014 -0.19336,-0.002 -0.0642,-5.29e-4 -0.12726,6.05e-4 -0.1914,0 -0.0637,-6.42e-4 -0.12769,-0.0012 -0.19141,-0.002 -0.0636,-7.56e-4 -0.12776,-0.003 -0.19141,-0.0039 -0.0619,-9.45e-4 -0.1236,-8.2e-4 -0.18554,-0.002 -0.0619,-0.0011 -0.12368,-0.0025 -0.18555,-0.0039 -0.0604,-0.0014 -0.12124,-0.0029 -0.18164,-0.0039 -0.0584,-0.0017 -0.11743,-0.0035 -0.17578,-0.0039 -0.0557,-0.002 -0.11031,-0.004 -0.16602,-0.0078 -0.0545,-0.0025 -0.1096,-0.004 -0.16406,-0.0078 -0.0358,-0.002 -0.0716,-0.005 -0.10742,-0.0078 h -0.0547 c -0.0298,0.0015 -0.0596,0.0039 -0.0898,0.0039 -0.0517,0.0012 -0.10455,0.0026 -0.15625,0.0039 -0.0509,0.0015 -0.10144,0.0031 -0.15235,0.0039 -0.0496,0.0017 -0.0988,0.0038 -0.14843,0.0078 -0.0494,0.0022 -0.0991,0.004 -0.14844,0.0078 -0.0529,0.002 -0.10533,0.0015 -0.1582,0.002 -0.0485,-3.02e-4 -0.0981,5.13e-4 -0.14649,-0.002 -0.0451,-0.0019 -0.0897,-0.004 -0.13476,-0.0078 -0.0521,-0.0038 -0.10286,-0.01197 -0.1543,-0.01953 h -0.082 c -0.1431,0.0076 -0.28673,0.01575 -0.42969,0.01953 -0.1807,0.0038 -0.36026,0.0077 -0.54102,0.0039 -0.1011,-0.0038 -0.20174,-0.01588 -0.30273,-0.02344 -0.16297,0.0189 -0.33104,0.03024 -0.51953,0 z" />
      <rect
         y="202.63028"
         x="54.764538"
         height="19.770535"
         width="5.8799295"
         id="rect5437"
         style="fill:#0b1728;fill-opacity:1;stroke-width:0.3123107" />
      <rect
         style="fill:#0b1728;fill-opacity:1;stroke-width:0.21611819"
         id="rect5439"
         width="5.8799295"
         height="9.4673252"
         x="164.22644"
         y="213.00436" />
      <rect
         y="217.30882"
         x="135.12303"
         height="5.1267586"
         width="34.790897"
         id="rect5441"
         style="fill:#0b1728;fill-opacity:1;stroke-width:0.28660348" />
    </g>
  </g>
</svg>
