<?xml version="1.0" encoding="UTF-8" standalone="no"?>
<!-- Generator: Adobe Illustrator 16.2.1, SVG Export Plug-In . SVG Version: 6.00 Build 0)  -->

<svg
   xmlns:dc="http://purl.org/dc/elements/1.1/"
   xmlns:cc="http://creativecommons.org/ns#"
   xmlns:rdf="http://www.w3.org/1999/02/22-rdf-syntax-ns#"
   xmlns:svg="http://www.w3.org/2000/svg"
   xmlns="http://www.w3.org/2000/svg"
   xmlns:sodipodi="http://sodipodi.sourceforge.net/DTD/sodipodi-0.dtd"
   xmlns:inkscape="http://www.inkscape.org/namespaces/inkscape"
   version="1.1"
   id="Layer_1"
   x="0px"
   y="0px"
   viewBox="0 0 512 512"
   style="enable-background:new 0 0 512 512;"
   xml:space="preserve"
   sodipodi:docname="u2f.svg"
   inkscape:version="0.92.4 (33fec40, 2019-01-16)"><metadata
   id="metadata5452"><rdf:RDF><cc:Work
       rdf:about=""><dc:format>image/svg+xml</dc:format><dc:type
         rdf:resource="http://purl.org/dc/dcmitype/StillImage" /><dc:title></dc:title></cc:Work></rdf:RDF></metadata><defs
   id="defs5450" /><sodipodi:namedview
   pagecolor="#ffffff"
   bordercolor="#666666"
   borderopacity="1"
   objecttolerance="10"
   gridtolerance="10"
   guidetolerance="10"
   inkscape:pageopacity="0"
   inkscape:pageshadow="2"
   inkscape:window-width="1920"
   inkscape:window-height="1013"
   id="namedview5448"
   showgrid="false"
   inkscape:snap-global="false"
   inkscape:zoom="1.6152344"
   inkscape:cx="256"
   inkscape:cy="256"
   inkscape:window-x="0"
   inkscape:window-y="0"
   inkscape:window-maximized="1"
   inkscape:current-layer="Layer_1" />
<g
   id="g5445"
   transform="matrix(1.10969,0,0,1,-26.836969,16.096735)"
   style="fill:#00002b">
	<path
   d="M 328.2,64 H 183.8 C 170.7,64 160,74.7 160,87.9 v 336.3 c 0,13.1 10.7,23.8 23.8,23.8 h 144.3 c 13.1,0 23.8,-10.7 23.8,-23.8 V 87.9 C 352,74.7 341.3,64 328.2,64 Z M 240,99.9 c 0,-2.1 1.7,-3.9 3.9,-3.9 h 24.3 c 2.1,0 3.9,1.7 3.9,3.9 v 0.3 c 0,2.1 -1.7,3.9 -3.9,3.9 h -24.3 c -2.1,0 -3.9,-1.7 -3.9,-3.9 V 99.9 Z M 228,96 c 2.2,0 4,1.8 4,4 0,2.2 -1.8,4 -4,4 -2.2,0 -4,-1.8 -4,-4 0,-2.2 1.8,-4 4,-4 z m 28,336.1 c -8.9,0 -16.1,-7.2 -16.1,-16.1 0,-8.9 7.2,-16.1 16.1,-16.1 8.9,0 16.1,7.2 16.1,16.1 0,8.9 -7.3,16.1 -16.1,16.1 z M 336,384 H 176 V 128 h 160 z"
   id="path5443"
   inkscape:connector-curvature="0"
   style="fill:#00002b" />
</g>
<rect
   style="fill:#ffffff;fill-rule:evenodd;stroke-width:1.00523102"
   id="rect7241"
   width="178.9214"
   height="255.69044"
   x="167.1584"
   y="144.25151" /><rect
   style="fill:#006680;fill-rule:evenodd;stroke-width:0.92235911"
   id="rect5497"
   width="166.53929"
   height="35.288998"
   x="173.96857"
   y="345.46069" /><rect
   style="fill:#003380;fill-rule:evenodd;stroke-width:0.93655002"
   id="rect5499"
   width="82.340988"
   height="34.235592"
   x="257.54776"
   y="345.9874" /><text
   xml:space="preserve"
   style="font-style:normal;font-variant:normal;font-weight:normal;font-stretch:normal;font-size:64px;line-height:1.25;font-family:Armata;-inkscape-font-specification:Armata;letter-spacing:0px;word-spacing:0px;fill:#000000;fill-opacity:1;stroke:none"
   x="189.77992"
   y="364.65295"
   id="text5503"><tspan
     sodipodi:role="line"
     id="tspan5501"
     x="189.77992"
     y="364.65295"
     style="font-size:10.66666698px;fill:#ffffff">Authorize</tspan></text>
<text
   id="text5507"
   y="364.65295"
   x="277.92987"
   style="font-style:normal;font-variant:normal;font-weight:normal;font-stretch:normal;font-size:64px;line-height:1.25;font-family:Armata;-inkscape-font-specification:Armata;letter-spacing:0px;word-spacing:0px;fill:#000000;fill-opacity:1;stroke:none"
   xml:space="preserve"><tspan
     style="font-size:10.66666698px;fill:#ffffff"
     y="364.65295"
     x="277.92987"
     id="tspan5505"
     sodipodi:role="line">Reject</tspan></text>
<rect
   style="fill:none;fill-rule:evenodd;stroke:#00112b;stroke-width:4.75222588;stroke-miterlimit:4;stroke-dasharray:19.0089035, 9.50445175;stroke-dashoffset:0"
   id="rect5509"
   width="0.46020156"
   height="173.80965"
   x="258.55591"
   y="158.26082" /><ellipse
   style="opacity:1;fill:#ffffff;fill-opacity:1;fill-rule:evenodd;stroke:none;stroke-width:5.2774024;stroke-miterlimit:4;stroke-dasharray:21.10960901, 10.5548045;stroke-dashoffset:0;stroke-opacity:0.94117647"
   id="path7243"
   cx="256.30954"
   cy="431.82587"
   rx="16.715841"
   ry="14.548972" /><ellipse
   style="opacity:1;fill:#ffffff;fill-opacity:1;fill-rule:evenodd;stroke:none;stroke-width:4.75222588;stroke-miterlimit:4;stroke-dasharray:19.0089035, 9.50445175;stroke-dashoffset:0;stroke-opacity:0.94117647"
   id="path7245"
   cx="258.78598"
   cy="116.08222"
   rx="16.715841"
   ry="2.7859733" /><ellipse
   style="opacity:1;fill:#ffffff;fill-opacity:1;fill-rule:evenodd;stroke:none;stroke-width:4.75222588;stroke-miterlimit:4;stroke-dasharray:19.0089035, 9.50445175;stroke-dashoffset:0;stroke-opacity:0.94117647"
   id="path7247"
   cx="225.66385"
   cy="115.77267"
   rx="2.1668682"
   ry="1.8573155" /></svg>